<svg width="22" height="22" viewBox="0 0 22 22" fill="none" xmlns="http://www.w3.org/2000/svg">
<path d="M12.0615 15.2239C12.0615 17.8914 14.223 20.0474 16.885 20.0474C19.5525 20.0474 21.7085 17.8859 21.7085 15.2239C21.7085 13.5959 20.9 12.1604 19.6625 11.2859C19.063 10.8624 18.8595 10.0594 19.1895 9.40486L19.899 7.98586L21.835 4.11386C22.066 3.65186 22.044 3.10186 21.769 2.66186C21.4995 2.22186 21.0155 1.95236 20.4985 1.95236L19.008 1.95236C18.4415 1.95236 17.9245 2.27136 17.677 2.77736L15.0755 7.98586L12.2155 14.0194C12.122 14.4044 12.0615 14.8059 12.0615 15.2239Z" fill="#D9D9D9"/>
<path d="M-4.4401e-05 15.2239C-4.46342e-05 17.8914 2.16146 20.0474 4.82346 20.0474C7.49096 20.0474 9.64696 17.8859 9.64696 15.2239C9.64696 13.5959 8.83846 12.1604 7.60096 11.2859C7.00146 10.8624 6.79796 10.0594 7.12796 9.40486L7.83746 7.98586L9.77346 4.11386C10.0045 3.65186 9.98246 3.10186 9.70746 2.66186C9.43796 2.22186 8.95396 1.95236 8.43696 1.95236L6.94646 1.95236C6.37996 1.95236 5.86296 2.27136 5.61546 2.77736L3.01396 7.98586L0.153955 14.0194C0.0604549 14.4044 -4.43645e-05 14.8059 -4.4401e-05 15.2239Z" fill="#D9D9D9"/>
</svg>
