<svg width="22" height="22" viewBox="0 0 22 22" fill="none" xmlns="http://www.w3.org/2000/svg">
<g clip-path="url(#clip0_136_3041)">
<path d="M9.93852 6.77614C9.93852 4.10864 7.77702 1.95264 5.11502 1.95264C2.44752 1.95264 0.291521 4.11414 0.291521 6.77614C0.291521 8.40414 1.10002 9.83964 2.33752 10.7141C2.93702 11.1376 3.14052 11.9406 2.81052 12.5951L2.10102 14.0141L0.165021 17.8861C-0.0659793 18.3481 -0.0439793 18.8981 0.231021 19.3381C0.500521 19.7781 0.984521 20.0476 1.50152 20.0476H2.99202C3.55852 20.0476 4.07552 19.7286 4.32302 19.2226L6.92452 14.0141L9.78452 7.98064C9.87802 7.59564 9.93852 7.19414 9.93852 6.77614Z" fill="#D9D9D9"/>
<path d="M22 6.77614C22 4.10864 19.8385 1.95264 17.1765 1.95264C14.509 1.95264 12.353 4.11414 12.353 6.77614C12.353 8.40414 13.1615 9.83964 14.399 10.7141C14.9985 11.1376 15.202 11.9406 14.872 12.5951L14.1625 14.0141L12.2265 17.8861C11.9955 18.3481 12.0175 18.8981 12.2925 19.3381C12.562 19.7781 13.046 20.0476 13.563 20.0476H15.0535C15.62 20.0476 16.137 19.7286 16.3845 19.2226L18.986 14.0141L21.846 7.98064C21.9395 7.59564 22 7.19414 22 6.77614Z" fill="#D9D9D9"/>
</g>
<defs>
<clipPath id="clip0_136_3041">
<rect width="22" height="22" fill="white"/>
</clipPath>
</defs>
</svg>
