<svg width="24" height="24" viewBox="0 0 24 24" fill="none" xmlns="http://www.w3.org/2000/svg">
<g id="Earth-icon" clip-path="url(#clip0_1_1411)">
<g id="Group">
<path id="Vector" d="M12 24C18.6274 24 24 18.6274 24 12C24 5.37258 18.6274 0 12 0C5.37258 0 0 5.37258 0 12C0 18.6274 5.37258 24 12 24Z" fill="#F1597D"/>
<g id="Group_2">
<path id="Vector_2" d="M21.222 6.32397C21.216 6.32397 21.216 6.32397 21.222 6.32397C21.216 6.37197 21.204 6.42597 21.186 6.47397C20.892 7.18797 20.892 7.18797 20.874 7.33797C20.856 7.49397 20.832 7.64397 20.826 7.79997C20.826 7.81197 20.904 9.37197 20.916 9.39597C21.006 9.58797 21.066 9.91197 20.994 10.152C21.042 10.152 21.108 10.17 21.15 10.194C21.144 10.278 21.072 12.264 22.308 12.528C22.41 12.756 22.41 12.756 22.788 12.642C22.83 12.684 22.86 12.708 22.878 12.738C22.89 12.522 22.902 12.312 22.902 12.096C22.902 9.97197 22.278 7.99797 21.222 6.32397Z" fill="white"/>
<path id="Vector_3" d="M13.53 1.78791C13.53 1.78791 13.788 1.90191 13.794 1.84791C13.794 1.82391 13.734 1.79391 13.656 1.77591C13.956 1.74591 14.256 1.71591 14.544 1.62591C14.538 1.60191 14.532 1.57191 14.526 1.54791C13.77 1.37391 12.99 1.27191 12.186 1.26591L12.06 1.25391C8.874 1.25391 6.018 2.63391 4.032 4.82391C3.63 5.47791 3.408 6.21591 3.636 7.01991C3.714 6.92991 3.714 6.92991 3.756 6.64791C3.756 6.65391 3.756 6.65991 3.756 6.65991L3.762 6.61791C3.804 6.33591 4.08 5.33391 4.08 5.32791C4.158 5.44191 4.2 5.50191 3.954 5.84391C3.984 5.81991 4.02 5.78391 4.044 5.75991C4.032 5.93391 4.086 6.10191 4.08 6.26991C4.062 6.29991 4.032 6.34191 4.014 6.37191C4.266 6.85791 3.756 7.46391 4.26 7.90791C4.314 7.95591 4.482 8.08191 4.818 8.19591C5.076 8.28591 5.316 8.06391 5.574 8.13591C5.994 8.25591 6.258 8.66391 6.696 8.73591C7.02 9.26991 7.086 9.42591 7.122 9.49791C7.122 9.46191 7.128 9.41991 7.128 9.38991C7.476 9.76191 7.476 9.76191 7.518 9.88191C7.542 9.85191 7.578 9.81591 7.602 9.79191C7.734 9.80991 7.734 9.80991 7.896 9.93591L7.884 9.94791C8.364 9.65391 8.364 9.65391 8.436 9.62391C9.444 10.6079 7.35 11.5199 8.142 12.5939C8.172 12.5759 8.208 12.5579 8.238 12.5399C8.232 12.8039 8.028 13.0379 8.136 13.3199C8.142 13.3379 8.922 15.1199 10.062 15.7739C10.512 16.0319 10.728 16.2479 10.842 16.8419C11.112 18.2459 10.86 19.7399 11.556 21.0719C11.556 21.0059 11.55 20.9159 11.544 20.8499C11.568 20.8739 11.604 20.9039 11.628 20.9219C11.616 20.9459 11.616 20.9459 11.616 20.9459C11.628 21.0419 11.658 21.1319 11.67 21.2219L11.7 21.3839C11.676 21.3359 11.64 21.2699 11.61 21.2279L11.592 21.2819C11.616 21.3119 11.646 21.3539 11.664 21.3839C11.664 21.3959 11.658 21.4139 11.658 21.4259C11.652 21.4619 11.646 21.5039 11.64 21.5399C11.67 21.5519 11.712 21.5759 11.742 21.5879C11.748 21.6119 11.754 21.6419 11.76 21.6599V21.7319L11.784 21.8159L11.718 21.7319C11.736 21.8159 11.772 21.8879 11.79 21.9719L11.796 22.0139L11.802 21.9059C11.88 22.1579 11.88 22.1579 11.904 22.2059L11.898 22.1999H11.892L11.904 22.2239V22.2119L11.922 22.2839C11.928 22.3199 11.928 22.3619 11.934 22.3919C11.94 22.3919 11.952 22.3919 11.958 22.3979C11.97 22.3619 11.988 22.3199 12.006 22.2779C12.006 22.2839 12.006 22.2899 12 22.3019C11.994 22.3139 11.994 22.3199 12 22.3259C12.006 22.3259 12.018 22.3199 12.024 22.3319V22.3379C12 22.3919 11.994 22.4039 12.018 22.4339C12.006 22.4339 11.988 22.3979 11.994 22.3559C11.988 22.3859 11.988 22.3859 11.988 22.4039C11.988 22.4099 11.988 22.4159 11.988 22.4219C11.982 22.4279 11.976 22.4459 11.964 22.4399C11.964 22.4459 11.964 22.4519 11.964 22.4579C11.958 22.4639 11.964 22.4699 11.964 22.4759C11.964 22.4699 11.97 22.4579 11.988 22.4639C11.982 22.4759 11.982 22.4759 11.988 22.4759V22.4819L11.982 22.4759C11.982 22.4759 11.982 22.4759 11.982 22.4879C11.988 22.4879 12 22.5059 12 22.5059C12.006 22.4879 12.006 22.4879 12.006 22.4879C12.006 22.4879 12.006 22.4879 12.006 22.4939C12.006 22.5059 12 22.5179 12 22.5359C12 22.5359 12 22.5359 12 22.5299C12 22.5299 12 22.5359 12.006 22.5359C12.006 22.5299 12.006 22.5239 12.006 22.5179C12.012 22.5239 12.024 22.5299 12.024 22.5359C12.024 22.5299 12.018 22.5299 12.018 22.5239C12.03 22.5179 12.03 22.5119 12.018 22.5059C12.042 22.5179 12.042 22.5059 12.048 22.4999V22.4939C12.066 22.4939 12.084 22.4699 12.084 22.4699C12.084 22.4699 12.084 22.4699 12.084 22.4639C12.078 22.4639 12.066 22.4279 12.054 22.3799C12.048 22.3499 12.048 22.3319 12.054 22.3199C12.066 22.2599 12.036 22.2599 12.03 22.2599C12.024 22.2599 12.024 22.2659 12.018 22.2659C12.03 22.2419 12.042 22.2179 12.06 22.1939C12.036 22.1519 12.036 22.1519 12.036 22.1519C12.06 22.0199 12.06 22.0199 12.192 21.6779C12.006 21.4439 12.264 21.2279 12.222 20.9999C12.246 20.9759 12.282 20.9519 12.306 20.9279C12.264 20.8679 12.216 20.7839 12.192 20.7179C12.27 20.6939 12.366 20.6459 12.426 20.5979C12.414 20.5319 12.402 20.4479 12.396 20.3879C12.612 20.4479 13.08 20.4839 12.786 19.5419C12.81 19.6079 12.858 19.6979 12.9 19.7579C13.5 19.7459 14.154 18.2819 14.154 18.2639C14.196 18.0779 14.262 17.7719 14.922 17.5319C15.09 17.5979 15.222 17.6459 15.582 17.1359C15.636 17.0639 15.696 16.9559 15.744 16.8779C16.002 16.4339 16.092 15.9299 16.29 15.4619C16.518 14.9159 17.172 14.6999 17.334 14.0999C17.322 14.0399 16.89 12.4679 15.756 12.6959C15.744 12.6179 15.738 12.5159 15.744 12.4379C15.516 12.3599 15.354 12.1799 15.144 12.0719C14.952 12.2339 14.754 12.5099 14.748 12.5099C14.91 11.9999 14.91 11.9999 14.898 11.9579C14.856 11.9339 14.802 11.9099 14.766 11.8859C14.76 11.8859 14.76 11.8859 14.754 11.8859H14.742C14.73 11.8559 14.718 11.8079 14.706 11.7779C14.688 11.7899 14.67 11.8019 14.652 11.8139C14.658 11.7659 14.658 11.7059 14.664 11.6639C14.688 11.5799 14.712 11.4599 14.718 11.3759C14.682 11.3759 14.64 11.3699 14.604 11.3699C14.496 10.8359 14.376 10.2299 13.272 10.2719C13.086 10.0799 13.086 10.0799 12.978 10.0199C12.93 9.79791 12.912 9.71391 12.45 9.55191C12.45 9.35991 12.432 9.35391 12.102 9.10791C12.132 9.08391 12.168 9.05391 12.192 9.02991C11.586 8.90991 10.914 9.13791 10.374 8.68191C10.218 8.92791 10.218 8.92791 10.002 8.98191C10.02 8.85591 10.11 8.75991 10.14 8.63391C10.11 8.61591 10.074 8.59191 10.05 8.57391C9.12 9.18591 9.11999 9.18591 8.84399 9.68991C8.72399 9.67791 8.724 9.67791 8.43 9.46791C8.376 9.42591 8.376 9.42591 8.376 9.42591C7.236 9.87591 7.482 8.73591 7.488 8.72391C7.548 8.53191 7.596 8.33391 7.662 8.14191C7.614 8.09991 7.548 8.03991 7.5 7.99791C7.146 7.93191 7.146 7.93191 6.726 8.01591C6.762 7.52391 6.762 7.52391 6.78 7.42191C6.816 7.42191 6.858 7.42791 6.894 7.42791C7.008 7.24191 7.224 6.79791 7.284 6.66591C7.26 6.63591 7.236 6.59991 7.212 6.57591C6.534 6.65391 6.252 8.00991 5.532 7.46991C5.088 7.13991 5.916 5.62791 5.928 5.60991C5.952 5.57391 6.012 5.55591 6.024 5.51991C6.114 5.42391 6.582 4.95591 7.29 5.06991C7.314 5.03991 7.338 5.00391 7.362 4.97391C7.398 5.00391 7.452 5.04591 7.488 5.08191C7.5 5.00991 7.512 4.91391 7.518 4.84791C7.482 4.85391 7.44 4.85391 7.404 4.85991C7.572 4.79991 7.812 4.75791 8.148 4.72191C8.172 4.75191 8.208 4.79391 8.232 4.82391C8.31 4.81791 8.418 4.80591 8.496 4.79391C8.502 4.88991 8.50199 5.02191 8.48999 5.11791C8.51999 5.13591 8.56199 5.15991 8.59199 5.17791C8.56199 5.19591 8.526 5.22591 8.502 5.24991C8.586 5.39391 8.604 5.56191 8.676 5.70591C9.24 5.40591 8.844 4.68591 9.276 4.33191C9.6 4.06191 10.044 4.00791 10.38 3.75591C10.392 3.75591 10.398 3.75591 10.41 3.74991C10.398 3.74991 10.392 3.75591 10.38 3.75591C10.434 3.71391 10.488 3.66591 10.536 3.61191C10.56 3.58791 10.584 3.55191 10.602 3.52791V3.51591C10.584 3.48591 10.56 3.43791 10.542 3.40791C10.686 3.25191 10.686 3.25191 10.758 3.12591C10.77 3.19191 10.74 3.28791 10.698 3.34191C10.884 3.27591 10.884 3.27591 10.962 3.07191C11.244 3.10191 11.436 2.87391 11.688 2.80791C11.688 2.79591 11.682 2.78391 11.682 2.77191C11.616 2.78391 11.526 2.80191 11.46 2.81391C11.676 2.74791 11.904 2.74791 12.12 2.70591C12.144 2.67591 12.144 2.67591 12.138 2.67591C12.138 2.67591 12.138 2.67591 12.132 2.67591C12.132 2.67591 12.132 2.67591 12.126 2.67591C12.126 2.67591 12.126 2.67591 12.12 2.67591C12.114 2.63991 12.102 2.59191 12.096 2.55591C12.276 2.44191 12.414 2.35191 12.84 2.33391C13.218 2.22591 13.218 2.22591 13.338 2.27391C13.086 2.29191 13.05 2.30391 12.906 2.39991C12.996 2.42391 13.206 2.47191 13.902 2.25591C13.908 2.21991 13.914 2.17191 13.92 2.13591C13.554 2.24391 13.554 2.24391 13.308 2.11191C13.314 2.08191 13.32 2.03391 13.326 2.00391C13.26 1.98591 13.17 1.96191 13.098 1.94391C13.182 1.93191 13.29 1.91991 13.374 1.91391" fill="white"/>
</g>
<path id="Vector_4" d="M0.605988 9.90597C0.629988 9.79197 0.653988 9.67796 0.677988 9.56396C0.653988 9.67796 0.623988 9.79197 0.605988 9.90597Z" fill="#565757"/>
<path id="Vector_5" d="M0.713989 9.40799C0.743989 9.28799 0.779989 9.16199 0.809989 9.04199C0.779989 9.16199 0.743989 9.28199 0.713989 9.40799Z" fill="#565757"/>
<path id="Vector_6" d="M0.846008 8.92198C0.882008 8.78998 0.924008 8.65798 0.972008 8.53198C0.924008 8.66398 0.882008 8.78998 0.846008 8.92198Z" fill="#565757"/>
<path id="Vector_7" d="M0.996002 8.45404C1.044 8.31604 1.098 8.17204 1.152 8.04004C1.098 8.17804 1.044 8.31604 0.996002 8.45404Z" fill="#565757"/>
<path id="Vector_8" d="M0.515991 10.4099C0.533991 10.3079 0.551991 10.1999 0.569991 10.0979C0.551991 10.2059 0.533991 10.3079 0.515991 10.4099Z" fill="#565757"/>
<path id="Vector_9" d="M0.455994 10.932C0.467994 10.842 0.479994 10.752 0.485994 10.656C0.473994 10.746 0.461994 10.836 0.455994 10.932Z" fill="#565757"/>
</g>
</g>
<defs>
<clipPath id="clip0_1_1411">
<rect width="24" height="24" fill="white"/>
</clipPath>
</defs>
</svg>
