<svg width="26" height="26" viewBox="0 0 26 26" fill="none" xmlns="http://www.w3.org/2000/svg">
<g id="line-icon">
<g id="Group 2">
<path id="Vector" fill-rule="evenodd" clip-rule="evenodd" d="M5.3213 0H20.6787C23.6054 0 26 2.3946 26 5.3213V20.6787C26 23.6054 23.6054 26 20.6787 26H5.3213C2.3946 26.0001 0 23.6055 0 20.6787V5.3213C0 2.3946 2.3946 0 5.3213 0Z" fill="white"/>
<path id="Vector_2" fill-rule="evenodd" clip-rule="evenodd" d="M13 4.64258C18.1284 4.64258 22.2858 8.02163 22.2858 12.1899C22.2858 13.6459 21.7782 15.0052 20.8995 16.1582C20.856 16.2238 20.7992 16.2963 20.7276 16.3764L20.7221 16.3824C20.422 16.7469 20.084 17.0891 19.7123 17.405C17.1445 19.8141 12.9178 22.6824 12.36 22.2399C11.875 21.8552 13.1587 19.9738 11.6777 19.6607C11.5744 19.6487 11.4714 19.6358 11.3692 19.6211L11.3672 19.6209V19.6208C7.01753 18.9936 3.71436 15.9053 3.71436 12.1899C3.71422 8.02163 7.87165 4.64258 13 4.64258Z" fill="#3ACE01"/>
<path id="Vector_3" fill-rule="evenodd" clip-rule="evenodd" d="M7.02077 13.92H7.05427H7.06422H9.03468C9.32115 13.92 9.55545 13.6986 9.55545 13.4279V13.3868C9.55545 13.1161 9.32115 12.8947 9.03468 12.8947H7.58498V9.77799C7.58498 9.50729 7.35068 9.28589 7.06422 9.28589H7.02077C6.7343 9.28589 6.5 9.50729 6.5 9.77799V13.4278C6.5 13.6986 6.7343 13.92 7.02077 13.92ZM19.5 11.6323V11.5912C19.5 11.3205 19.2656 11.0991 18.9792 11.0991H17.5295V10.3199H18.9792C19.2656 10.3199 19.5 10.0985 19.5 9.82782V9.78677C19.5 9.51607 19.2656 9.29467 18.9792 9.29467H17.0087H16.9987H16.9652C16.6788 9.29467 16.4445 9.51607 16.4445 9.78677V13.4366C16.4445 13.7073 16.6788 13.9287 16.9652 13.9287H16.9987H17.0087H18.9792C19.2656 13.9287 19.5 13.7073 19.5 13.4366V13.3955C19.5 13.1248 19.2656 12.9034 18.9792 12.9034H17.5295V12.1242H18.9792C19.2656 12.1244 19.5 11.9029 19.5 11.6323ZM15.627 13.7733L15.6272 13.7731C15.7201 13.6841 15.7777 13.5621 15.7777 13.4279V9.77812C15.7777 9.50743 15.5434 9.28603 15.2569 9.28603H15.2135C14.927 9.28603 14.6927 9.50743 14.6927 9.77812V11.9206L12.8103 9.53487C12.7204 9.38651 12.5511 9.28603 12.3582 9.28603H12.3147C12.0282 9.28603 11.7939 9.50743 11.7939 9.77812V13.4279C11.7939 13.6986 12.0282 13.9201 12.3147 13.9201H12.3582C12.6446 13.9201 12.8789 13.6986 12.8789 13.4279V11.2454L14.7748 13.6923C14.7865 13.7095 14.7992 13.7259 14.813 13.7416L14.8131 13.7417C14.8652 13.8089 14.9364 13.8549 15.0158 13.883C15.0768 13.9068 15.1436 13.92 15.2134 13.92H15.2568C15.3446 13.92 15.4274 13.8992 15.5001 13.8626C15.5522 13.8391 15.5961 13.8089 15.627 13.7733ZM10.4966 13.92H10.54C10.8265 13.92 11.0608 13.6986 11.0608 13.4279V9.77805C11.0608 9.50736 10.8265 9.28596 10.54 9.28596H10.4966C10.2101 9.28596 9.97571 9.50736 9.97571 9.77805V13.4279C9.97571 13.6986 10.2101 13.92 10.4966 13.92Z" fill="white"/>
</g>
</g>
</svg>
