<svg width="20" height="20" viewBox="0 0 20 20" fill="none" xmlns="http://www.w3.org/2000/svg">
<g id="line-icon">
<g id="Group 2">
<path id="Vector" fill-rule="evenodd" clip-rule="evenodd" d="M4.09331 0H15.9067C18.158 0 20 1.842 20 4.09331V15.9067C20 18.158 18.158 20 15.9067 20H4.09331C1.842 20.0001 0 18.1581 0 15.9067V4.09331C0 1.842 1.842 0 4.09331 0Z" fill="#3ACE01"/>
<path id="Vector_2" fill-rule="evenodd" clip-rule="evenodd" d="M10 3.57153C13.9449 3.57153 17.1429 6.1708 17.1429 9.37717C17.1429 10.4971 16.7524 11.5428 16.0765 12.4297C16.0431 12.4802 15.9994 12.5359 15.9443 12.5975L15.9401 12.6022C15.7092 12.8826 15.4492 13.1458 15.1633 13.3888C13.188 15.242 9.93677 17.4483 9.50766 17.1079C9.13463 16.812 10.1221 15.3648 8.98284 15.1239C8.90337 15.1147 8.82411 15.1047 8.74551 15.0935L8.74401 15.0933V15.0932C5.39808 14.6108 2.85718 12.2352 2.85718 9.37717C2.85707 6.1708 6.05509 3.57153 10 3.57153Z" fill="white"/>
<path id="Vector_3" fill-rule="evenodd" clip-rule="evenodd" d="M5.40059 10.7075H5.42636H5.43401H6.94975C7.17011 10.7075 7.35035 10.5372 7.35035 10.329V10.2974C7.35035 10.0892 7.17011 9.91884 6.94975 9.91884H5.8346V7.52136C5.8346 7.31313 5.65437 7.14282 5.43401 7.14282H5.40059C5.18023 7.14282 5 7.31313 5 7.52136V10.3289C5 10.5372 5.18023 10.7075 5.40059 10.7075ZM15 8.94773V8.91615C15 8.70792 14.8197 8.53761 14.5994 8.53761H13.4843V7.93823H14.5994C14.8197 7.93823 15 7.76792 15 7.55969V7.52811C15 7.31989 14.8197 7.14958 14.5994 7.14958H13.0836H13.076H13.0502C12.8298 7.14958 12.6496 7.31989 12.6496 7.52811V10.3357C12.6496 10.5439 12.8298 10.7143 13.0502 10.7143H13.076H13.0836H14.5994C14.8197 10.7143 15 10.5439 15 10.3357V10.3041C15 10.0959 14.8197 9.92555 14.5994 9.92555H13.4843V9.32616H14.5994C14.8197 9.32627 15 9.1559 15 8.94773ZM12.0208 10.5947L12.0209 10.5945C12.0924 10.526 12.1367 10.4322 12.1367 10.329V7.52146C12.1367 7.31324 11.9565 7.14293 11.7361 7.14293H11.7027C11.4823 7.14293 11.3021 7.31324 11.3021 7.52146V9.16952L9.8541 7.33434C9.78493 7.22023 9.65469 7.14293 9.50627 7.14293H9.47285C9.25249 7.14293 9.0722 7.31324 9.0722 7.52146V10.329C9.0722 10.5372 9.25244 10.7076 9.47285 10.7076H9.50627C9.72663 10.7076 9.90686 10.5372 9.90686 10.329V8.65011L11.3652 10.5324C11.3742 10.5456 11.384 10.5582 11.3946 10.5703L11.3947 10.5704C11.4347 10.622 11.4896 10.6574 11.5506 10.6791C11.5976 10.6974 11.6489 10.7075 11.7026 10.7075H11.736C11.8035 10.7075 11.8672 10.6915 11.9232 10.6633C11.9632 10.6453 11.997 10.6221 12.0208 10.5947ZM8.07427 10.7075H8.10769C8.32805 10.7075 8.50828 10.5372 8.50828 10.329V7.52141C8.50828 7.31318 8.32805 7.14288 8.10769 7.14288H8.07427C7.85391 7.14288 7.67362 7.31318 7.67362 7.52141V10.329C7.67362 10.5372 7.85391 10.7075 8.07427 10.7075Z" fill="#3ACE01"/>
</g>
</g>
</svg>
