<svg width="28" height="36" viewBox="0 0 28 36" fill="none" xmlns="http://www.w3.org/2000/svg">
<g id="pencil-graphic 1" clip-path="url(#clip0_203_1063)">
<g id="Group">
<path id="Vector" d="M2.48936 22.1701L0.859064 29.6659C0.819617 29.8447 0.975667 30.0035 1.15267 29.9658L8.42324 28.4188C8.61564 28.3789 8.69038 28.1394 8.55336 27.9963L2.91505 22.0481C2.77659 21.9025 2.53162 21.973 2.48936 22.1701ZM2.55852 26.4539L3.04983 24.1944C3.0921 23.9973 3.33706 23.9268 3.47552 24.0724L6.62648 27.3971C6.76153 27.5396 6.68732 27.7771 6.49636 27.8196L4.30718 28.286C4.22216 28.3036 4.13452 28.2759 4.07525 28.2132L2.62217 26.6815C2.56435 26.6213 2.54066 26.5363 2.55852 26.4539Z" fill="white"/>
</g>
<path id="Vector_2" d="M25.324 6.81963L24.6929 6.15487C23.1684 4.55084 20.6361 4.49987 19.0388 6.03748L18.0088 7.02722L24.1614 13.5005L25.19 12.5082C26.7872 10.9706 26.8485 8.42366 25.324 6.81963Z" fill="white"/>
<path id="Vector_3" d="M16.4894 8.48776L2.66553 21.7891C2.46638 21.9804 2.46007 22.2957 2.64757 22.4948L8.09672 28.2265C8.28619 28.4262 8.59959 28.4315 8.7982 28.2422L22.6241 14.9413C22.8232 14.75 22.8295 14.4348 22.642 14.2356L17.1914 8.50143C17.0014 8.30374 16.6886 8.29649 16.4894 8.48776ZM4.67266 22.9247C4.47424 22.7269 4.4807 22.4031 4.68486 22.209L16.6545 10.8444C16.8501 10.6585 17.1551 10.6636 17.3452 10.8529C17.5436 11.0507 17.5372 11.3744 17.333 11.5686L5.36338 22.9332C5.1678 23.1191 4.86282 23.1139 4.67266 22.9247Z" fill="white"/>
</g>
<defs>
<clipPath id="clip0_203_1063">
<rect width="20" height="30" fill="white" transform="translate(8.22266 0.922852) rotate(15)"/>
</clipPath>
</defs>
</svg>
