<svg xmlns="http://www.w3.org/2000/svg" width="29" height="28" viewBox="0 0 29 28" fill="none">
  <path d="M12.9513 19.6525C14.4314 19.6525 15.8185 19.2057 16.9728 18.4423L21.0502 22.529C21.3201 22.7897 21.6646 22.92 22.0369 22.92C22.8096 22.92 23.3774 22.3149 23.3774 21.5516C23.3774 21.1978 23.2564 20.8534 22.9958 20.5927L18.9463 16.5247C19.7841 15.3331 20.2775 13.8902 20.2775 12.3263C20.2775 8.29542 16.9821 5 12.9513 5C8.92973 5 5.625 8.29542 5.625 12.3263C5.625 16.3571 8.92042 19.6525 12.9513 19.6525ZM12.9513 17.6976C10.0003 17.6976 7.57991 15.2772 7.57991 12.3263C7.57991 9.37527 10.0003 6.95491 12.9513 6.95491C15.9022 6.95491 18.3226 9.37527 18.3226 12.3263C18.3226 15.2772 15.9022 17.6976 12.9513 17.6976Z" fill="currentColor"/>
</svg>