<svg width="24" height="24" viewBox="0 0 24 24" fill="none" xmlns="http://www.w3.org/2000/svg">
<g clip-path="url(#clip0_136_3308)">
<path d="M19.5961 5.73204C16.101 9.71651 13.5146 12.8854 12.2097 14.5398L8.71458 10.5087H5.52235L5.33594 10.6718L10.7185 16.8932C11.0913 17.3359 11.6505 17.5922 12.233 17.5689C12.2563 17.5689 12.2563 17.5689 12.2796 17.5689C12.8855 17.5456 13.4214 17.2893 13.7942 16.8C14.9126 15.3786 17.9884 11.534 22.3689 6.59418L23.1612 5.70874H19.5961V5.73204Z" fill="#F891A9"/>
<path d="M23.1379 7.50291C22.6252 8.08544 22.1359 8.64466 21.6466 9.20388C21.9029 10.0893 22.0427 11.0447 22.0427 12.0233C22.0427 17.5689 17.5456 22.066 12 22.066C6.45437 22.066 1.95728 17.5689 1.95728 12.0233C1.95728 6.47767 6.47767 1.95728 12 1.95728C14.5864 1.95728 16.9631 2.95922 18.734 4.56699H19.0602H21.4136C19.2233 1.79417 15.8214 0 12 0C5.38252 0 0 5.38252 0 12C0 18.6175 5.38252 24 12 24C18.6175 24 24 18.6175 24 12C24 10.4155 23.6971 8.90097 23.1379 7.50291Z" fill="#F891A9"/>
</g>
<defs>
<clipPath id="clip0_136_3308">
<rect width="24" height="24" fill="white"/>
</clipPath>
</defs>
</svg>
