<svg width="132" height="132" viewBox="0 0 132 132" fill="none" xmlns="http://www.w3.org/2000/svg">
<g id="graphic-03" clip-path="url(#clip0_1_1085)">
<g id="Group">
<g id="Group_2">
<path id="Vector" d="M66 132C102.451 132 132 102.451 132 66C132 29.5492 102.451 0 66 0C29.5492 0 0 29.5492 0 66C0 102.451 29.5492 132 66 132Z" fill="#D4AAED"/>
</g>
<g id="Group_3">
<g id="Group_4">
<g id="Group_5">
<path id="Vector_2" d="M65.9803 119.214C38.9942 119.214 16.0961 99.0542 12.7271 72.3193C12.6927 72.0484 12.8848 71.8021 13.1557 71.7677C13.4265 71.7381 13.6728 71.9253 13.7073 72.1962C17.0171 98.4385 39.4916 118.229 65.9852 118.229C92.3113 118.229 114.766 98.5765 118.219 72.5212C118.253 72.2503 118.5 72.0582 118.77 72.0977C119.041 72.1321 119.228 72.3833 119.194 72.6493C115.677 99.1971 92.7989 119.214 65.9803 119.214Z" fill="white"/>
<path id="Vector_3" d="M13.2147 60.2324C13.195 60.2324 13.1753 60.2324 13.1507 60.2275C12.8798 60.193 12.6877 59.9468 12.7221 59.6759C16.096 32.9409 38.9892 12.7814 65.9753 12.7814C92.7939 12.7814 115.672 32.7981 119.184 59.3458C119.219 59.6167 119.031 59.863 118.76 59.8975C118.49 59.932 118.243 59.7448 118.209 59.4739C114.761 33.4138 92.3014 13.7664 65.9753 13.7664C39.4817 13.7664 17.0072 33.5566 13.6974 59.799C13.6727 60.0502 13.4609 60.2324 13.2147 60.2324Z" fill="white"/>
</g>
<g id="Group_6">
<path id="Vector_4" d="M69.2754 110.688C69.0192 110.688 68.8025 110.491 68.7828 110.23C68.7631 109.959 68.9651 109.723 69.236 109.703C80.3673 108.89 90.7056 103.935 98.3498 95.7542C106.033 87.5288 110.264 76.7964 110.264 65.537C110.264 42.2942 92.1192 22.8882 68.9552 21.3515C68.6843 21.3318 68.4774 21.1003 68.4971 20.8294C68.5168 20.5585 68.7533 20.3517 69.0192 20.3714C92.6955 21.9425 111.244 41.782 111.244 65.542C111.244 77.0526 106.92 88.0213 99.0689 96.4339C91.2573 104.802 80.6874 109.865 69.3098 110.693C69.3 110.688 69.2852 110.688 69.2754 110.688Z" fill="white"/>
<path id="Vector_5" d="M62.6458 110.683C62.636 110.683 62.6212 110.683 62.6113 110.683C51.2386 109.846 40.6786 104.777 32.8769 96.4142C25.0357 88.0066 20.7112 77.0427 20.7112 65.537C20.7112 41.4421 39.5409 21.583 63.5816 20.332C63.8525 20.3172 64.084 20.529 64.0988 20.7999C64.1136 21.0708 63.9018 21.3023 63.6309 21.317C40.1172 22.5435 21.6963 41.9691 21.6963 65.537C21.6963 76.7915 25.9222 87.519 33.596 95.7394C41.2303 103.92 51.5588 108.88 62.6852 109.698C62.9561 109.718 63.158 109.954 63.1383 110.225C63.1186 110.486 62.9019 110.683 62.6458 110.683Z" fill="white"/>
</g>
<path id="Vector_6" d="M13.2049 68.4627C12.4858 68.4627 11.8061 68.1819 11.2889 67.6697C10.7718 67.1525 10.4861 66.4679 10.4861 65.734C10.4861 64.2318 11.7125 63.0054 13.2147 63.0054C14.717 63.0054 15.9434 64.2318 15.9434 65.734C15.9434 67.2363 14.717 68.4627 13.2147 68.4627C13.2098 68.4627 13.2098 68.4627 13.2049 68.4627ZM13.2147 63.9904C12.2543 63.9904 11.4712 64.7736 11.4712 65.734C11.4712 66.2019 11.6534 66.6403 11.9834 66.9752C12.3134 67.3052 12.7419 67.4678 13.2098 67.4776C14.1752 67.4776 14.9534 66.6945 14.9534 65.734C14.9534 64.7736 14.1752 63.9904 13.2147 63.9904Z" fill="white"/>
<path id="Vector_7" d="M119.041 68.2411C117.677 68.2411 116.569 67.1329 116.569 65.7686C116.569 64.4042 117.677 63.296 119.041 63.296C120.406 63.296 121.514 64.4042 121.514 65.7686C121.514 67.1329 120.406 68.2411 119.041 68.2411ZM119.041 64.2811C118.219 64.2811 117.554 64.946 117.554 65.7686C117.554 66.5911 118.224 67.256 119.041 67.256C119.859 67.256 120.529 66.5911 120.529 65.7686C120.529 64.946 119.864 64.2811 119.041 64.2811Z" fill="white"/>
</g>
</g>
<g id="Group_7">
<g id="Group_8">
<g id="Group_9">
<g id="Group_10">
<path id="Vector_8" d="M85.7951 87.5485H46.2049C44.0968 87.5485 42.3828 85.8345 42.3828 83.7265V50.0123C42.3828 47.9042 44.0968 46.1902 46.2049 46.1902H85.7901C87.8982 46.1902 89.6122 47.9042 89.6122 50.0123V83.7314C89.6122 85.8345 87.8982 87.5485 85.7951 87.5485ZM46.2049 47.9584C45.0721 47.9584 44.1461 48.8794 44.1461 50.0172V83.7314C44.1461 84.8642 45.0671 85.7902 46.2049 85.7902H85.7901C86.923 85.7902 87.8489 84.8691 87.8489 83.7314V50.0172C87.8489 48.8844 86.9279 47.9584 85.7901 47.9584H46.2049Z" fill="white"/>
<path id="Vector_9" d="M85.795 88.1396H46.2049C43.7717 88.1396 41.7917 86.1596 41.7917 83.7264V50.0123C41.7917 47.5791 43.7717 45.5991 46.2049 45.5991H85.7901C88.2232 45.5991 90.2032 47.5791 90.2032 50.0123V83.7314C90.2032 86.1596 88.2232 88.1396 85.795 88.1396ZM46.2049 46.7812C44.4219 46.7812 42.9738 48.2293 42.9738 50.0123V83.7264C42.9738 85.5094 44.4219 86.9575 46.2049 86.9575H85.795C87.5731 86.9575 89.0212 85.5094 89.0212 83.7314V50.0123C89.0212 48.2293 87.5731 46.7812 85.7901 46.7812H46.2049ZM85.7901 86.3812H46.2049C44.742 86.3812 43.555 85.1942 43.555 83.7314V50.0172C43.555 48.5543 44.742 47.3673 46.2049 47.3673H85.7901C87.2529 47.3673 88.44 48.5543 88.44 50.0172V83.7314C88.44 85.1942 87.2529 86.3812 85.7901 86.3812ZM46.2049 48.5494C45.3971 48.5494 44.7371 49.2094 44.7371 50.0172V83.7314C44.7371 84.5391 45.3971 85.1991 46.2049 85.1991H85.7901C86.5979 85.1991 87.2579 84.5391 87.2579 83.7314V50.0172C87.2579 49.2094 86.5979 48.5494 85.7901 48.5494H46.2049Z" fill="white"/>
</g>
</g>
</g>
<g id="Group_11">
<g id="Group_12">
<g id="Group_13">
<path id="Vector_10" d="M52.2631 52.0563C51.4258 52.0563 50.7461 51.3766 50.7461 50.5392V43.496C50.7461 42.6586 51.4258 41.9789 52.2631 41.9789H53.3812C54.2185 41.9789 54.8982 42.6586 54.8982 43.496V50.5392C54.8982 51.3766 54.2185 52.0563 53.3812 52.0563H52.2631Z" fill="#D4AAED"/>
<path id="Vector_11" d="M53.3811 42.5749C53.8885 42.5749 54.3071 42.9886 54.3071 43.5009V50.5442C54.3071 51.0515 53.8934 51.4701 53.3811 51.4701H52.2631C51.7558 51.4701 51.3371 51.0564 51.3371 50.5442V43.5009C51.3371 42.9936 51.7508 42.5749 52.2631 42.5749H53.3811ZM53.3811 41.3928H52.2631C51.1056 41.3928 50.155 42.3385 50.155 43.5009V50.5442C50.155 51.7016 51.1007 52.6522 52.2631 52.6522H53.3811C54.5386 52.6522 55.4892 51.7066 55.4892 50.5442V43.5009C55.4843 42.3385 54.5386 41.3928 53.3811 41.3928Z" fill="white"/>
</g>
<g id="Group_14">
<path id="Vector_12" d="M52.9724 53.529H52.6719C50.8003 53.529 49.2734 52.007 49.2734 50.1305V43.9048C49.2734 42.0332 50.7954 40.5063 52.6719 40.5063H52.9724C54.844 40.5063 56.3709 42.0282 56.3709 43.9048V50.1305C56.366 52.0021 54.844 53.529 52.9724 53.529ZM52.6719 42.2745C51.7706 42.2745 51.0416 43.0084 51.0416 43.9048V50.1305C51.0416 51.0318 51.7755 51.7608 52.6719 51.7608H52.9724C53.8737 51.7608 54.6027 51.0269 54.6027 50.1305V43.9048C54.6027 43.0035 53.8688 42.2745 52.9724 42.2745H52.6719Z" fill="white"/>
<path id="Vector_13" d="M52.9724 54.12H52.6719C50.4703 54.12 48.6824 52.3321 48.6824 50.1304V43.9048C48.6824 41.7031 50.4703 39.9152 52.6719 39.9152H52.9724C55.174 39.9152 56.9619 41.7031 56.9619 43.9048V50.1304C56.957 52.3321 55.1642 54.12 52.9724 54.12ZM52.6719 41.0973C51.1254 41.0973 49.8645 42.3582 49.8645 43.9048V50.1304C49.8645 51.677 51.1254 52.9379 52.6719 52.9379H52.9724C54.514 52.9379 55.7749 51.677 55.7798 50.1304V43.9048C55.7798 42.3582 54.5189 41.0973 52.9724 41.0973H52.6719ZM52.9724 52.3518H52.6719C51.4455 52.3518 50.4506 51.3569 50.4506 50.1304V43.9048C50.4506 42.6784 51.4455 41.6834 52.6719 41.6834H52.9724C54.1988 41.6834 55.1937 42.6784 55.1937 43.9048V50.1304C55.1937 51.3569 54.1988 52.3518 52.9724 52.3518ZM52.6719 42.8655C52.1006 42.8655 51.6327 43.3334 51.6327 43.9048V50.1304C51.6327 50.7018 52.1006 51.1697 52.6719 51.1697H52.9724C53.5437 51.1697 54.0116 50.7018 54.0116 50.1304V43.9048C54.0116 43.3334 53.5437 42.8655 52.9724 42.8655H52.6719Z" fill="white"/>
</g>
</g>
<g id="Group_15">
<g id="Group_16">
<path id="Vector_14" d="M65.4434 52.0563C64.6061 52.0563 63.9264 51.3766 63.9264 50.5392V43.496C63.9264 42.6586 64.6061 41.9789 65.4434 41.9789H66.5615C67.3988 41.9789 68.0785 42.6586 68.0785 43.496V50.5392C68.0785 51.3766 67.3988 52.0563 66.5615 52.0563H65.4434Z" fill="#D4AAED"/>
<path id="Vector_15" d="M66.5566 42.5749C67.0639 42.5749 67.4825 42.9886 67.4825 43.5009V50.5442C67.4825 51.0515 67.0688 51.4701 66.5566 51.4701H65.4385C64.9312 51.4701 64.5125 51.0564 64.5125 50.5442V43.5009C64.5125 42.9936 64.9263 42.5749 65.4385 42.5749H66.5566ZM66.5566 41.3928H65.4385C64.281 41.3928 63.3304 42.3385 63.3304 43.5009V50.5442C63.3304 51.7016 64.2761 52.6522 65.4385 52.6522H66.5566C67.714 52.6522 68.6646 51.7066 68.6646 50.5442V43.5009C68.6646 42.3385 67.719 41.3928 66.5566 41.3928Z" fill="white"/>
</g>
<g id="Group_17">
<path id="Vector_16" d="M66.1527 53.529H65.8522C63.9806 53.529 62.4537 52.007 62.4537 50.1305V43.9048C62.4537 42.0332 63.9757 40.5063 65.8522 40.5063H66.1527C68.0243 40.5063 69.5512 42.0282 69.5512 43.9048V50.1305C69.5463 52.0021 68.0243 53.529 66.1527 53.529ZM65.8473 42.2745C64.946 42.2745 64.217 43.0084 64.217 43.9048V50.1305C64.217 51.0318 64.9509 51.7608 65.8473 51.7608H66.1478C67.0491 51.7608 67.7781 51.0269 67.7781 50.1305V43.9048C67.7781 43.0035 67.0442 42.2745 66.1478 42.2745H65.8473Z" fill="white"/>
<path id="Vector_17" d="M66.1527 54.12H65.8522C63.6506 54.12 61.8627 52.3321 61.8627 50.1304V43.9048C61.8627 41.7031 63.6506 39.9152 65.8522 39.9152H66.1527C68.3543 39.9152 70.1422 41.7031 70.1422 43.9048V50.1304C70.1373 52.3321 68.3445 54.12 66.1527 54.12ZM65.8522 41.0973C64.3057 41.0973 63.0448 42.3582 63.0448 43.9048V50.1304C63.0448 51.677 64.3057 52.9379 65.8522 52.9379H66.1527C67.6943 52.9379 68.9552 51.677 68.9601 50.1304V43.9048C68.9601 42.3582 67.6992 41.0973 66.1527 41.0973H65.8522ZM66.1477 52.3518H65.8473C64.6209 52.3518 63.626 51.3569 63.626 50.1304V43.9048C63.626 42.6784 64.6209 41.6834 65.8473 41.6834H66.1477C67.3742 41.6834 68.3691 42.6784 68.3691 43.9048V50.1304C68.3691 51.3569 67.3742 52.3518 66.1477 52.3518ZM65.8473 42.8655C65.276 42.8655 64.808 43.3334 64.808 43.9048V50.1304C64.808 50.7018 65.276 51.1697 65.8473 51.1697H66.1477C66.7191 51.1697 67.187 50.7018 67.187 50.1304V43.9048C67.187 43.3334 66.7191 42.8655 66.1477 42.8655H65.8473Z" fill="white"/>
</g>
</g>
<g id="Group_18">
<g id="Group_19">
<path id="Vector_18" d="M78.6188 52.0563C77.7815 52.0563 77.1018 51.3766 77.1018 50.5392V43.496C77.1018 42.6586 77.7815 41.9789 78.6188 41.9789H79.7369C80.5742 41.9789 81.2539 42.6586 81.2539 43.496V50.5392C81.2539 51.3766 80.5742 52.0563 79.7369 52.0563H78.6188Z" fill="#D4AAED"/>
<path id="Vector_19" d="M79.7369 42.5749C80.2442 42.5749 80.6628 42.9886 80.6628 43.5009V50.5442C80.6628 51.0515 80.2491 51.4701 79.7369 51.4701H78.6188C78.1115 51.4701 77.6928 51.0564 77.6928 50.5442V43.5009C77.6928 42.9936 78.1066 42.5749 78.6188 42.5749H79.7369ZM79.7369 41.3928H78.6188C77.4613 41.3928 76.5107 42.3385 76.5107 43.5009V50.5442C76.5107 51.7016 77.4564 52.6522 78.6188 52.6522H79.7369C80.8943 52.6522 81.8449 51.7066 81.8449 50.5442V43.5009C81.8449 42.3385 80.8943 41.3928 79.7369 41.3928Z" fill="white"/>
</g>
<g id="Group_20">
<path id="Vector_20" d="M79.3281 53.529H79.0276C77.156 53.529 75.634 52.007 75.634 50.1305V43.9048C75.634 42.0332 77.156 40.5063 79.0276 40.5063H79.3281C81.1997 40.5063 82.7216 42.0282 82.7216 43.9048V50.1305C82.7266 52.0021 81.2046 53.529 79.3281 53.529ZM79.0276 42.2745C78.1263 42.2745 77.3973 43.0084 77.3973 43.9048V50.1305C77.3973 51.0318 78.1312 51.7608 79.0276 51.7608H79.3281C80.2294 51.7608 80.9584 51.0269 80.9584 50.1305V43.9048C80.9584 43.0035 80.2245 42.2745 79.3281 42.2745H79.0276Z" fill="white"/>
<path id="Vector_21" d="M79.328 54.12H79.0276C76.8309 54.12 75.043 52.3321 75.043 50.1304V43.9048C75.043 41.7031 76.8309 39.9152 79.0276 39.9152H79.328C81.5248 39.9152 83.3127 41.7031 83.3127 43.9048V50.1304C83.3127 51.1943 82.9039 52.1942 82.1503 52.9478C81.3967 53.7063 80.3919 54.12 79.328 54.12ZM79.0276 41.0973C77.481 41.0973 76.2251 42.3582 76.2251 43.9048V50.1304C76.2251 51.677 77.481 52.9379 79.0276 52.9379H79.328C80.0767 52.9379 80.781 52.6473 81.313 52.1154C81.8449 51.5834 82.1355 50.8791 82.1306 50.1354V43.9048C82.1306 42.3582 80.8746 41.0973 79.328 41.0973H79.0276ZM79.328 52.3518H79.0276C77.8012 52.3518 76.8063 51.3569 76.8063 50.1304V43.9048C76.8063 42.6784 77.8012 41.6834 79.0276 41.6834H79.328C80.5545 41.6834 81.5494 42.6784 81.5494 43.9048V50.1304C81.5494 51.3569 80.5545 52.3518 79.328 52.3518ZM79.0276 42.8655C78.4563 42.8655 77.9883 43.3334 77.9883 43.9048V50.1304C77.9883 50.7018 78.4563 51.1697 79.0276 51.1697H79.328C79.8994 51.1697 80.3673 50.7018 80.3673 50.1304V43.9048C80.3673 43.3334 79.8994 42.8655 79.328 42.8655H79.0276Z" fill="white"/>
</g>
</g>
</g>
<g id="Group_21">
<g id="Group_22">
<g id="Group_23">
<path id="Vector_22" d="M81.7711 59.4295H50.224C49.7364 59.4295 49.3424 59.0355 49.3424 58.5479C49.3424 58.0603 49.7364 57.6663 50.224 57.6663H81.7711C82.2587 57.6663 82.6527 58.0603 82.6527 58.5479C82.6527 59.0306 82.2587 59.4295 81.7711 59.4295Z" fill="white"/>
<path id="Vector_23" d="M81.771 60.0206H50.224C49.4113 60.0206 48.7513 59.3606 48.7513 58.5479C48.7513 57.7352 49.4113 57.0752 50.224 57.0752H81.771C82.5837 57.0752 83.2437 57.7352 83.2437 58.5479C83.2437 59.3606 82.5837 60.0206 81.771 60.0206ZM50.224 58.2573C50.0615 58.2573 49.9334 58.3853 49.9334 58.5479C49.9334 58.7104 50.0615 58.8385 50.224 58.8385H81.771C81.9287 58.8385 82.0616 58.7055 82.0616 58.5479C82.0616 58.3853 81.9336 58.2573 81.771 58.2573H50.224Z" fill="white"/>
</g>
</g>
<g id="Group_24">
<g id="Group_25">
<path id="Vector_24" d="M81.7711 70.1915H50.224C49.7364 70.1915 49.3424 69.7975 49.3424 69.3099C49.3424 68.8223 49.7364 68.4282 50.224 68.4282H81.7711C82.2587 68.4282 82.6527 68.8223 82.6527 69.3099C82.6527 69.7926 82.2587 70.1915 81.7711 70.1915Z" fill="white"/>
<path id="Vector_25" d="M81.771 70.7825H50.224C49.4113 70.7825 48.7513 70.1225 48.7513 69.3098C48.7513 68.4972 49.4113 67.8372 50.224 67.8372H81.771C82.5837 67.8372 83.2437 68.4972 83.2437 69.3098C83.2437 70.1225 82.5837 70.7825 81.771 70.7825ZM50.224 69.0193C50.0615 69.0193 49.9334 69.1473 49.9334 69.3098C49.9334 69.4724 50.0615 69.6004 50.224 69.6004H81.771C81.9336 69.6004 82.0616 69.4724 82.0616 69.3098C82.0616 69.1473 81.9336 69.0193 81.771 69.0193H50.224Z" fill="white"/>
</g>
</g>
<g id="Group_26">
<g id="Group_27">
<path id="Vector_26" d="M81.7711 80.9485H50.224C49.7364 80.9485 49.3424 80.5545 49.3424 80.0669C49.3424 79.5793 49.7364 79.1852 50.224 79.1852H81.7711C82.2587 79.1852 82.6527 79.5793 82.6527 80.0669C82.6527 80.5545 82.2587 80.9485 81.7711 80.9485Z" fill="white"/>
<path id="Vector_27" d="M81.771 81.5395H50.224C49.4113 81.5395 48.7513 80.8795 48.7513 80.0669C48.7513 79.2542 49.4113 78.5942 50.224 78.5942H81.771C82.5837 78.5942 83.2437 79.2542 83.2437 80.0669C83.2437 80.8795 82.5837 81.5395 81.771 81.5395ZM50.224 79.7763C50.0615 79.7763 49.9334 79.9043 49.9334 80.0669C49.9334 80.2294 50.0615 80.3575 50.224 80.3575H81.771C81.9336 80.3575 82.0616 80.2294 82.0616 80.0669C82.0616 79.9043 81.9336 79.7763 81.771 79.7763H50.224Z" fill="white"/>
</g>
</g>
<g id="Group_28">
<g id="Group_29">
<path id="Vector_28" d="M74.0874 80.6924C73.5998 80.6924 73.2058 80.2984 73.2058 79.8108V58.9469C73.2058 58.4593 73.5998 58.0652 74.0874 58.0652C74.5751 58.0652 74.9691 58.4593 74.9691 58.9469V79.8108C74.9691 80.2984 74.5751 80.6924 74.0874 80.6924Z" fill="white"/>
<path id="Vector_29" d="M74.0874 81.2834C73.2747 81.2834 72.6147 80.6234 72.6147 79.8107V58.9469C72.6147 58.1342 73.2747 57.4742 74.0874 57.4742C74.9001 57.4742 75.5601 58.1342 75.5601 58.9469V79.8107C75.5601 80.6234 74.9001 81.2834 74.0874 81.2834ZM74.0874 58.6563C73.9249 58.6563 73.7968 58.7843 73.7968 58.9469V79.8107C73.7968 79.9733 73.9249 80.1013 74.0874 80.1013C74.25 80.1013 74.378 79.9733 74.378 79.8107V58.9469C74.378 58.7843 74.25 58.6563 74.0874 58.6563Z" fill="white"/>
</g>
</g>
<g id="Group_30">
<g id="Group_31">
<path id="Vector_30" d="M81.7711 80.6924C81.2834 80.6924 80.8894 80.2984 80.8894 79.8108V58.9469C80.8894 58.4593 81.2834 58.0652 81.7711 58.0652C82.2587 58.0652 82.6527 58.4593 82.6527 58.9469V79.8108C82.6527 80.2984 82.2587 80.6924 81.7711 80.6924Z" fill="white"/>
<path id="Vector_31" d="M81.771 81.2834C80.9583 81.2834 80.2983 80.6234 80.2983 79.8107V58.9469C80.2983 58.1342 80.9583 57.4742 81.771 57.4742C82.5837 57.4742 83.2437 58.1342 83.2437 58.9469V79.8107C83.2437 80.6234 82.5837 81.2834 81.771 81.2834ZM81.771 58.6563C81.6085 58.6563 81.4804 58.7843 81.4804 58.9469V79.8107C81.4804 79.9733 81.6085 80.1013 81.771 80.1013C81.9336 80.1013 82.0616 79.9733 82.0616 79.8107V58.9469C82.0616 58.7843 81.9286 58.6563 81.771 58.6563Z" fill="white"/>
</g>
</g>
<g id="Group_32">
<g id="Group_33">
<path id="Vector_32" d="M50.2289 80.6924C49.7413 80.6924 49.3473 80.2984 49.3473 79.8108V58.9469C49.3473 58.4593 49.7413 58.0652 50.2289 58.0652C50.7165 58.0652 51.1106 58.4593 51.1106 58.9469V79.8108C51.1106 80.2984 50.7165 80.6924 50.2289 80.6924Z" fill="white"/>
<path id="Vector_33" d="M50.229 81.2834C49.4164 81.2834 48.7563 80.6234 48.7563 79.8107V58.9469C48.7563 58.1342 49.4164 57.4742 50.229 57.4742C51.0417 57.4742 51.7017 58.1342 51.7017 58.9469V79.8107C51.7017 80.6234 51.0417 81.2834 50.229 81.2834ZM50.229 58.6563C50.0665 58.6563 49.9384 58.7843 49.9384 58.9469V79.8107C49.9384 79.9733 50.0665 80.1013 50.229 80.1013C50.3916 80.1013 50.5196 79.9733 50.5196 79.8107V58.9469C50.5196 58.7843 50.3916 58.6563 50.229 58.6563Z" fill="white"/>
</g>
</g>
<g id="Group_34">
<g id="Group_35">
<path id="Vector_34" d="M66 80.6924C65.5124 80.6924 65.1184 80.2984 65.1184 79.8108V58.9469C65.1184 58.4593 65.5124 58.0652 66 58.0652C66.4877 58.0652 66.8817 58.4593 66.8817 58.9469V79.8108C66.8817 80.2984 66.4877 80.6924 66 80.6924Z" fill="white"/>
<path id="Vector_35" d="M66 81.2834C65.1873 81.2834 64.5273 80.6234 64.5273 79.8107V58.9469C64.5273 58.1342 65.1873 57.4742 66 57.4742C66.8127 57.4742 67.4727 58.1342 67.4727 58.9469V79.8107C67.4727 80.6234 66.8127 81.2834 66 81.2834ZM66 58.6563C65.8375 58.6563 65.7094 58.7843 65.7094 58.9469V79.8107C65.7094 79.9733 65.8375 80.1013 66 80.1013C66.1626 80.1013 66.2906 79.9733 66.2906 79.8107V58.9469C66.2906 58.7843 66.1626 58.6563 66 58.6563Z" fill="white"/>
</g>
</g>
<g id="Group_36">
<g id="Group_37">
<path id="Vector_36" d="M57.9125 80.6924C57.4249 80.6924 57.0309 80.2984 57.0309 79.8108V58.9469C57.0309 58.4593 57.4249 58.0652 57.9125 58.0652C58.4001 58.0652 58.7942 58.4593 58.7942 58.9469V79.8108C58.7942 80.2984 58.4001 80.6924 57.9125 80.6924Z" fill="white"/>
<path id="Vector_37" d="M57.9125 81.2834C57.0998 81.2834 56.4398 80.6234 56.4398 79.8107V58.9469C56.4398 58.1342 57.0998 57.4742 57.9125 57.4742C58.7252 57.4742 59.3852 58.1342 59.3852 58.9469V79.8107C59.3852 80.6234 58.7252 81.2834 57.9125 81.2834ZM57.9125 58.6563C57.75 58.6563 57.6219 58.7843 57.6219 58.9469V79.8107C57.6219 79.9733 57.75 80.1013 57.9125 80.1013C58.075 80.1013 58.2031 79.9733 58.2031 79.8107V58.9469C58.2031 58.7843 58.075 58.6563 57.9125 58.6563Z" fill="white"/>
</g>
</g>
</g>
</g>
</g>
</g>
<defs>
<clipPath id="clip0_1_1085">
<rect width="132" height="132" fill="white"/>
</clipPath>
</defs>
</svg>
