<svg width="132" height="132" viewBox="0 0 132 132" fill="none" xmlns="http://www.w3.org/2000/svg">
<g id="graphic-02 " clip-path="url(#clip0_1_1052)">
<g id="Group">
<g id="Group_2">
<path id="Vector" d="M66 132C102.451 132 132 102.451 132 66C132 29.5492 102.451 0 66 0C29.5492 0 0 29.5492 0 66C0 102.451 29.5492 132 66 132Z" fill="#D4AAED"/>
</g>
<g id="Group_3">
<g id="Group_4">
<g id="Group_5">
<path id="Vector_2" d="M65.9802 119.214C38.994 119.214 16.096 99.0542 12.727 72.3193C12.6925 72.0484 12.8846 71.8021 13.1555 71.7677C13.4264 71.7381 13.6727 71.9253 13.7072 72.1962C17.017 98.4385 39.4915 118.229 65.9851 118.229C92.3112 118.229 114.766 98.5765 118.219 72.5212C118.253 72.2503 118.499 72.0582 118.77 72.0977C119.041 72.1321 119.228 72.3833 119.194 72.6493C115.677 99.1971 92.7988 119.214 65.9802 119.214Z" fill="white"/>
<path id="Vector_3" d="M13.2147 60.2324C13.195 60.2324 13.1753 60.2324 13.1507 60.2275C12.8798 60.193 12.6877 59.9468 12.7221 59.6759C16.096 32.9409 38.9892 12.7814 65.9753 12.7814C92.7939 12.7814 115.672 32.7981 119.184 59.3458C119.219 59.6167 119.031 59.863 118.76 59.8975C118.49 59.932 118.243 59.7448 118.209 59.4739C114.761 33.4138 92.3014 13.7664 65.9753 13.7664C39.4817 13.7664 17.0072 33.5566 13.6974 59.799C13.6727 60.0502 13.4609 60.2324 13.2147 60.2324Z" fill="white"/>
</g>
<g id="Group_6">
<path id="Vector_4" d="M69.2754 110.688C69.0192 110.688 68.8025 110.491 68.7828 110.23C68.7631 109.959 68.9651 109.723 69.236 109.703C80.3673 108.89 90.7056 103.935 98.3498 95.7542C106.033 87.5288 110.264 76.7964 110.264 65.537C110.264 42.2942 92.1192 22.8882 68.9552 21.3515C68.6843 21.3318 68.4774 21.1003 68.4971 20.8294C68.5168 20.5585 68.7533 20.3517 69.0192 20.3714C92.6955 21.9425 111.244 41.782 111.244 65.542C111.244 77.0526 106.92 88.0213 99.0689 96.4339C91.2573 104.802 80.6874 109.865 69.3098 110.693C69.3 110.688 69.2852 110.688 69.2754 110.688Z" fill="white"/>
<path id="Vector_5" d="M62.6458 110.683C62.636 110.683 62.6212 110.683 62.6113 110.683C51.2386 109.846 40.6786 104.777 32.8769 96.4142C25.0357 88.0066 20.7112 77.0427 20.7112 65.537C20.7112 41.4421 39.5409 21.583 63.5816 20.332C63.8525 20.3172 64.084 20.529 64.0988 20.7999C64.1136 21.0708 63.9018 21.3023 63.6309 21.317C40.1172 22.5435 21.6963 41.9691 21.6963 65.537C21.6963 76.7915 25.9222 87.519 33.596 95.7394C41.2303 103.92 51.5588 108.88 62.6852 109.698C62.9561 109.718 63.158 109.954 63.1383 110.225C63.1186 110.486 62.9019 110.683 62.6458 110.683Z" fill="white"/>
</g>
<path id="Vector_6" d="M13.2049 68.4627C12.4858 68.4627 11.8061 68.1819 11.2889 67.6697C10.7718 67.1525 10.4861 66.4679 10.4861 65.734C10.4861 64.2318 11.7125 63.0054 13.2147 63.0054C14.717 63.0054 15.9434 64.2318 15.9434 65.734C15.9434 67.2363 14.717 68.4627 13.2147 68.4627C13.2098 68.4627 13.2098 68.4627 13.2049 68.4627ZM13.2147 63.9904C12.2543 63.9904 11.4712 64.7736 11.4712 65.734C11.4712 66.2019 11.6534 66.6403 11.9834 66.9752C12.3134 67.3052 12.7419 67.4678 13.2098 67.4776C14.1752 67.4776 14.9534 66.6945 14.9534 65.734C14.9534 64.7736 14.1752 63.9904 13.2147 63.9904Z" fill="white"/>
<path id="Vector_7" d="M119.041 68.2411C117.677 68.2411 116.569 67.1329 116.569 65.7686C116.569 64.4042 117.677 63.296 119.041 63.296C120.406 63.296 121.514 64.4042 121.514 65.7686C121.514 67.1329 120.406 68.2411 119.041 68.2411ZM119.041 64.2811C118.219 64.2811 117.554 64.946 117.554 65.7686C117.554 66.5911 118.224 67.256 119.041 67.256C119.859 67.256 120.529 66.5911 120.529 65.7686C120.529 64.946 119.864 64.2811 119.041 64.2811Z" fill="white"/>
</g>
<path id="Vector_8" d="M18.2928 89.6418C18.1204 89.6418 17.9578 89.5532 17.8643 89.3955C17.7264 89.1591 17.8101 88.8587 18.0416 88.7208L109.442 35.8026C109.678 35.6646 109.979 35.7484 110.117 35.9799C110.254 36.2114 110.171 36.5167 109.939 36.6546L18.539 89.5778C18.4602 89.6221 18.3765 89.6418 18.2928 89.6418Z" fill="white"/>
</g>
<g id="Group_7">
<g id="Group_8">
<g id="Group_9">
<path id="Vector_9" d="M52.869 100.739C51.943 100.739 51.0762 100.153 50.7659 99.2217C50.6575 98.9015 50.2881 98.1529 49.8941 97.3599C48.3377 94.2273 45.4415 88.4006 43.7571 79.8699C42.442 73.2157 42.5405 68.4184 44.1166 62.7542C44.4466 61.577 45.6681 60.8875 46.8453 61.2126C48.0224 61.5426 48.7169 62.7641 48.3869 63.9412C46.9979 68.9405 46.9191 73.0236 48.1062 79.0079C49.6774 86.9575 52.4011 92.4394 53.8688 95.3897C54.3909 96.4438 54.7702 97.2072 54.9771 97.8229C55.3662 98.9853 54.7357 100.241 53.5733 100.625C53.3369 100.704 53.1005 100.739 52.869 100.739Z" fill="white"/>
<path id="Vector_10" d="M50.9432 52.7655C50.7166 52.7655 50.4851 52.7311 50.2585 52.6572C49.0962 52.2779 48.4559 51.0318 48.8351 49.8645C50.0123 46.2296 48.3721 37.0142 47.6432 33.7684C47.3723 32.5764 48.1259 31.3894 49.3178 31.1185C50.5097 30.8476 51.6968 31.6012 51.9677 32.7931C52.2632 34.1082 54.8145 45.7961 53.0512 51.2337C52.7459 52.1696 51.879 52.7655 50.9432 52.7655Z" fill="white"/>
<path id="Vector_11" d="M80.7269 100.744C80.4954 100.744 80.259 100.709 80.0275 100.63C78.8651 100.241 78.2396 98.9902 78.6237 97.8278C78.8306 97.217 79.2049 96.4536 79.732 95.3947C81.1948 92.4493 83.9185 86.9624 85.4946 79.0178C87.5387 68.6942 85.8197 64.4288 80.7318 51.7559C78.6434 46.5596 80.8746 34.3988 81.1308 33.0296C81.3623 31.8278 82.5197 31.0397 83.7215 31.2663C84.9233 31.4929 85.7114 32.6553 85.4848 33.857C84.5933 38.5411 83.6328 47.0915 84.8445 50.1009C90.0063 62.9463 92.139 68.2608 89.8437 79.8748C88.1543 88.4056 85.2582 94.2323 83.7067 97.3648C83.3127 98.1578 82.9433 98.9065 82.8349 99.2266C82.5197 100.158 81.6578 100.744 80.7269 100.744Z" fill="white"/>
<path id="Vector_12" d="M66.7684 58.9075C66.4039 58.9075 66.0345 58.8188 65.6897 58.6267C64.6209 58.0308 64.2367 56.6812 64.8327 55.6124C65.1529 55.0411 64.8081 54.2037 64.8081 54.1939C64.2909 53.0857 64.7785 51.7805 65.8867 51.2633C66.995 50.7461 68.3199 51.2387 68.842 52.3518C68.975 52.6424 70.1176 55.243 68.709 57.7697C68.3002 58.4987 67.5466 58.9075 66.7684 58.9075Z" fill="white"/>
<path id="Vector_13" d="M66.6748 100.581C65.4484 100.581 64.4584 99.5911 64.4584 98.3647V77.3235C64.4584 76.0971 65.4484 75.1071 66.6748 75.1071C67.9012 75.1071 68.8912 76.0971 68.8912 77.3235V98.3647C68.8912 99.5911 67.9012 100.581 66.6748 100.581Z" fill="white"/>
<path id="Vector_14" d="M66.2907 79.1704C66.069 79.1704 65.8474 79.136 65.6257 79.067C58.8534 76.9294 52.5932 69.5315 50.2142 66.4482C49.4656 65.4779 49.6478 64.0889 50.6181 63.3403C51.5884 62.5916 52.9774 62.7739 53.726 63.7442C55.381 65.8916 61.2274 73.0334 66.9605 74.846C68.1278 75.2154 68.7731 76.4615 68.4086 77.6288C68.1081 78.5646 67.2314 79.1704 66.2907 79.1704Z" fill="white"/>
<path id="Vector_15" d="M66.5812 79.1704C65.6404 79.1704 64.7687 78.5646 64.4682 77.6189C64.0988 76.4516 64.749 75.2055 65.9163 74.8361C71.3588 73.1171 76.8358 66.6895 78.939 64.0052C79.6925 63.0398 81.0864 62.8724 82.0518 63.6259C83.0172 64.3795 83.1846 65.7734 82.431 66.7388C79.5054 70.4771 73.6393 77.0476 67.251 79.067C67.0245 79.1359 66.8028 79.1704 66.5812 79.1704Z" fill="white"/>
</g>
</g>
<g id="Group_10">
<path id="Vector_16" d="M29.5572 61.577L40.1271 65.1528C40.5851 65.3104 40.9299 65.0395 40.8905 64.5569L40.5704 60.72C40.531 60.2373 40.8905 59.8728 41.3732 59.9073C47.2935 60.3358 49.0075 60.5427 47.8353 60.1634L37.5954 56.8388C37.1324 56.691 36.7975 56.9619 36.8468 57.4446L37.2556 61.4391C37.3048 61.9218 36.9502 62.2666 36.4724 62.2124C30.232 61.4736 28.3604 61.1682 29.5572 61.577Z" fill="white"/>
<path id="Vector_17" d="M41.2944 47.5348L43.2153 55.3218C43.299 55.6616 43.5946 55.7651 43.8704 55.5533L46.072 53.8786C46.3479 53.6669 46.7123 53.7457 46.8749 54.051C48.9041 57.8042 49.441 58.9222 49.2193 58.0652L47.2738 50.5737C47.1852 50.2388 46.8896 50.1403 46.6187 50.3521L44.358 52.1449C44.0871 52.3616 43.7374 52.2828 43.5847 51.9676C41.6195 47.8992 41.0777 46.6531 41.2944 47.5348Z" fill="white"/>
</g>
</g>
</g>
</g>
<defs>
<clipPath id="clip0_1_1052">
<rect width="132" height="132" fill="white"/>
</clipPath>
</defs>
</svg>
