<svg width="132" height="132" viewBox="0 0 132 132" fill="none" xmlns="http://www.w3.org/2000/svg">
<g id="graphic-04" clip-path="url(#clip0_1_1162)">
<g id="Group">
<g id="Group_2">
<path id="Vector" d="M66 132C102.451 132 132 102.451 132 66C132 29.5492 102.451 0 66 0C29.5492 0 0 29.5492 0 66C0 102.451 29.5492 132 66 132Z" fill="#D4AAED"/>
</g>
<g id="Group_3">
<g id="Group_4">
<g id="Group_5">
<path id="Vector_2" d="M65.9802 119.214C38.994 119.214 16.096 99.0542 12.727 72.3193C12.6925 72.0484 12.8846 71.8021 13.1555 71.7677C13.4264 71.7381 13.6727 71.9253 13.7072 72.1962C17.017 98.4385 39.4915 118.229 65.9851 118.229C92.3112 118.229 114.766 98.5765 118.219 72.5212C118.253 72.2503 118.499 72.0582 118.77 72.0977C119.041 72.1321 119.228 72.3833 119.194 72.6493C115.677 99.1971 92.7988 119.214 65.9802 119.214Z" fill="white"/>
<path id="Vector_3" d="M13.2147 60.2324C13.195 60.2324 13.1753 60.2324 13.1507 60.2275C12.8798 60.193 12.6877 59.9468 12.7221 59.6759C16.096 32.9409 38.9892 12.7814 65.9753 12.7814C92.7939 12.7814 115.672 32.7981 119.184 59.3458C119.219 59.6167 119.031 59.863 118.76 59.8975C118.49 59.932 118.243 59.7448 118.209 59.4739C114.761 33.4138 92.3014 13.7664 65.9753 13.7664C39.4817 13.7664 17.0072 33.5566 13.6974 59.799C13.6727 60.0502 13.4609 60.2324 13.2147 60.2324Z" fill="white"/>
</g>
<g id="Group_6">
<path id="Vector_4" d="M69.2754 110.688C69.0192 110.688 68.8025 110.491 68.7828 110.23C68.7631 109.959 68.9651 109.723 69.236 109.703C80.3673 108.89 90.7056 103.935 98.3498 95.7542C106.033 87.5288 110.264 76.7964 110.264 65.537C110.264 42.2942 92.1192 22.8882 68.9552 21.3515C68.6843 21.3318 68.4774 21.1003 68.4971 20.8294C68.5168 20.5585 68.7533 20.3517 69.0192 20.3714C92.6955 21.9425 111.244 41.782 111.244 65.542C111.244 77.0526 106.92 88.0213 99.0689 96.4339C91.2573 104.802 80.6874 109.865 69.3098 110.693C69.3 110.688 69.2852 110.688 69.2754 110.688Z" fill="white"/>
<path id="Vector_5" d="M62.6458 110.683C62.636 110.683 62.6212 110.683 62.6113 110.683C51.2386 109.846 40.6786 104.777 32.8769 96.4142C25.0357 88.0066 20.7112 77.0427 20.7112 65.537C20.7112 41.4421 39.5409 21.583 63.5816 20.332C63.8525 20.3172 64.084 20.529 64.0988 20.7999C64.1136 21.0708 63.9018 21.3023 63.6309 21.317C40.1172 22.5435 21.6963 41.9691 21.6963 65.537C21.6963 76.7915 25.9222 87.519 33.596 95.7394C41.2303 103.92 51.5588 108.88 62.6852 109.698C62.9561 109.718 63.158 109.954 63.1383 110.225C63.1186 110.486 62.9019 110.683 62.6458 110.683Z" fill="white"/>
</g>
<path id="Vector_6" d="M13.2049 68.4627C12.4858 68.4627 11.8061 68.1819 11.2889 67.6697C10.7718 67.1525 10.4861 66.4679 10.4861 65.734C10.4861 64.2318 11.7125 63.0054 13.2147 63.0054C14.717 63.0054 15.9434 64.2318 15.9434 65.734C15.9434 67.2363 14.717 68.4627 13.2147 68.4627C13.2098 68.4627 13.2098 68.4627 13.2049 68.4627ZM13.2147 63.9904C12.2543 63.9904 11.4712 64.7736 11.4712 65.734C11.4712 66.2019 11.6534 66.6403 11.9834 66.9752C12.3134 67.3052 12.7419 67.4678 13.2098 67.4776C14.1752 67.4776 14.9534 66.6945 14.9534 65.734C14.9534 64.7736 14.1752 63.9904 13.2147 63.9904Z" fill="white"/>
<path id="Vector_7" d="M119.041 68.2411C117.677 68.2411 116.569 67.1329 116.569 65.7686C116.569 64.4042 117.677 63.296 119.041 63.296C120.406 63.296 121.514 64.4042 121.514 65.7686C121.514 67.1329 120.406 68.2411 119.041 68.2411ZM119.041 64.2811C118.219 64.2811 117.554 64.946 117.554 65.7686C117.554 66.5911 118.224 67.256 119.041 67.256C119.859 67.256 120.529 66.5911 120.529 65.7686C120.529 64.946 119.864 64.2811 119.041 64.2811Z" fill="white"/>
</g>
</g>
<g id="Group_7">
<g id="Group_8">
<g id="Group_9">
<path id="Vector_8" d="M68.5563 83.9924C55.8193 83.9924 45.4563 73.6294 45.4563 60.8924C45.4563 48.1554 55.8193 37.7924 68.5563 37.7924C81.2933 37.7924 91.6514 48.1554 91.6514 60.8924C91.6563 73.6294 81.2933 83.9924 68.5563 83.9924ZM68.5563 39.8414C56.9472 39.8414 47.5053 49.2833 47.5053 60.8924C47.5053 72.5015 56.9472 81.9435 68.5563 81.9435C80.1654 81.9435 89.6073 72.5015 89.6073 60.8924C89.6073 49.2833 80.1654 39.8414 68.5563 39.8414Z" fill="white"/>
<path id="Vector_9" d="M68.5563 84.4849C55.5484 84.4849 44.9637 73.9003 44.9637 60.8924C44.9637 47.8845 55.5484 37.2999 68.5563 37.2999C81.5642 37.2999 92.1439 47.8845 92.1439 60.8924C92.1439 67.1821 89.6911 73.1073 85.2287 77.5648C80.7712 82.0272 74.846 84.4849 68.5563 84.4849ZM68.5563 38.2849C56.0902 38.2849 45.9488 48.4263 45.9488 60.8924C45.9488 73.3585 56.0902 83.4999 68.5563 83.4999C74.5849 83.4999 80.259 81.1455 84.5342 76.8703C88.8094 72.5951 91.1637 66.9211 91.1588 60.8924C91.1588 48.4263 81.0175 38.2849 68.5563 38.2849ZM68.5563 82.436C56.6763 82.436 47.0127 72.7724 47.0127 60.8924C47.0127 49.0124 56.6763 39.3488 68.5563 39.3488C80.4363 39.3488 90.0999 49.0124 90.0999 60.8924C90.0999 72.7724 80.4363 82.436 68.5563 82.436ZM68.5563 40.3339C57.2181 40.3339 47.9978 49.5542 47.9978 60.8924C47.9978 72.2306 57.2181 81.4509 68.5563 81.4509C79.8896 81.4509 89.1148 72.2306 89.1148 60.8924C89.1148 49.5542 79.8945 40.3339 68.5563 40.3339Z" fill="white"/>
</g>
</g>
<g id="Group_10">
<g id="Group_11">
<path id="Vector_10" d="M68.5563 77.1461C59.4985 77.1461 52.1252 69.7778 52.1252 60.7151C52.1252 51.6524 59.4936 44.2841 68.5563 44.2841C77.619 44.2841 84.9873 51.6524 84.9873 60.7151C84.9873 69.7778 77.614 77.1461 68.5563 77.1461ZM68.5563 46.2345C60.5723 46.2345 54.0757 52.7311 54.0757 60.7151C54.0757 68.6991 60.5723 75.1957 68.5563 75.1957C76.5403 75.1957 83.0369 68.6991 83.0369 60.7151C83.0369 52.7311 76.5403 46.2345 68.5563 46.2345Z" fill="white"/>
<path id="Vector_11" d="M68.5563 77.6387C59.2227 77.6387 51.6327 70.0487 51.6327 60.7151C51.6327 51.3815 59.2227 43.7915 68.5563 43.7915C77.8899 43.7915 85.4799 51.3815 85.4799 60.7151C85.4799 70.0487 77.8899 77.6387 68.5563 77.6387ZM68.5563 44.7766C59.7694 44.7766 52.6178 51.9282 52.6178 60.7151C52.6178 69.5019 59.7694 76.6536 68.5563 76.6536C77.3431 76.6536 84.4948 69.5019 84.4948 60.7151C84.4948 51.9282 77.3431 44.7766 68.5563 44.7766ZM68.5563 75.6882C60.3013 75.6882 53.5831 68.97 53.5831 60.7151C53.5831 52.4602 60.3013 45.742 68.5563 45.742C76.8112 45.742 83.5294 52.4602 83.5294 60.7151C83.5294 68.97 76.8112 75.6882 68.5563 75.6882ZM68.5563 46.727C60.8431 46.727 54.5682 53.0019 54.5682 60.7151C54.5682 68.4282 60.8431 74.7031 68.5563 74.7031C76.2694 74.7031 82.5443 68.4282 82.5443 60.7151C82.5443 53.0019 76.2694 46.727 68.5563 46.727Z" fill="white"/>
</g>
</g>
<g id="Group_12">
<g id="Group_13">
<path id="Vector_12" d="M68.5563 62.5769C69.5818 62.5769 70.4132 61.7455 70.4132 60.72C70.4132 59.6945 69.5818 58.8632 68.5563 58.8632C67.5308 58.8632 66.6995 59.6945 66.6995 60.72C66.6995 61.7455 67.5308 62.5769 68.5563 62.5769Z" fill="white"/>
<path id="Vector_13" d="M68.5563 63.0694C67.9308 63.0694 67.3397 62.8231 66.8965 62.3799C66.4532 61.9366 66.2069 61.3455 66.2069 60.72C66.2069 60.0945 66.4532 59.5034 66.8965 59.0602C67.3397 58.6169 67.9308 58.3706 68.5563 58.3706C69.1818 58.3706 69.7729 58.6169 70.2162 59.0602C70.6594 59.5034 70.9057 60.0945 70.9057 60.72C70.9057 61.3455 70.6594 61.9366 70.2162 62.3799C69.7729 62.8231 69.1868 63.0694 68.5563 63.0694ZM68.5563 59.3557C68.1918 59.3557 67.8471 59.4985 67.5909 59.7546C67.3348 60.0108 67.192 60.3555 67.192 60.72C67.192 61.0845 67.3348 61.4293 67.5909 61.6854C68.1081 62.1976 69.0045 62.2025 69.5217 61.6854C69.7778 61.4293 69.9206 61.0845 69.9206 60.72C69.9206 60.3555 69.7778 60.0108 69.5217 59.7546C69.2656 59.4985 68.9208 59.3557 68.5563 59.3557Z" fill="white"/>
</g>
</g>
<g id="Group_14">
<g id="Group_15">
<path id="Vector_14" d="M71.3293 39.5606H65.7833C63.3452 39.5606 61.3652 37.5806 61.3652 35.1426V34.7879C61.3652 32.3499 63.3452 30.3699 65.7833 30.3699H71.3293C73.7673 30.3699 75.7473 32.3499 75.7473 34.7879V35.1426C75.7473 37.5806 73.7673 39.5606 71.3293 39.5606ZM65.7833 32.4188C64.4731 32.4188 63.4093 33.4827 63.4093 34.7929V35.1475C63.4093 36.4576 64.4731 37.5215 65.7833 37.5215H71.3293C72.6394 37.5215 73.7033 36.4576 73.7033 35.1475V34.7929C73.7033 33.4827 72.6394 32.4188 71.3293 32.4188H65.7833Z" fill="white"/>
<path id="Vector_15" d="M71.3293 40.0531H65.7833C63.0743 40.0531 60.8727 37.8515 60.8727 35.1425V34.7879C60.8727 32.079 63.0743 29.8773 65.7833 29.8773H71.3293C74.0382 29.8773 76.2398 32.079 76.2398 34.7879V35.1425C76.2398 37.8515 74.0382 40.0531 71.3293 40.0531ZM65.7833 30.8624C63.6161 30.8624 61.8578 32.6257 61.8578 34.7879V35.1425C61.8578 37.3048 63.621 39.0681 65.7833 39.0681H71.3293C73.4915 39.0681 75.2548 37.3048 75.2548 35.1425V34.7879C75.2548 32.6257 73.4915 30.8624 71.3293 30.8624H65.7833ZM71.3293 38.014H65.7833C64.2022 38.014 62.9167 36.7285 62.9167 35.1475V34.7928C62.9167 33.2118 64.2022 31.9263 65.7833 31.9263H71.3293C72.9103 31.9263 74.1958 33.2118 74.1958 34.7928V35.1475C74.1958 36.7285 72.9103 38.014 71.3293 38.014ZM65.7833 32.9113C64.744 32.9113 63.9018 33.7536 63.9018 34.7928V35.1475C63.9018 36.1867 64.744 37.029 65.7833 37.029H71.3293C72.3685 37.029 73.2107 36.1867 73.2107 35.1475V34.7928C73.2107 33.7536 72.3685 32.9113 71.3293 32.9113H65.7833Z" fill="white"/>
</g>
</g>
<g id="Group_16">
<g id="Group_17">
<path id="Vector_16" d="M68.5563 61.6903C68.0194 61.6903 67.5811 61.2569 67.5811 60.7151V50.2044C67.5811 49.6675 68.0194 49.2291 68.5563 49.2291C69.0931 49.2291 69.5315 49.6626 69.5315 50.2044V60.7151C69.5315 61.2569 69.0931 61.6903 68.5563 61.6903Z" fill="white"/>
<path id="Vector_17" d="M68.5563 62.1828C67.7485 62.1828 67.0885 61.5228 67.0885 60.7151V50.2043C67.0885 49.3966 67.7485 48.7366 68.5563 48.7366C69.364 48.7366 70.024 49.3966 70.024 50.2043V60.7151C70.024 61.5228 69.364 62.1828 68.5563 62.1828ZM68.5563 49.7216C68.2903 49.7216 68.0736 49.9384 68.0736 50.2043V60.7151C68.0736 60.981 68.2903 61.1978 68.5563 61.1978C68.8222 61.1978 69.0389 60.981 69.0389 60.7151V50.2043C69.0389 49.9384 68.8222 49.7216 68.5563 49.7216Z" fill="white"/>
</g>
</g>
<g id="Group_18">
<g id="Group_19">
<path id="Vector_18" d="M39.4424 60.2177H37.162C36.6251 60.2177 36.1868 59.7842 36.1868 59.2424C36.1868 58.7056 36.6251 58.2672 37.162 58.2672H39.4424C39.9793 58.2672 40.4177 58.7006 40.4177 59.2424C40.4177 59.7793 39.9793 60.2177 39.4424 60.2177Z" fill="white"/>
<path id="Vector_19" d="M39.4424 60.7102H37.162C36.3542 60.7102 35.6942 60.0502 35.6942 59.2424C35.6942 58.4347 36.3542 57.7747 37.162 57.7747H39.4424C40.2502 57.7747 40.9102 58.4347 40.9102 59.2424C40.9102 60.0502 40.2502 60.7102 39.4424 60.7102ZM37.162 58.7597C36.896 58.7597 36.6793 58.9764 36.6793 59.2424C36.6793 59.5084 36.896 59.7251 37.162 59.7251H39.4424C39.7084 59.7251 39.9251 59.5084 39.9251 59.2424C39.9251 58.9764 39.7084 58.7597 39.4424 58.7597H37.162Z" fill="white"/>
</g>
</g>
<g id="Group_20">
<g id="Group_21">
<path id="Vector_20" d="M40.5162 69.8418C40.265 69.8418 40.0188 69.7482 39.8267 69.5561C39.4474 69.1769 39.4474 68.5612 39.8267 68.177L41.4373 66.5664C41.8165 66.1872 42.4322 66.1872 42.8164 66.5664C43.1956 66.9457 43.1956 67.5613 42.8164 67.9455L41.2058 69.5561C41.0137 69.7433 40.7625 69.8418 40.5162 69.8418Z" fill="white"/>
<path id="Vector_21" d="M40.5162 70.3343C40.1222 70.3343 39.7577 70.1817 39.477 69.9058C38.9105 69.3394 38.9056 68.4085 39.477 67.8323L41.0876 66.2217C41.654 65.6503 42.5849 65.6503 43.1611 66.2217C43.7325 66.793 43.7325 67.7239 43.1661 68.2952L41.5555 69.9058C41.2698 70.1817 40.8955 70.3343 40.5162 70.3343ZM42.1268 66.7733C42.0037 66.7733 41.8805 66.8176 41.787 66.9112L40.1764 68.5218C39.9892 68.709 39.9892 69.0193 40.1764 69.2064C40.2946 69.3246 40.4276 69.3493 40.5162 69.3493C40.6393 69.3493 40.7674 69.2951 40.861 69.2015L42.4667 67.5958C42.6538 67.4087 42.6538 67.0984 42.4667 66.9112C42.3731 66.8226 42.2499 66.7733 42.1268 66.7733Z" fill="white"/>
</g>
</g>
<g id="Group_22">
<g id="Group_23">
<path id="Vector_22" d="M42.1268 52.2237C41.8756 52.2237 41.6294 52.1301 41.4373 51.938L39.8267 50.3274C39.4474 49.9482 39.4474 49.3325 39.8267 48.9483C40.2059 48.5691 40.8216 48.5691 41.2058 48.9483L42.8164 50.5589C43.1956 50.9382 43.1956 51.5538 42.8164 51.938C42.6243 52.1301 42.3731 52.2237 42.1268 52.2237Z" fill="white"/>
<path id="Vector_23" d="M42.1268 52.7162C41.7328 52.7162 41.3683 52.5636 41.0876 52.2877L39.477 50.6771C38.9105 50.1107 38.9056 49.1798 39.477 48.6036C40.0483 48.0322 40.9792 48.0322 41.5505 48.5986L43.1611 50.2092C43.7276 50.7757 43.7325 51.7065 43.1611 52.2828C42.8853 52.5636 42.5208 52.7162 42.1268 52.7162ZM40.5162 49.1552C40.3931 49.1552 40.2699 49.1995 40.1764 49.2931C39.9892 49.4803 39.9892 49.7906 40.1764 49.9777L41.787 51.5883C41.9052 51.7065 42.0381 51.7312 42.1268 51.7312C42.2549 51.7312 42.378 51.6819 42.4667 51.5883C42.6538 51.4012 42.6538 51.0909 42.4667 50.9037L40.8561 49.2931C40.7625 49.2045 40.6393 49.1552 40.5162 49.1552Z" fill="white"/>
</g>
</g>
<g id="Group_24">
<g id="Group_25">
<g id="Group_26">
<g id="Group_27">
<path id="Vector_24" d="M49.7365 89.2478L43.097 78.7075C44.3333 77.88 45.4169 76.9688 46.466 76.0872C48.6775 74.2254 50.7659 72.467 53.8935 71.9105C54.1545 71.8661 54.4106 71.8415 54.6618 71.8415C56.1493 71.8415 57.3264 72.669 58.5726 73.5408C59.7596 74.3731 60.986 75.2351 62.6015 75.5208C63.8575 75.7473 65.2169 75.8508 66.8767 75.8508C67.9653 75.8508 69.0735 75.8064 70.1373 75.7621C71.1815 75.7178 72.2651 75.6784 73.3142 75.6734C74.8017 75.6734 76.0084 76.8851 76.0084 78.3725C76.0084 78.9193 75.8459 79.4463 75.5356 79.8994L76.2842 80.5299L85.9872 70.9943C86.6127 70.3146 87.7308 69.8911 88.8488 69.8911C89.4251 69.8911 89.957 70.0043 90.3905 70.2211C90.9175 70.4821 91.2475 70.9106 91.3509 71.4672C91.4938 72.2552 91.1736 73.1812 90.5087 73.8905L76.7915 88.376L76.1364 89.2478H49.7365Z" fill="#D4AAED"/>
<path id="Vector_25" d="M88.8537 70.3836C89.3512 70.3836 89.8093 70.4821 90.1787 70.6643C90.5678 70.8564 90.7943 71.147 90.8682 71.5558C90.9815 72.1813 90.7008 72.9694 90.159 73.5506L76.4566 88.0213L76.4172 88.0607L76.3827 88.1051L75.8902 88.7552H50.0024L43.757 78.8454C44.8504 78.0819 45.8257 77.2594 46.7763 76.4615C49.0321 74.5652 50.9776 72.9251 53.9772 72.3931C54.2087 72.3537 54.4352 72.334 54.6569 72.334C55.9867 72.334 57.0555 73.0827 58.2869 73.9446C59.4591 74.7672 60.789 75.6981 62.5128 76.0084C63.7984 76.2398 65.1824 76.3433 66.8767 76.3433C67.9751 76.3433 69.0882 76.299 70.1619 76.2546C71.2012 76.2103 72.2799 76.1709 73.3142 76.1709C74.5308 76.1709 75.5158 77.1609 75.5158 78.3775C75.5158 78.8257 75.3828 79.2542 75.1267 79.6236L76.629 80.8845L86.3319 71.3489L86.3517 71.3342L86.3664 71.3145C86.8836 70.7579 87.8785 70.3836 88.8537 70.3836ZM88.8537 69.3985C87.6322 69.3985 86.3713 69.8615 85.6473 70.6446L75.9443 80.1801C76.299 79.6679 76.5058 79.0424 76.5058 78.3725C76.5058 76.6092 75.0775 75.1809 73.3191 75.1809C71.1913 75.1809 69.0291 75.3533 66.8816 75.3533C65.473 75.3533 64.0742 75.2794 62.6902 75.0331C59.469 74.4569 57.7549 71.344 54.6618 71.344C54.3909 71.344 54.1052 71.3686 53.8097 71.4228C48.8843 72.2946 46.5152 75.964 42.4222 78.5548L49.4655 89.7354H76.3876L77.1757 88.6912L90.8781 74.2204C92.1833 72.8266 92.3458 70.6249 90.617 69.7728C90.09 69.5167 89.4743 69.3985 88.8537 69.3985Z" fill="white"/>
</g>
</g>
<g id="Group_28">
<g id="Group_29">
<path id="Vector_26" d="M76.3877 90.7106H49.4656C48.9287 90.7106 48.4904 90.2772 48.4904 89.7354C48.4904 89.1985 48.9287 88.7601 49.4656 88.7601H75.905L76.3975 88.1051C76.4221 88.0755 76.4418 88.046 76.4714 88.0213L90.1738 73.5555C90.7205 72.9694 91.0013 72.1813 90.888 71.5509C90.8141 71.1421 90.5826 70.8466 90.1886 70.6545C89.0508 70.093 87.1939 70.4082 86.3665 71.3046L75.6587 81.8252C75.2745 82.1995 74.6589 82.1946 74.2796 81.8104C73.9053 81.4263 73.9102 80.8106 74.2944 80.4313L84.9677 69.9501C86.3418 68.4578 89.1444 67.9652 91.0505 68.906C91.9962 69.3739 92.6168 70.1866 92.799 71.2012C93.0256 72.4374 92.5577 73.851 91.5874 74.8903L77.9195 89.3216L77.1659 90.3215C76.9787 90.5678 76.693 90.7106 76.3877 90.7106Z" fill="white"/>
<path id="Vector_27" d="M76.3877 91.2031H49.4656C48.6578 91.2031 47.9978 90.5431 47.9978 89.7354C47.9978 88.9276 48.6578 88.2676 49.4656 88.2676H75.6587L76.0035 87.8096C76.0429 87.7554 76.0823 87.7111 76.1266 87.6667L89.8142 73.2157C90.2477 72.7478 90.489 72.1124 90.4003 71.6346C90.356 71.3834 90.223 71.216 89.9718 71.0928C89.0212 70.62 87.4156 70.8909 86.726 71.6346L76.0035 82.17C75.4223 82.7315 74.4963 82.7216 73.9299 82.1503C73.3635 81.5691 73.3733 80.6431 73.9496 80.0767L84.6229 69.5955C86.13 67.9603 89.1789 67.4333 91.2672 68.4627C92.3557 68.9996 93.0748 69.9403 93.2817 71.1125C93.5329 72.4966 93.0206 74.0727 91.9469 75.2252L78.2938 89.6418L77.555 90.6219C77.2742 90.9914 76.8506 91.2031 76.3877 91.2031ZM49.4656 89.2527C49.1996 89.2527 48.9829 89.4694 48.9829 89.7354C48.9829 90.0013 49.1996 90.2181 49.4656 90.2181H76.3877C76.5403 90.2181 76.6782 90.1491 76.7718 90.026L77.5599 88.9867L91.2278 74.5554C92.0947 73.6294 92.5084 72.3784 92.3114 71.2948C92.1587 70.4378 91.6317 69.7482 90.8288 69.3542C89.1296 68.5169 86.5586 68.9503 85.3272 70.29L74.6342 80.7909C74.4471 80.9781 74.4421 81.2834 74.6293 81.4755C74.8165 81.6627 75.1218 81.6676 75.3139 81.4804L86.0217 70.9599C86.9772 69.9255 89.0754 69.5611 90.4053 70.2211C90.9372 70.4772 91.2721 70.9106 91.3706 71.4721C91.5085 72.2503 91.1835 73.2058 90.5333 73.9003L76.7866 88.4105L76.1512 89.2625H49.4656V89.2527Z" fill="white"/>
</g>
</g>
<g id="Group_30">
<g id="Group_31">
<path id="Vector_28" d="M73.3142 82.5345H59.7793C59.2424 82.5345 58.8041 82.1011 58.8041 81.5593C58.8041 81.0224 59.2424 80.5841 59.7793 80.5841H73.3142C74.5357 80.5841 75.5307 79.5891 75.5307 78.3676C75.5307 77.1461 74.5357 76.1512 73.3142 76.1512C72.275 76.1512 71.2012 76.1955 70.162 76.2399C67.655 76.3384 65.0642 76.4467 62.5178 75.9936C60.7939 75.6882 59.469 74.7573 58.2968 73.9348C56.8241 72.9005 55.6617 72.0878 53.9772 72.3833C50.9777 72.9153 49.0272 74.5554 46.7714 76.4517C45.5942 77.4417 44.3777 78.4661 42.9395 79.3823C42.4863 79.6679 41.8854 79.535 41.5948 79.0818C41.3092 78.6287 41.4421 78.0278 41.8953 77.7372C43.2251 76.895 44.3924 75.9148 45.5154 74.9642C47.7762 73.0581 50.1157 71.0879 53.6374 70.4673C56.1148 70.029 57.8683 71.2603 59.4099 72.3439C60.5132 73.1172 61.5574 73.8511 62.8527 74.0826C65.1874 74.4963 67.6747 74.3978 70.0783 74.2993C71.1372 74.255 72.2306 74.2106 73.3093 74.2106C75.6045 74.2106 77.4712 76.0773 77.4712 78.3726C77.4762 80.6678 75.6095 82.5345 73.3142 82.5345Z" fill="white"/>
<path id="Vector_29" d="M73.3142 83.027H59.7793C58.9715 83.027 58.3115 82.367 58.3115 81.5593C58.3115 80.7515 58.9715 80.0915 59.7793 80.0915H73.3142C74.2648 80.0915 75.0381 79.3182 75.0381 78.3676C75.0381 77.417 74.2648 76.6437 73.3142 76.6437C72.2503 76.6437 71.1027 76.693 70.1817 76.7324L70.0979 76.7373C67.5909 76.8358 65.0002 76.9393 62.4341 76.4812C60.6067 76.1561 59.2326 75.1957 58.0209 74.3436C56.5876 73.3339 55.5533 72.6049 54.0658 72.8709C51.1993 73.3782 49.2981 74.979 47.0964 76.8309C45.8996 77.8406 44.6732 78.87 43.2103 79.8009C42.5257 80.2294 41.6194 80.0275 41.186 79.3478C40.7575 78.6631 40.9594 77.7569 41.6342 77.3234C42.9739 76.4763 44.156 75.4715 45.2002 74.5899C47.5102 72.6394 49.899 70.6299 53.5536 69.9846C56.233 69.5069 58.1539 70.8614 59.6955 71.9449C60.7594 72.6936 61.7593 73.3881 62.9414 73.5999C65.2366 74.0087 67.6894 73.9052 70.0585 73.8067C71.0042 73.7673 72.1863 73.7181 73.3093 73.7181C75.8754 73.7181 77.9637 75.8064 77.9637 78.3725C77.9637 79.6137 77.486 80.7811 76.6043 81.6578C75.7276 82.5394 74.5554 83.027 73.3142 83.027ZM59.7793 81.0766C59.5133 81.0766 59.2966 81.2933 59.2966 81.5593C59.2966 81.8252 59.5133 82.042 59.7793 82.042H73.3142C74.2944 82.042 75.2154 81.6578 75.9099 80.9633C76.6043 80.2688 76.9836 79.3478 76.9787 78.3725C76.9787 76.3482 75.3336 74.7031 73.3093 74.7031C72.206 74.7031 71.0387 74.7524 70.0979 74.7918C67.6747 74.8903 65.1676 74.9937 62.7641 74.5702C61.3652 74.319 60.2817 73.5605 59.1341 72.7576C57.5875 71.6691 55.9966 70.5511 53.7211 70.9549C50.3275 71.5509 48.0421 73.4817 45.8306 75.3434C44.7618 76.2448 43.5502 77.2742 42.1563 78.1558C41.9346 78.2987 41.8657 78.5991 42.0085 78.8208C42.1514 79.0424 42.4518 79.1064 42.6735 78.9685C44.0772 78.0721 45.279 77.0624 46.4414 76.0823C48.7612 74.1318 50.756 72.4522 53.8885 71.9006C55.7799 71.5706 57.0752 72.4818 58.5775 73.5358C59.7103 74.3288 60.986 75.2252 62.6015 75.5109C65.0691 75.9493 67.6057 75.8508 70.0585 75.7523L70.1423 75.7473C71.0732 75.7079 72.2306 75.6587 73.3142 75.6587C74.8066 75.6587 76.0232 76.8752 76.0232 78.3676C76.0232 79.86 74.8066 81.0766 73.3142 81.0766H59.7793Z" fill="white"/>
</g>
</g>
<g id="Group_32">
<g id="Group_33">
<g id="Group_34">
<path id="Vector_30" d="M45.6385 97.5865C44.8849 97.5865 44.151 97.2171 43.7176 96.5374L34.2412 81.6381C33.9161 81.1259 33.8078 80.5201 33.9407 79.9241C34.0737 79.3281 34.4283 78.8257 34.9357 78.5006L38.9745 75.9296C40.0334 75.2598 41.4372 75.57 42.1119 76.629L51.5883 91.5283C52.2582 92.5872 51.9479 93.9909 50.8889 94.6657L46.8452 97.2368C46.4758 97.4732 46.0572 97.5865 45.6385 97.5865ZM40.196 77.5205C40.1369 77.5205 40.0778 77.5353 40.0236 77.5698L35.9848 80.1408C35.8863 80.1999 35.8567 80.2935 35.8419 80.3427C35.8321 80.392 35.8222 80.4905 35.8813 80.589L45.3577 95.4883C45.4513 95.636 45.6582 95.6803 45.806 95.5868L49.8497 93.0157C49.9975 92.9221 50.0418 92.7153 49.9482 92.5675L40.4718 77.6732C40.4127 77.5747 40.3043 77.5205 40.196 77.5205Z" fill="white"/>
<path id="Vector_31" d="M45.6386 98.079C44.688 98.079 43.8112 97.6012 43.3039 96.8033L33.8275 81.9041C33.4286 81.2785 33.3005 80.5397 33.463 79.8157C33.6256 79.0966 34.0541 78.4809 34.6747 78.0869L38.7135 75.5158C40.0039 74.7032 41.713 75.0824 42.5306 76.3679L52.0071 91.2672C52.8197 92.5576 52.4405 94.2667 51.155 95.0844L47.1112 97.6554C46.6729 97.9312 46.1656 98.079 45.6386 98.079ZM40.1911 76.0724C39.866 76.0724 39.536 76.1611 39.2405 76.3482L35.2017 78.9193C34.8027 79.1754 34.5269 79.5694 34.4235 80.0324C34.32 80.4954 34.4038 80.9732 34.6599 81.377L44.1363 96.2763C44.4663 96.7885 45.0278 97.0988 45.6435 97.0988C45.9833 97.0988 46.3084 97.0052 46.5842 96.8279L50.628 94.2569C51.4554 93.7299 51.7017 92.6266 51.1747 91.7991L41.6983 76.8999C41.3584 76.363 40.7772 76.0724 40.1911 76.0724ZM45.6336 96.1285C45.3627 96.1285 45.0968 95.9955 44.9441 95.7493L35.4677 80.85C35.3544 80.6629 35.3199 80.4511 35.3593 80.2442C35.4332 79.9881 35.5563 79.8206 35.7336 79.7172L39.7626 77.1511C40.132 76.9147 40.6738 77.0427 40.8954 77.417L50.3669 92.3015C50.4802 92.4838 50.5196 92.7103 50.4703 92.9221C50.4211 93.1339 50.298 93.3161 50.1157 93.4344L46.072 96.0054C45.9341 96.0891 45.7814 96.1285 45.6336 96.1285ZM36.3887 80.4658L45.6829 95.0794L49.4409 92.6906L40.1418 78.077L36.3887 80.4658ZM36.2557 80.5545L36.2508 80.5594C36.2508 80.5545 36.2557 80.5545 36.2557 80.5545Z" fill="white"/>
</g>
</g>
</g>
</g>
</g>
</g>
</g>
</g>
<defs>
<clipPath id="clip0_1_1162">
<rect width="132" height="132" fill="white"/>
</clipPath>
</defs>
</svg>
