<svg width="132" height="132" viewBox="0 0 132 132" fill="none" xmlns="http://www.w3.org/2000/svg">
<g id="graphic-01" clip-path="url(#clip0_1_1030)">
<g id="Group">
<g id="Group_2">
<path id="Vector" d="M66 132C102.451 132 132 102.451 132 66C132 29.5492 102.451 0 66 0C29.5492 0 0 29.5492 0 66C0 102.451 29.5492 132 66 132Z" fill="#D4AAED"/>
</g>
<g id="Group_3">
<path id="Vector_2" d="M64.6849 56.9078L57.4446 72.1666C56.8979 73.3142 57.3904 74.6834 58.538 75.2301C59.6856 75.7719 61.0549 75.2843 61.6016 74.1367L68.8419 58.8779C69.3886 57.7303 68.8961 56.361 67.7485 55.8143C66.6008 55.2725 65.2267 55.7601 64.6849 56.9078Z" fill="white"/>
<path id="Vector_3" d="M66 38.4179C64.1677 38.4179 62.5768 39.4916 61.843 41.0481L49.3768 67.3151C48.244 69.7039 47.6086 72.3784 47.6086 75.1907C47.6086 85.3469 55.8389 93.5772 65.9951 93.5772C76.1512 93.5772 84.3815 85.3469 84.3815 75.1907C84.3815 72.3833 83.7461 69.7039 82.6133 67.3151L70.1471 41.0431C69.4231 39.4916 67.8322 38.4228 66 38.4179ZM78.4661 69.2901C79.3133 71.0781 79.791 73.0728 79.791 75.1907C79.791 79.0079 78.2494 82.4409 75.7522 84.943C73.2501 87.4402 69.8171 88.9818 66 88.9818C62.1828 88.9818 58.7498 87.4402 56.2477 84.943C53.7506 82.4409 52.2089 79.0079 52.2089 75.1907C52.2089 73.0728 52.6818 71.0781 53.5339 69.2901L66 43.0182L78.4661 69.2901Z" fill="white"/>
</g>
<g id="Group_4">
<g id="Group_5">
<path id="Vector_4" d="M65.9802 119.214C38.994 119.214 16.096 99.0542 12.727 72.3193C12.6925 72.0484 12.8846 71.8021 13.1555 71.7677C13.4264 71.7381 13.6727 71.9253 13.7072 72.1962C17.017 98.4385 39.4915 118.229 65.9851 118.229C92.3112 118.229 114.766 98.5765 118.219 72.5212C118.253 72.2503 118.499 72.0582 118.77 72.0977C119.041 72.1321 119.228 72.3833 119.194 72.6493C115.677 99.1971 92.7988 119.214 65.9802 119.214Z" fill="white"/>
<path id="Vector_5" d="M13.2147 60.2324C13.195 60.2324 13.1753 60.2324 13.1507 60.2275C12.8798 60.193 12.6877 59.9468 12.7221 59.6759C16.096 32.9409 38.9892 12.7814 65.9753 12.7814C92.7939 12.7814 115.672 32.7981 119.184 59.3458C119.219 59.6167 119.031 59.863 118.76 59.8975C118.49 59.932 118.243 59.7448 118.209 59.4739C114.761 33.4138 92.3014 13.7664 65.9753 13.7664C39.4817 13.7664 17.0072 33.5566 13.6974 59.799C13.6727 60.0502 13.4609 60.2324 13.2147 60.2324Z" fill="white"/>
</g>
<g id="Group_6">
<path id="Vector_6" d="M69.2754 110.688C69.0192 110.688 68.8025 110.491 68.7828 110.23C68.7631 109.959 68.9651 109.723 69.236 109.703C80.3673 108.89 90.7056 103.935 98.3498 95.7542C106.033 87.5288 110.264 76.7964 110.264 65.537C110.264 42.2942 92.1192 22.8882 68.9552 21.3515C68.6843 21.3318 68.4774 21.1003 68.4971 20.8294C68.5168 20.5585 68.7533 20.3517 69.0192 20.3714C92.6955 21.9425 111.244 41.782 111.244 65.542C111.244 77.0526 106.92 88.0213 99.0689 96.4339C91.2573 104.802 80.6874 109.865 69.3098 110.693C69.3 110.688 69.2852 110.688 69.2754 110.688Z" fill="white"/>
<path id="Vector_7" d="M62.6458 110.683C62.636 110.683 62.6212 110.683 62.6113 110.683C51.2386 109.846 40.6786 104.777 32.8769 96.4142C25.0357 88.0066 20.7112 77.0427 20.7112 65.537C20.7112 41.4421 39.5409 21.583 63.5816 20.332C63.8525 20.3172 64.084 20.529 64.0988 20.7999C64.1136 21.0708 63.9018 21.3023 63.6309 21.317C40.1172 22.5435 21.6963 41.9691 21.6963 65.537C21.6963 76.7915 25.9222 87.519 33.596 95.7394C41.2303 103.92 51.5588 108.88 62.6852 109.698C62.9561 109.718 63.158 109.954 63.1383 110.225C63.1186 110.486 62.9019 110.683 62.6458 110.683Z" fill="white"/>
</g>
<path id="Vector_8" d="M13.2049 68.4627C12.4858 68.4627 11.8061 68.1819 11.2889 67.6697C10.7718 67.1525 10.4861 66.4679 10.4861 65.734C10.4861 64.2318 11.7125 63.0054 13.2147 63.0054C14.717 63.0054 15.9434 64.2318 15.9434 65.734C15.9434 67.2363 14.717 68.4627 13.2147 68.4627C13.2098 68.4627 13.2098 68.4627 13.2049 68.4627ZM13.2147 63.9904C12.2543 63.9904 11.4712 64.7736 11.4712 65.734C11.4712 66.2019 11.6534 66.6403 11.9834 66.9752C12.3134 67.3052 12.7419 67.4678 13.2098 67.4776C14.1752 67.4776 14.9534 66.6945 14.9534 65.734C14.9534 64.7736 14.1752 63.9904 13.2147 63.9904Z" fill="white"/>
<path id="Vector_9" d="M119.041 68.2411C117.677 68.2411 116.569 67.1329 116.569 65.7686C116.569 64.4042 117.677 63.296 119.041 63.296C120.406 63.296 121.514 64.4042 121.514 65.7686C121.514 67.1329 120.406 68.2411 119.041 68.2411ZM119.041 64.2811C118.219 64.2811 117.554 64.946 117.554 65.7686C117.554 66.5911 118.224 67.256 119.041 67.256C119.859 67.256 120.529 66.5911 120.529 65.7686C120.529 64.946 119.864 64.2811 119.041 64.2811Z" fill="white"/>
</g>
<path id="Vector_10" d="M18.2929 89.6418C18.1205 89.6418 17.958 89.5532 17.8644 89.3955C17.7265 89.1591 17.8102 88.8587 18.0417 88.7208L109.442 35.8026C109.678 35.6646 109.979 35.7484 110.117 35.9799C110.255 36.2114 110.171 36.5167 109.939 36.6546L18.5392 89.5778C18.4604 89.6221 18.3766 89.6418 18.2929 89.6418Z" fill="white"/>
</g>
</g>
<defs>
<clipPath id="clip0_1_1030">
<rect width="132" height="132" fill="white"/>
</clipPath>
</defs>
</svg>
