<svg width="132" height="132" viewBox="0 0 132 132" fill="none" xmlns="http://www.w3.org/2000/svg">
<g id="graphic-05" clip-path="url(#clip0_1_1233)">
<g id="Group">
<g id="Group_2">
<path id="Vector" d="M66 132C102.451 132 132 102.451 132 66C132 29.5492 102.451 0 66 0C29.5492 0 0 29.5492 0 66C0 102.451 29.5492 132 66 132Z" fill="#D4AAED"/>
</g>
<g id="Group_3">
<g id="Group_4">
<g id="Group_5">
<path id="Vector_2" d="M65.9802 119.214C38.994 119.214 16.096 99.0542 12.727 72.3193C12.6925 72.0484 12.8846 71.8021 13.1555 71.7677C13.4264 71.7381 13.6727 71.9253 13.7072 72.1962C17.017 98.4385 39.4915 118.229 65.9851 118.229C92.3112 118.229 114.766 98.5765 118.219 72.5212C118.253 72.2503 118.499 72.0582 118.77 72.0977C119.041 72.1321 119.228 72.3833 119.194 72.6493C115.677 99.1971 92.7988 119.214 65.9802 119.214Z" fill="white"/>
<path id="Vector_3" d="M13.2147 60.2324C13.195 60.2324 13.1753 60.2324 13.1507 60.2275C12.8798 60.193 12.6877 59.9468 12.7221 59.6759C16.096 32.9409 38.9892 12.7814 65.9753 12.7814C92.7939 12.7814 115.672 32.7981 119.184 59.3458C119.219 59.6167 119.031 59.863 118.76 59.8975C118.49 59.932 118.243 59.7448 118.209 59.4739C114.761 33.4138 92.3014 13.7664 65.9753 13.7664C39.4817 13.7664 17.0072 33.5566 13.6974 59.799C13.6727 60.0502 13.4609 60.2324 13.2147 60.2324Z" fill="white"/>
</g>
<g id="Group_6">
<path id="Vector_4" d="M69.2754 110.688C69.0192 110.688 68.8025 110.491 68.7828 110.23C68.7631 109.959 68.9651 109.723 69.236 109.703C80.3673 108.89 90.7056 103.935 98.3498 95.7542C106.033 87.5288 110.264 76.7964 110.264 65.537C110.264 42.2942 92.1192 22.8882 68.9552 21.3515C68.6843 21.3318 68.4774 21.1003 68.4971 20.8294C68.5168 20.5585 68.7533 20.3517 69.0192 20.3714C92.6955 21.9425 111.244 41.782 111.244 65.542C111.244 77.0526 106.92 88.0213 99.0689 96.4339C91.2573 104.802 80.6874 109.865 69.3098 110.693C69.3 110.688 69.2852 110.688 69.2754 110.688Z" fill="white"/>
<path id="Vector_5" d="M62.6458 110.683C62.636 110.683 62.6212 110.683 62.6113 110.683C51.2386 109.846 40.6786 104.777 32.8769 96.4142C25.0357 88.0066 20.7112 77.0427 20.7112 65.537C20.7112 41.4421 39.5409 21.583 63.5816 20.332C63.8525 20.3172 64.084 20.529 64.0988 20.7999C64.1136 21.0708 63.9018 21.3023 63.6309 21.317C40.1172 22.5435 21.6963 41.9691 21.6963 65.537C21.6963 76.7915 25.9222 87.519 33.596 95.7394C41.2303 103.92 51.5588 108.88 62.6852 109.698C62.9561 109.718 63.158 109.954 63.1383 110.225C63.1186 110.486 62.9019 110.683 62.6458 110.683Z" fill="white"/>
</g>
<path id="Vector_6" d="M13.2049 68.4627C12.4858 68.4627 11.8061 68.1819 11.2889 67.6697C10.7718 67.1525 10.4861 66.4679 10.4861 65.734C10.4861 64.2318 11.7125 63.0054 13.2147 63.0054C14.717 63.0054 15.9434 64.2318 15.9434 65.734C15.9434 67.2363 14.717 68.4627 13.2147 68.4627C13.2098 68.4627 13.2098 68.4627 13.2049 68.4627ZM13.2147 63.9904C12.2543 63.9904 11.4712 64.7736 11.4712 65.734C11.4712 66.2019 11.6534 66.6403 11.9834 66.9752C12.3134 67.3052 12.7419 67.4678 13.2098 67.4776C14.1752 67.4776 14.9534 66.6945 14.9534 65.734C14.9534 64.7736 14.1752 63.9904 13.2147 63.9904Z" fill="white"/>
<path id="Vector_7" d="M119.041 68.2411C117.677 68.2411 116.569 67.1329 116.569 65.7686C116.569 64.4042 117.677 63.296 119.041 63.296C120.406 63.296 121.514 64.4042 121.514 65.7686C121.514 67.1329 120.406 68.2411 119.041 68.2411ZM119.041 64.2811C118.219 64.2811 117.554 64.946 117.554 65.7686C117.554 66.5911 118.224 67.256 119.041 67.256C119.859 67.256 120.529 66.5911 120.529 65.7686C120.529 64.946 119.864 64.2811 119.041 64.2811Z" fill="white"/>
</g>
</g>
<g id="Group_7">
<g id="Group_8">
<g id="Group_9">
<path id="Vector_8" d="M66 95.1385C49.9334 95.1385 36.8566 82.0666 36.8566 66C36.8566 49.9335 49.9285 36.8615 66 36.8615C82.0666 36.8615 95.1385 49.9335 95.1385 66C95.1385 82.0666 82.0666 95.1385 66 95.1385ZM66 39.7232C51.5096 39.7232 39.7231 51.5096 39.7231 66C39.7231 80.4905 51.5096 92.2769 66 92.2769C80.4904 92.2769 92.2769 80.4905 92.2769 66C92.2769 51.5096 80.4904 39.7232 66 39.7232Z" fill="white"/>
<path id="Vector_9" d="M66 95.7296C49.6034 95.7296 36.2655 82.3916 36.2655 66C36.2655 49.6084 49.6034 36.2704 66 36.2704C82.3916 36.2704 95.7295 49.6084 95.7295 66C95.7295 82.3916 82.3916 95.7296 66 95.7296ZM66 37.4525C50.2585 37.4525 37.4476 50.2585 37.4476 66C37.4476 81.7415 50.2536 94.5475 66 94.5475C81.7415 94.5475 94.5474 81.7415 94.5474 66C94.5474 50.2585 81.7415 37.4525 66 37.4525ZM66 92.8679C51.1845 92.8679 39.1321 80.8155 39.1321 66C39.1321 51.1845 51.1845 39.1321 66 39.1321C80.8155 39.1321 92.8679 51.1845 92.8679 66C92.8679 80.8155 80.8155 92.8679 66 92.8679ZM66 40.3142C51.8346 40.3142 40.3142 51.8346 40.3142 66C40.3142 80.1654 51.8346 91.6858 66 91.6858C80.1654 91.6858 91.6858 80.1654 91.6858 66C91.6858 51.8346 80.1654 40.3142 66 40.3142Z" fill="white"/>
</g>
</g>
<g id="Group_10">
<g id="Group_11">
<path id="Vector_10" d="M57.1521 48.1352L54.9469 49.4084L56.8333 52.6757L59.0385 51.4024L57.1521 48.1352Z" fill="white"/>
<path id="Vector_11" d="M56.8338 53.2679C56.7846 53.2679 56.7304 53.263 56.6811 53.2482C56.5284 53.2088 56.4004 53.1103 56.3216 52.9724L54.4352 49.7069C54.2726 49.4261 54.3711 49.0616 54.6519 48.8991L56.8584 47.6284C56.9914 47.5496 57.154 47.5299 57.3066 47.5693C57.4593 47.6087 57.5874 47.7072 57.6662 47.8451L59.5526 51.1106C59.6314 51.2485 59.6511 51.4061 59.6117 51.5588C59.5723 51.7115 59.4738 51.8396 59.3359 51.9184L57.1293 53.1891C57.0407 53.2384 56.9372 53.2679 56.8338 53.2679ZM55.7552 49.6231L57.0505 51.8691L58.2326 51.1845L56.9372 48.9385L55.7552 49.6231Z" fill="white"/>
</g>
</g>
<g id="Group_12">
<g id="Group_13">
<path id="Vector_12" d="M49.4044 54.9555L48.1312 57.1607L51.3985 59.0471L52.6717 56.8419L49.4044 54.9555Z" fill="white"/>
<path id="Vector_13" d="M51.4011 59.6364C51.3026 59.6364 51.1992 59.6118 51.1056 59.5576L47.8401 57.6712C47.5594 57.5086 47.4609 57.1491 47.6234 56.8634L48.8941 54.6568C48.9729 54.5189 49.101 54.4204 49.2537 54.381C49.4064 54.3416 49.564 54.3613 49.7019 54.4401L52.9674 56.3266C53.2482 56.4891 53.3467 56.8486 53.1841 57.1343L51.9134 59.3409C51.8001 59.533 51.6031 59.6364 51.4011 59.6364ZM48.9385 56.9471L51.1844 58.2425L51.8641 57.0604L49.6231 55.7651L48.9385 56.9471Z" fill="white"/>
</g>
</g>
<g id="Group_14">
<g id="Group_15">
<path id="Vector_14" d="M49.8793 64.7244H46.1064V67.2708H49.8793V64.7244Z" fill="white"/>
<path id="Vector_15" d="M49.8793 67.8618H46.1064C45.7813 67.8618 45.5154 67.5958 45.5154 67.2708V64.7243C45.5154 64.3993 45.7813 64.1333 46.1064 64.1333H49.8793C50.2043 64.1333 50.4703 64.3993 50.4703 64.7243V67.2708C50.4703 67.5958 50.2043 67.8618 49.8793 67.8618ZM46.6975 66.6797H49.2882V65.3154H46.6975V66.6797Z" fill="white"/>
</g>
</g>
<g id="Group_16">
<g id="Group_17">
<path id="Vector_16" d="M51.4013 72.95L48.1344 74.8372L49.4081 77.0422L52.675 75.155L51.4013 72.95Z" fill="white"/>
<path id="Vector_17" d="M49.4113 77.6337C49.2093 77.6337 49.0074 77.5303 48.899 77.3382L47.6234 75.1316C47.5446 74.9937 47.5249 74.8361 47.5643 74.6834C47.6037 74.5308 47.7022 74.4027 47.8401 74.3239L51.1056 72.4375C51.3863 72.2749 51.7508 72.3734 51.9134 72.6542L53.189 74.8608C53.2678 74.9987 53.2875 75.1563 53.2481 75.309C53.2087 75.4616 53.1102 75.5897 52.9723 75.6685L49.7068 77.5549C49.6132 77.6091 49.5098 77.6337 49.4113 77.6337ZM48.9434 75.0528L49.628 76.2349L51.869 74.9396L51.1844 73.7575L48.9434 75.0528Z" fill="white"/>
</g>
</g>
<g id="Group_18">
<g id="Group_19">
<path id="Vector_18" d="M56.8279 79.3205L54.9423 82.5882L57.1477 83.8609L59.0334 80.5932L56.8279 79.3205Z" fill="white"/>
<path id="Vector_19" d="M57.1491 84.4504C57.0456 84.4504 56.9422 84.4258 56.8535 84.3716L54.647 83.1009C54.5091 83.0221 54.4105 82.894 54.3711 82.7413C54.3317 82.5886 54.3514 82.431 54.4302 82.2931L56.3167 79.0276C56.3955 78.8897 56.5235 78.7912 56.6762 78.7518C56.8289 78.7124 56.9865 78.7321 57.1244 78.8109L59.331 80.0816C59.6117 80.2441 59.7102 80.6037 59.5477 80.8894L57.6613 84.1549C57.5825 84.2928 57.4544 84.3913 57.3017 84.4307C57.2525 84.4455 57.2032 84.4504 57.1491 84.4504ZM55.7502 82.3719L56.9323 83.0516L58.2277 80.8056L57.0456 80.1259L55.7502 82.3719Z" fill="white"/>
</g>
</g>
<g id="Group_20">
<g id="Group_21">
<path id="Vector_20" d="M67.2708 82.1208H64.7244V85.8936H67.2708V82.1208Z" fill="white"/>
<path id="Vector_21" d="M67.2708 86.4846H64.7243C64.3993 86.4846 64.1333 86.2187 64.1333 85.8936V82.1208C64.1333 81.7957 64.3993 81.5297 64.7243 81.5297H67.2708C67.5958 81.5297 67.8618 81.7957 67.8618 82.1208V85.8936C67.8618 86.2187 67.5958 86.4846 67.2708 86.4846ZM65.3154 85.3026H66.6797V82.7118H65.3154V85.3026Z" fill="white"/>
</g>
</g>
<g id="Group_22">
<g id="Group_23">
<path id="Vector_22" d="M75.158 79.3217L72.9528 80.5949L74.8392 83.8622L77.0444 82.589L75.158 79.3217Z" fill="white"/>
<path id="Vector_23" d="M74.841 84.4554C74.6341 84.4554 74.4371 84.3519 74.3287 84.1598L72.4423 80.8943C72.3635 80.7564 72.3438 80.5988 72.3832 80.4461C72.4226 80.2934 72.5211 80.1654 72.659 80.0866L74.8656 78.8158C75.1464 78.6533 75.5108 78.7469 75.6734 79.0325L77.5598 82.298C77.6386 82.436 77.6583 82.5936 77.6189 82.7463C77.5795 82.8989 77.481 83.027 77.3431 83.1058L75.1365 84.3765C75.0429 84.4307 74.9395 84.4554 74.841 84.4554ZM73.7623 80.8155L75.0577 83.0566L76.2398 82.3719L74.9444 80.1309L73.7623 80.8155Z" fill="white"/>
</g>
</g>
<g id="Group_24">
<g id="Group_25">
<path id="Vector_24" d="M80.5955 72.9631L79.3218 75.168L82.5887 77.0552L83.8624 74.8503L80.5955 72.9631Z" fill="white"/>
<path id="Vector_25" d="M82.5886 77.6436C82.4852 77.6436 82.3818 77.619 82.2931 77.5648L79.0276 75.6784C78.7469 75.5158 78.6483 75.1514 78.8109 74.8706L80.0866 72.6641C80.1654 72.5261 80.2934 72.4276 80.4461 72.3882C80.5988 72.3488 80.7564 72.3685 80.8943 72.4473L84.1598 74.3338C84.4406 74.4963 84.5391 74.8608 84.3766 75.1415L83.1009 77.3481C83.0221 77.486 82.894 77.5845 82.7413 77.6239C82.6921 77.6387 82.6379 77.6436 82.5886 77.6436ZM80.1309 74.9494L82.3719 76.2448L83.0516 75.0627L80.8106 73.7673L80.1309 74.9494Z" fill="white"/>
</g>
</g>
<g id="Group_26">
<g id="Group_27">
<path id="Vector_26" d="M87.1644 67.2757H82.1159V64.7293H84.5736C83.9481 55.4745 76.5256 48.0569 67.2708 47.4264V49.8842H64.7244V44.8307H66C77.6732 44.8307 87.1644 54.3269 87.1644 66V67.2757Z" fill="white"/>
<path id="Vector_27" d="M87.1643 67.8667H82.1158C81.7908 67.8667 81.5248 67.6007 81.5248 67.2757V64.7292C81.5248 64.4042 81.7908 64.1382 82.1158 64.1382H83.9284C83.0566 55.701 76.3039 48.9434 67.8618 48.0716V49.8842C67.8618 50.2092 67.5958 50.4752 67.2708 50.4752H64.7243C64.3993 50.4752 64.1333 50.2092 64.1333 49.8842V44.8307C64.1333 44.5057 64.3993 44.2397 64.7243 44.2397H66C77.9982 44.2397 87.7554 54.0018 87.7554 66V67.2757C87.7554 67.6007 87.4894 67.8667 87.1643 67.8667ZM82.7069 66.6846H86.5733V66C86.5733 54.6519 77.3431 45.4218 66 45.4218H65.3154V49.2931H66.6797V47.4264C66.6797 47.2639 66.7487 47.1063 66.8669 46.993C66.9851 46.8797 67.1476 46.8206 67.3102 46.8354C76.8457 47.4855 84.5194 55.1592 85.1646 64.6898C85.1745 64.8524 85.1203 65.0149 85.007 65.1331C84.8937 65.2513 84.7411 65.3203 84.5736 65.3203H82.7069V66.6846Z" fill="white"/>
</g>
</g>
<g id="Group_28">
<g id="Group_29">
<path id="Vector_28" d="M73.7526 67.2757H64.7244V54.0954H67.2757V64.7244H73.7526V67.2757Z" fill="white"/>
<path id="Vector_29" d="M73.7526 67.8667H64.7243C64.3993 67.8667 64.1333 67.6007 64.1333 67.2757V54.0954C64.1333 53.7703 64.3993 53.5043 64.7243 53.5043H67.2757C67.6008 53.5043 67.8667 53.7703 67.8667 54.0954V64.1333H73.7526C74.0776 64.1333 74.3436 64.3993 74.3436 64.7243V67.2757C74.3436 67.6007 74.0776 67.8667 73.7526 67.8667ZM65.3154 66.6846H73.1615V65.3154H67.2757C66.9506 65.3154 66.6846 65.0494 66.6846 64.7243V54.6864H65.3154V66.6846Z" fill="white"/>
</g>
</g>
</g>
</g>
</g>
<defs>
<clipPath id="clip0_1_1233">
<rect width="132" height="132" fill="white"/>
</clipPath>
</defs>
</svg>
