<svg width="132" height="132" viewBox="0 0 132 132" fill="none" xmlns="http://www.w3.org/2000/svg">
<g clip-path="url(#clip0_67_980)">
<path d="M66 132C102.451 132 132 102.451 132 66C132 29.5492 102.451 0 66 0C29.5492 0 0 29.5492 0 66C0 102.451 29.5492 132 66 132Z" fill="#E50014"/>
<path d="M97.7983 42.4961C101.62 48.1553 103.66 59.3113 103.66 66.6551C103.66 86.2383 87.7801 102.118 68.1968 102.118C60.2226 102.118 46.7074 99.0788 40.7871 94.641L70.7137 131.695C101.325 129.739 123.528 107.309 129.818 83.1551L97.7983 42.4961Z" fill="#B4111D"/>
<path d="M67.0687 96.3206C66.1378 96.3206 65.3892 95.567 65.3892 94.6411V87.4549C65.3892 86.524 66.1427 85.7754 67.0687 85.7754C67.9996 85.7754 68.7483 86.529 68.7483 87.4549V94.6411C68.7483 95.567 67.9947 96.3206 67.0687 96.3206Z" fill="white"/>
<path d="M67.0687 46.2345C66.1378 46.2345 65.3892 45.4809 65.3892 44.5549V37.0536C65.3892 36.1227 66.1427 35.374 67.0687 35.374C67.9996 35.374 68.7483 36.1276 68.7483 37.0536V44.5549C68.7483 45.4809 67.9947 46.2345 67.0687 46.2345Z" fill="white"/>
<path d="M95.281 67.6843H88.8534C87.9225 67.6843 87.1738 66.9307 87.1738 66.0047C87.1738 65.0738 87.9274 64.3252 88.8534 64.3252H95.281C96.2119 64.3252 96.9605 65.0788 96.9605 66.0047C96.9605 66.9307 96.207 67.6843 95.281 67.6843Z" fill="white"/>
<path d="M67.0687 104.575C52.4994 104.575 39.329 96.5125 32.6896 83.5292C32.266 82.7017 32.596 81.692 33.4235 81.2684C34.2559 80.8498 35.2656 81.1749 35.6842 82.0023C41.7424 93.8528 53.7702 101.216 67.0687 101.216C86.4845 101.216 102.285 85.4205 102.285 66.0047C102.285 46.5889 86.4894 30.7883 67.0687 30.7883C53.7702 30.7883 41.7473 38.1517 35.6842 50.0022C35.2606 50.8296 34.246 51.1596 33.4235 50.7361C32.596 50.3125 32.2709 49.3028 32.6896 48.4753C39.329 35.492 52.4994 27.4292 67.0687 27.4292C88.3414 27.4292 105.644 44.737 105.644 66.0096C105.644 87.2725 88.3365 104.575 67.0687 104.575Z" fill="white"/>
<path d="M67.0686 67.6842C66.6204 67.6842 66.1968 67.5069 65.8816 67.1917L49.6476 50.9577C48.9925 50.3026 48.9925 49.2387 49.6476 48.5787C50.3026 47.9236 51.3665 47.9236 52.0265 48.5787L67.0735 63.6257L76.215 54.4842C76.8701 53.8292 77.934 53.8292 78.594 54.4842C79.2491 55.1393 79.2491 56.2032 78.594 56.8632L68.2655 67.1966C67.9404 67.5069 67.5119 67.6842 67.0686 67.6842Z" fill="white"/>
<path d="M62.6407 72.1072C62.2122 72.1072 61.7788 71.9446 61.4537 71.6146C60.7986 70.9596 60.7986 69.8957 61.4537 69.2357L67.3592 63.3302C68.0143 62.6751 69.0782 62.6751 69.7382 63.3302C70.3933 63.9852 70.3933 65.0491 69.7382 65.7091L63.8327 71.6146C63.5027 71.9446 63.0692 72.1072 62.6407 72.1072Z" fill="white"/>
<path d="M71.4964 72.1072C71.0679 72.1072 70.6345 71.9446 70.3094 71.6146L64.4039 65.7091C63.7488 65.0541 63.7488 63.9902 64.4039 63.3302C65.059 62.6751 66.1229 62.6751 66.7829 63.3302L72.6884 69.2357C73.3435 69.8908 73.3435 70.9546 72.6884 71.6146C72.3535 71.9446 71.925 72.1072 71.4964 72.1072Z" fill="white"/>
<path d="M35.64 67.7136H16.7611C15.8302 67.7136 15.0815 66.96 15.0815 66.034C15.0815 65.1032 15.8351 64.3545 16.7611 64.3545H35.64C36.5709 64.3545 37.3196 65.1081 37.3196 66.034C37.3196 66.9649 36.566 67.7136 35.64 67.7136Z" fill="white"/>
<path d="M40.787 58.0798H21.9081C20.9772 58.0798 20.2285 57.3262 20.2285 56.4003C20.2285 55.4743 20.9821 54.7207 21.9081 54.7207H40.787C41.7179 54.7207 42.4666 55.4743 42.4666 56.4003C42.4666 57.3262 41.7179 58.0798 40.787 58.0798Z" fill="white"/>
<path d="M40.787 77.2839H21.9081C20.9772 77.2839 20.2285 76.5303 20.2285 75.6044C20.2285 74.6735 20.9821 73.9248 21.9081 73.9248H40.787C41.7179 73.9248 42.4666 74.6784 42.4666 75.6044C42.4666 76.5303 41.7179 77.2839 40.787 77.2839Z" fill="white"/>
</g>
<defs>
<clipPath id="clip0_67_980">
<rect width="132" height="132" fill="white"/>
</clipPath>
</defs>
</svg>
