<svg width="132" height="132" viewBox="0 0 132 132" fill="none" xmlns="http://www.w3.org/2000/svg">
<g clip-path="url(#clip0_67_935)">
<path d="M66 132C102.451 132 132 102.451 132 66C132 29.5492 102.451 0 66 0C29.5492 0 0 29.5492 0 66C0 102.451 29.5492 132 66 132Z" fill="#E50014"/>
<path d="M131.719 71.0486L103.876 35.2461L102.295 76.5404L89.6418 89.6961L85.534 94.3456L84.938 107.147L46.791 107.216L66 132C67.7485 132.005 65.7586 132.005 66.7141 131.995C101.359 131.675 129.419 104.965 131.719 71.0486Z" fill="#B4111D"/>
<path d="M65.9999 77.146C65.069 77.146 64.3203 76.3924 64.3203 75.4664V43.9046C64.3203 42.9738 65.0739 42.2251 65.9999 42.2251C66.9308 42.2251 67.6794 42.9787 67.6794 43.9046V75.4615C67.6794 76.3924 66.9308 77.146 65.9999 77.146Z" fill="white"/>
<path d="M66.0002 70.8365C65.4683 70.8365 64.9462 70.5853 64.6211 70.1174C64.0892 69.3589 64.2763 68.3098 65.0348 67.7779C70.5168 63.9459 73.7823 57.6809 73.7823 51.0119C73.7823 44.7419 70.8911 38.8265 65.9953 34.9601C61.0945 38.8265 58.2083 44.7419 58.2083 51.0119C58.2083 55.5925 59.7598 60.0795 62.582 63.6504C63.1583 64.3794 63.0302 65.4383 62.3062 66.0097C61.5772 66.5859 60.5183 66.4579 59.942 65.7289C56.6568 61.567 54.8442 56.3412 54.8442 51.007C54.8442 43.2397 58.6516 35.9403 65.0299 31.4828C65.6111 31.0839 66.3795 31.0839 66.9557 31.4828C73.3341 35.9452 77.1414 43.2446 77.1414 51.007C77.1414 58.7694 73.3341 66.0688 66.9557 70.5312C66.6701 70.738 66.3351 70.8365 66.0002 70.8365Z" fill="white"/>
<path d="M66.0002 107.127C65.0693 107.127 64.3206 106.373 64.3206 105.447V91.942C64.3206 86.9329 62.2766 82.042 58.7057 78.5302L50.4754 70.4181C50.3572 70.2999 50.2587 70.1669 50.1799 70.0241L43.5208 57.824C43.112 57.0802 42.3683 56.6369 41.5408 56.6369C40.2947 56.6369 39.2751 57.6516 39.2751 58.8977C39.2751 59.2572 39.3736 59.6119 39.5706 59.996L49.0274 77.3334C49.4706 78.146 49.1702 79.1705 48.3575 79.6138C47.5448 80.062 46.5203 79.7616 46.0771 78.944L36.6105 61.5869C36.1475 60.7053 35.916 59.8089 35.916 58.9026C35.916 55.7996 38.4378 53.2778 41.5408 53.2778C43.5848 53.2778 45.4712 54.4057 46.4711 56.2134L53.012 68.1968L61.065 76.1365C65.2663 80.2787 67.6798 86.0414 67.6798 91.9469V105.452C67.6798 106.378 66.9311 107.127 66.0002 107.127Z" fill="white"/>
<path d="M43.9098 51.8987C42.9789 51.8987 42.2302 51.1451 42.2302 50.2191V37.5954C42.2302 35.0785 40.2059 33.0197 37.7038 32.9655V38.1618C37.7038 39.0927 36.9502 39.8414 36.0243 39.8414C35.0983 39.8414 34.3447 39.0878 34.3447 38.1618V31.286C34.3447 30.3551 35.0983 29.6064 36.0243 29.6064H37.6004C42.0086 29.6064 45.5943 33.1921 45.5943 37.5954V50.2191C45.5894 51.15 44.8407 51.8987 43.9098 51.8987Z" fill="white"/>
<path d="M50.2189 58.2132C49.288 58.2132 48.5394 57.4596 48.5394 56.5336V43.905C48.5394 41.3536 46.4609 39.2751 43.9095 39.2751C42.9786 39.2751 42.23 38.5215 42.23 37.5956C42.23 36.6647 42.9836 35.916 43.9095 35.916C48.3177 35.916 51.9034 39.5017 51.9034 43.905V56.5287C51.9034 57.4596 51.1498 58.2132 50.2189 58.2132Z" fill="white"/>
<path d="M47.0669 107.127C46.136 107.127 45.3873 106.373 45.3873 105.447V97.0153C45.3873 95.779 44.9046 94.6166 44.0279 93.7399L31.7539 81.4659C29.3503 79.0623 28.0254 75.8657 28.0254 72.4672V36.0145C28.0254 35.0836 28.779 34.335 29.7049 34.335H31.2811C35.6893 34.335 39.2749 37.9206 39.2749 42.3288V50.2193C39.2749 51.1502 38.5214 51.8988 37.5954 51.8988C36.6645 51.8988 35.9158 51.1453 35.9158 50.2193V42.3288C35.9158 39.812 33.8964 37.7532 31.3894 37.6941V72.4623C31.3894 74.9644 32.3646 77.3138 34.1329 79.0869L46.4069 91.3609C47.919 92.873 48.7464 94.8826 48.7464 97.0153V105.447C48.7464 106.378 47.9929 107.127 47.0669 107.127Z" fill="white"/>
<path d="M65.9999 107.127C65.069 107.127 64.3203 106.373 64.3203 105.447V91.9421C64.3203 86.0365 66.7288 80.2788 70.9351 76.1316L78.9881 68.1919L85.529 56.2134C86.5288 54.3959 88.4202 53.2729 90.4593 53.2729C93.5623 53.2729 96.084 55.7947 96.084 58.8977C96.084 59.8089 95.8526 60.7053 95.3994 61.5623L85.923 78.9391C85.4797 79.7567 84.4503 80.0571 83.6426 79.6089C82.8249 79.1656 82.5245 78.1461 82.9727 77.3285L92.4393 59.9715C92.6264 59.6168 92.7249 59.2573 92.7249 58.8977C92.7249 57.6516 91.7103 56.637 90.4593 56.637C89.6318 56.637 88.8881 57.0852 88.4743 57.8338L81.8202 70.0241C81.7414 70.167 81.6429 70.3 81.5246 70.4182L73.2943 78.5303C69.7284 82.0421 67.6843 86.9329 67.6843 91.9421V105.447C67.6794 106.378 66.9308 107.127 65.9999 107.127Z" fill="white"/>
<path d="M88.0902 51.8987C87.1593 51.8987 86.4106 51.1451 86.4106 50.2191V37.5954C86.4106 33.1872 89.9963 29.6064 94.4045 29.6064H95.9806C96.9115 29.6064 97.6602 30.36 97.6602 31.286V38.1667C97.6602 39.0976 96.9066 39.8463 95.9806 39.8463C95.0497 39.8463 94.3011 39.0927 94.3011 38.1667V32.9655C91.7941 33.0197 89.7747 35.0785 89.7747 37.5954V50.2191C89.7697 51.15 89.0211 51.8987 88.0902 51.8987Z" fill="white"/>
<path d="M81.7811 58.2132C80.8502 58.2132 80.1016 57.4596 80.1016 56.5336V43.905C80.1016 39.4968 83.6872 35.916 88.0905 35.916C89.0214 35.916 89.7701 36.6696 89.7701 37.5956C89.7701 38.5265 89.0165 39.2751 88.0905 39.2751C85.5392 39.2751 83.4607 41.3536 83.4607 43.905V56.5287C83.4607 57.4596 82.7071 58.2132 81.7811 58.2132Z" fill="white"/>
<path d="M84.933 107.127C84.0021 107.127 83.2534 106.373 83.2534 105.447V97.0153C83.2534 94.8826 84.0858 92.873 85.593 91.3609L97.867 79.0869C99.6352 77.3187 100.61 74.9644 100.61 72.4623V37.699C98.1034 37.7532 96.084 39.812 96.084 42.3338V50.2242C96.084 51.1551 95.3304 51.9038 94.4045 51.9038C93.4785 51.9038 92.7249 51.1502 92.7249 50.2242V42.3288C92.7249 37.9206 96.3106 34.335 100.719 34.335H102.295C103.226 34.335 103.974 35.0885 103.974 36.0145V72.4672C103.974 75.8657 102.65 79.0623 100.246 81.4659L87.9719 93.7399C87.1001 94.6166 86.6174 95.779 86.6174 97.0153V105.447C86.6174 106.378 85.8639 107.127 84.933 107.127Z" fill="white"/>
</g>
<defs>
<clipPath id="clip0_67_935">
<rect width="132" height="132" fill="white"/>
</clipPath>
</defs>
</svg>
