<svg width="132" height="132" viewBox="0 0 132 132" fill="none" xmlns="http://www.w3.org/2000/svg">
<g clip-path="url(#clip0_67_954)">
<path d="M65.5112 132C101.692 132 131.022 102.451 131.022 66C131.022 29.5492 101.692 0 65.5112 0C29.3304 0 0 29.5492 0 66C0 102.451 29.3304 132 65.5112 132Z" fill="#E50014"/>
<path d="M129.404 80.6236L99.8458 39.3096L97.5774 95.843L31.8804 97.6703L57.3271 131.488C58.9013 131.562 63.4284 131.985 64.2987 131.985C96.1156 131.99 123.009 110.388 129.404 80.6236Z" fill="#B4111D"/>
<path d="M98.0763 52.6475H32.9464C32.0224 52.6475 31.2793 51.8939 31.2793 50.9679V40.0336C31.2793 39.1027 32.0273 38.354 32.9464 38.354H40.4704C41.3944 38.354 42.1375 39.1076 42.1375 40.0336C42.1375 40.9645 41.3895 41.7132 40.4704 41.7132H34.6135V49.2884H96.4092V41.7082H91.9114C90.9874 41.7082 90.2443 40.9546 90.2443 40.0287C90.2443 39.0978 90.9923 38.3491 91.9114 38.3491H98.0763C99.0003 38.3491 99.7434 39.1027 99.7434 40.0287V50.963C99.7434 51.8939 99.0003 52.6475 98.0763 52.6475Z" fill="white"/>
<path d="M85.8639 45.1853C84.9399 45.1853 84.1968 44.4318 84.1968 43.5058V35.9256C84.1968 34.9948 84.9448 34.2461 85.8639 34.2461C86.7879 34.2461 87.531 34.9997 87.531 35.9256V43.5058C87.5359 44.4318 86.7879 45.1853 85.8639 45.1853Z" fill="white"/>
<path d="M46.7526 45.1853C45.8286 45.1853 45.0854 44.4318 45.0854 43.5058V35.9256C45.0854 34.9948 45.8334 34.2461 46.7526 34.2461C47.6766 34.2461 48.4197 34.9997 48.4197 35.9256V43.5058C48.4197 44.4318 47.6717 45.1853 46.7526 45.1853Z" fill="white"/>
<path d="M79.8163 41.7082H52.5607C51.6367 41.7082 50.8936 40.9546 50.8936 40.0287C50.8936 39.0978 51.6416 38.3491 52.5607 38.3491H79.8163C80.7403 38.3491 81.4834 39.1027 81.4834 40.0287C81.4883 40.9546 80.7403 41.7082 79.8163 41.7082Z" fill="white"/>
<path d="M98.0763 97.7587H32.9464C32.0224 97.7587 31.2793 97.0051 31.2793 96.0791V50.9676C31.2793 50.0367 32.0273 49.2881 32.9464 49.2881H98.0763C99.0003 49.2881 99.7434 50.0417 99.7434 50.9676V96.0791C99.7434 97.0051 99.0003 97.7587 98.0763 97.7587ZM34.6135 94.3947H96.4092V52.6472H34.6135V94.3947Z" fill="white"/>
<path d="M57.3273 64.3254H53.3722C52.4482 64.3254 51.7051 63.5718 51.7051 62.6459C51.7051 61.715 52.4531 60.9663 53.3722 60.9663H57.3273C58.2513 60.9663 58.9944 61.7199 58.9944 62.6459C58.9993 63.5718 58.2513 64.3254 57.3273 64.3254Z" fill="white"/>
<path d="M67.4865 64.3254H63.5314C62.6074 64.3254 61.8643 63.5718 61.8643 62.6459C61.8643 61.715 62.6123 60.9663 63.5314 60.9663H67.4865C68.4105 60.9663 69.1536 61.7199 69.1536 62.6459C69.1585 63.5718 68.4105 64.3254 67.4865 64.3254Z" fill="white"/>
<path d="M77.6506 64.3254H73.6954C72.7714 64.3254 72.0283 63.5718 72.0283 62.6459C72.0283 61.715 72.7763 60.9663 73.6954 60.9663H77.6506C78.5746 60.9663 79.3177 61.7199 79.3177 62.6459C79.3177 63.5718 78.5746 64.3254 77.6506 64.3254Z" fill="white"/>
<path d="M87.8097 64.3254H83.8546C82.9306 64.3254 82.1875 63.5718 82.1875 62.6459C82.1875 61.715 82.9355 60.9663 83.8546 60.9663H87.8097C88.7337 60.9663 89.4768 61.7199 89.4768 62.6459C89.4817 63.5718 88.7337 64.3254 87.8097 64.3254Z" fill="white"/>
<path d="M57.3273 74.5158H53.3722C52.4482 74.5158 51.7051 73.7623 51.7051 72.8363C51.7051 71.9054 52.4531 71.1567 53.3722 71.1567H57.3273C58.2513 71.1567 58.9944 71.9103 58.9944 72.8363C58.9993 73.7623 58.2513 74.5158 57.3273 74.5158Z" fill="white"/>
<path d="M47.1681 74.5158H43.213C42.289 74.5158 41.5459 73.7623 41.5459 72.8363C41.5459 71.9054 42.2939 71.1567 43.213 71.1567H47.1681C48.0921 71.1567 48.8352 71.9103 48.8352 72.8363C48.8352 73.7623 48.0872 74.5158 47.1681 74.5158Z" fill="white"/>
<path d="M47.1681 84.7116H43.213C42.289 84.7116 41.5459 83.9581 41.5459 83.0321C41.5459 82.1012 42.2939 81.3525 43.213 81.3525H47.1681C48.0921 81.3525 48.8352 82.1061 48.8352 83.0321C48.8352 83.9581 48.0872 84.7116 47.1681 84.7116Z" fill="white"/>
<path d="M67.4865 74.5158H63.5314C62.6074 74.5158 61.8643 73.7623 61.8643 72.8363C61.8643 71.9054 62.6123 71.1567 63.5314 71.1567H67.4865C68.4105 71.1567 69.1536 71.9103 69.1536 72.8363C69.1585 73.7623 68.4105 74.5158 67.4865 74.5158Z" fill="white"/>
<path d="M77.6506 74.5158H73.6954C72.7714 74.5158 72.0283 73.7623 72.0283 72.8363C72.0283 71.9054 72.7763 71.1567 73.6954 71.1567H77.6506C78.5746 71.1567 79.3177 71.9103 79.3177 72.8363C79.3177 73.7623 78.5746 74.5158 77.6506 74.5158Z" fill="white"/>
<path d="M87.8097 74.5158H83.8546C82.9306 74.5158 82.1875 73.7623 82.1875 72.8363C82.1875 71.9054 82.9355 71.1567 83.8546 71.1567H87.8097C88.7337 71.1567 89.4768 71.9103 89.4768 72.8363C89.4817 73.7623 88.7337 74.5158 87.8097 74.5158Z" fill="white"/>
<path d="M57.3273 84.7116H53.3722C52.4482 84.7116 51.7051 83.9581 51.7051 83.0321C51.7051 82.1012 52.4531 81.3525 53.3722 81.3525H57.3273C58.2513 81.3525 58.9944 82.1061 58.9944 83.0321C58.9993 83.9581 58.2513 84.7116 57.3273 84.7116Z" fill="white"/>
<path d="M67.4865 84.7116H63.5314C62.6074 84.7116 61.8643 83.9581 61.8643 83.0321C61.8643 82.1012 62.6123 81.3525 63.5314 81.3525H67.4865C68.4105 81.3525 69.1536 82.1061 69.1536 83.0321C69.1585 83.9581 68.4105 84.7116 67.4865 84.7116Z" fill="white"/>
<path d="M77.6506 84.7116H73.6954C72.7714 84.7116 72.0283 83.9581 72.0283 83.0321C72.0283 82.1012 72.7763 81.3525 73.6954 81.3525H77.6506C78.5746 81.3525 79.3177 82.1061 79.3177 83.0321C79.3177 83.9581 78.5746 84.7116 77.6506 84.7116Z" fill="white"/>
</g>
<defs>
<clipPath id="clip0_67_954">
<rect width="132" height="132" fill="white"/>
</clipPath>
</defs>
</svg>
