<svg width="132" height="132" viewBox="0 0 132 132" fill="none" xmlns="http://www.w3.org/2000/svg">
<g clip-path="url(#clip0_67_927)">
<path d="M66 132C102.451 132 132 102.451 132 66C132 29.5492 102.451 0 66 0C29.5492 0 0 29.5492 0 66C0 102.451 29.5492 132 66 132Z" fill="#E50014"/>
<path d="M127.237 89.7552L101.699 51.0713V81.8253H81.3377V102.187H50.5837V81.8253H30.2222L64.5865 132C65.0938 132 65.5863 132 65.9607 132C93.9516 132 117.84 114.451 127.237 89.7552Z" fill="#B4111D"/>
<path d="M81.3967 103.462H50.6082C49.6773 103.462 48.9286 102.709 48.9286 101.783V83.0762H30.222C29.2911 83.0762 28.5425 82.3226 28.5425 81.3967V50.6082C28.5425 49.6773 29.2961 48.9286 30.222 48.9286H48.9286V30.222C48.9286 29.2911 49.6822 28.5425 50.6082 28.5425H81.3967C82.3276 28.5425 83.0762 29.2961 83.0762 30.222V48.9286H101.783C102.714 48.9286 103.462 49.6822 103.462 50.6082V81.3967C103.462 82.3276 102.709 83.0762 101.783 83.0762H83.0762V101.783C83.0762 102.709 82.3226 103.462 81.3967 103.462ZM52.2877 100.098H79.7122V81.3917C79.7122 80.4608 80.4658 79.7122 81.3917 79.7122H100.098V52.2877H81.3917C80.4608 52.2877 79.7122 51.5341 79.7122 50.6082V31.9016H52.2877V50.6082C52.2877 51.539 51.5341 52.2877 50.6082 52.2877H31.9016V79.7122H50.6082C51.539 79.7122 52.2877 80.4658 52.2877 81.3917V100.098Z" fill="white"/>
</g>
<defs>
<clipPath id="clip0_67_927">
<rect width="132" height="132" fill="white"/>
</clipPath>
</defs>
</svg>
