<svg width="30" height="30" viewBox="0 0 30 30" fill="none" xmlns="http://www.w3.org/2000/svg">
<g id="notice-graphic">
<g id="Group">
<g id="Group_2">
<path id="Vector" d="M13.7037 28.7034C21.2721 28.7034 27.4075 22.568 27.4075 14.9996C27.4075 7.43127 21.2721 1.2959 13.7037 1.2959C6.13537 1.2959 0 7.43127 0 14.9996C0 22.568 6.13537 28.7034 13.7037 28.7034Z" fill="#FFAC58"/>
<path id="Vector_2" d="M12.3223 16.3202C13.1047 16.7814 14.1122 16.5228 14.5745 15.7393L17.757 10.3471C18.2182 9.56574 17.9584 8.55716 17.176 8.09597C16.3935 7.63366 15.3872 7.89448 14.926 8.67582L11.7435 14.068C11.2812 14.8516 11.5387 15.8579 12.3223 16.3202ZM11.3786 17.9187C10.5379 17.4228 9.45322 17.7004 8.95621 18.5422C8.46143 19.3818 8.74016 20.4665 9.58084 20.9635C10.4204 21.4594 11.5062 21.1796 12.001 20.34C12.4991 19.4982 12.2181 18.4146 11.3786 17.9187Z" fill="white"/>
</g>
<g id="Group_3">
<path id="Vector_3" d="M26.7883 16.207L29.8107 18.7705C30.1555 19.0626 30.0021 19.6234 29.5577 19.7007L24.4219 20.5951L26.7883 16.207Z" fill="#FFAC58"/>
</g>
</g>
</g>
</svg>
