<svg width="24" height="24" viewBox="0 0 24 24" fill="none" xmlns="http://www.w3.org/2000/svg">
<g clip-path="url(#clip0_42_957)">
<path d="M24 12C24 5.37224 18.6278 0 12 0C5.37224 0 0 5.37224 0 12C0 18.6278 5.37224 24 12 24C18.6278 24 24 18.6278 24 12Z" fill="#751055"/>
<path d="M5.77713 10.2116C4.78847 10.2116 3.98877 11.0122 3.98877 12.0008C3.98877 12.9886 4.78937 13.7892 5.77713 13.7892L18.2231 13.7883C19.2109 13.7883 20.0115 12.9886 20.0115 12.0008C20.0115 11.0122 19.2109 10.2116 18.2231 10.2116H5.77713Z" fill="white"/>
<path d="M11.6484 16.0451C10.9499 16.7445 10.9499 17.8755 11.6484 18.574C12.3469 19.2725 13.4788 19.2725 14.1773 18.574L19.4878 13.2645C20.1863 12.566 20.1863 11.434 19.4878 10.7355C18.7893 10.0361 17.6565 10.0361 16.9579 10.7355L11.6484 16.0451Z" fill="white"/>
<path d="M11.6484 7.95585C10.9499 7.25735 10.9499 6.12451 11.6484 5.426C12.3469 4.7275 13.4788 4.7275 14.1773 5.4269L19.4878 10.7356C20.1863 11.435 20.1863 12.5669 19.4878 13.2645C18.7893 13.9639 17.6565 13.9639 16.9579 13.2645L11.6484 7.95585Z" fill="white"/>
</g>
<defs>
<clipPath id="clip0_42_957">
<rect width="24" height="24" fill="white" transform="matrix(1 0 0 -1 0 24)"/>
</clipPath>
</defs>
</svg>
