<svg width="133" height="132" viewBox="0 0 133 132" fill="none" xmlns="http://www.w3.org/2000/svg">
<path d="M66.5 132C102.951 132 132.5 102.451 132.5 66C132.5 29.5492 102.951 0 66.5 0C30.0492 0 0.5 29.5492 0.5 66C0.5 102.451 30.0492 132 66.5 132Z" fill="white"/>
<path d="M88.024 97.1776C85.6598 92.9417 87.5807 89.5925 89.6493 86.0462C91.324 83.1402 91.7672 79.6432 90.7822 76.491C90.3389 75.0626 89.6001 73.8805 88.9105 72.6985C87.8762 70.9746 86.8419 69.3492 86.8419 67.1328C86.8419 64.9164 87.8269 63.291 88.9105 61.5671C89.6001 60.385 90.3389 59.2029 90.7822 57.7746C91.718 54.6223 91.324 51.1253 89.6493 48.2193L89.6001 48.1208C87.4822 44.5746 85.709 41.4716 87.8269 37.3835C88.1717 36.7432 88.5165 36.1522 88.812 35.5611C90.0434 33.394 91.1269 31.5223 91.2255 28.5671C91.2747 28.0746 91.0777 27.6805 90.7822 27.3358C90.4866 27.0895 90.0926 26.8925 89.6986 26.8925C88.812 26.8432 87.8762 27.385 87.7777 28.5179C87.6792 30.7343 86.7434 32.3596 85.709 34.0343C85.0195 35.2164 84.2807 36.4477 83.8374 37.9253C82.9016 41.1268 83.3449 44.6238 84.9702 47.4805C87.1374 51.2238 89.009 54.4253 86.5956 58.6119C86.3493 59.0059 86.1523 59.3999 85.906 59.794C84.5269 62.1089 83.3449 64.1283 83.3449 67.182C83.3449 70.2358 84.5269 72.2552 85.906 74.5701C86.1031 74.9641 86.3493 75.3089 86.5956 75.7522C89.009 79.988 87.0389 83.3373 84.9702 86.8835C83.3941 89.5432 82.9508 92.8432 83.6896 95.9955C84.0837 97.6208 84.8717 98.9507 85.6598 100.231C86.6941 101.955 87.6299 103.63 87.7284 105.846C87.7777 106.881 88.6643 107.422 89.5016 107.422C89.5508 107.422 89.5508 107.422 89.6001 107.422C90.3881 107.373 91.2255 106.831 91.1762 105.748C91.0284 102.546 89.8956 100.527 88.418 98.0149C88.3687 97.7193 88.221 97.4238 88.024 97.1776Z" fill="#751055"/>
<path d="M49.9016 37.9253C49.4584 36.4477 48.7196 35.2164 48.03 34.0343C46.9957 32.3596 46.0599 30.7343 45.9613 28.5179C45.9121 27.385 44.927 26.8432 44.0405 26.8925C43.5972 26.8925 43.2031 27.0895 42.9569 27.3358C42.6121 27.6313 42.4643 28.0746 42.5136 28.5671C42.6121 31.5223 43.6957 33.394 44.927 35.5611C45.2718 36.1522 45.5673 36.7432 45.9121 37.3835C48.03 41.4716 46.2569 44.5253 44.139 48.1208L44.0897 48.2193C42.4151 51.1253 41.9718 54.6223 42.9569 57.7746C43.4002 59.2029 44.139 60.385 44.8285 61.5671C45.8628 63.291 46.8972 64.9164 46.8972 67.1328C46.8972 69.3492 45.9121 70.9746 44.8285 72.6985C44.139 73.8805 43.4002 75.0626 42.9569 76.491C42.021 79.6432 42.4151 83.1402 44.0897 86.0462C46.1584 89.5925 48.0793 92.9417 45.7151 97.1776C45.5673 97.4731 45.4196 97.7193 45.2225 97.9656C43.7449 100.478 42.6121 102.448 42.4643 105.698C42.4151 106.782 43.2524 107.324 44.0897 107.373C44.139 107.373 44.139 107.373 44.1882 107.373C45.0255 107.373 45.9121 106.831 45.9613 105.797C46.0599 103.581 46.9957 101.955 48.03 100.182C48.8181 98.9014 49.6061 97.5223 50.0002 95.9462C50.7882 92.794 50.2957 89.494 48.7196 86.8343C46.6509 83.288 44.6807 79.9387 47.0942 75.7029C47.3404 75.3089 47.5375 74.9149 47.7837 74.5208C49.1628 72.2059 50.3449 70.1865 50.3449 67.1328C50.3449 64.079 49.1628 62.1089 47.7837 59.7447C47.5867 59.3507 47.3404 59.0059 47.0942 58.5626C44.6807 54.3761 46.5524 51.1746 48.7196 47.4313C50.3942 44.6238 50.7882 41.1268 49.9016 37.9253Z" fill="#751055"/>
<path d="M72.7556 63.3402H70.6377V61.2223C70.6377 60.188 69.8496 59.3999 68.8153 59.3999H64.875C63.8407 59.3999 63.0526 60.188 63.0526 61.2223V63.3402H60.9347C59.9004 63.3402 59.1123 64.1283 59.1123 65.1626V69.1029C59.1123 70.1372 59.9004 70.9253 60.9347 70.9253H63.0526V73.0432C63.0526 74.0775 63.8407 74.8656 64.875 74.8656H68.8153C69.8496 74.8656 70.6377 74.0775 70.6377 73.0432V70.9253H72.7556C73.7899 70.9253 74.578 70.1372 74.578 69.1029V65.1626C74.578 64.1283 73.7899 63.3402 72.7556 63.3402ZM63.7914 68.3148H61.6735V65.9014H63.8407C64.875 65.9014 65.6631 65.1133 65.6631 64.079V61.9611H68.0765V64.1283C68.0765 65.1626 68.8645 65.9506 69.8989 65.9506H72.0168V68.3148H69.8989C68.8645 68.3148 68.0765 69.1029 68.0765 70.1372L68.0272 72.2551H65.6138V70.1372C65.6138 69.1029 64.8257 68.3148 63.7914 68.3148Z" fill="#751055"/>
<path d="M72.7556 36.5463H70.6377V34.4283C70.6377 33.394 69.8496 32.606 68.8153 32.606H64.875C63.8407 32.606 63.0526 33.394 63.0526 34.4283V36.5463H60.9347C59.9004 36.5463 59.1123 37.3343 59.1123 38.3686V42.3089C59.1123 43.3433 59.9004 44.1313 60.9347 44.1313H63.0526V46.2492C63.0526 47.2836 63.8407 48.0716 64.875 48.0716H68.8153C69.8496 48.0716 70.6377 47.2836 70.6377 46.2492V44.1313H72.7556C73.7899 44.1313 74.578 43.3433 74.578 42.3089V38.3686C74.578 37.3836 73.7407 36.5463 72.7556 36.5463ZM63.7914 41.5209H61.6735V39.1075H63.8407C64.875 39.1075 65.6631 38.3194 65.6631 37.2851V35.1672H68.0765V37.3343C68.0765 38.3686 68.8645 39.1567 69.8989 39.1567H72.0168V41.5209H69.8989C68.8645 41.5209 68.0765 42.3089 68.0765 43.3433L68.0272 45.5104H65.6138V43.3433C65.6138 42.3089 64.8257 41.5209 63.7914 41.5209Z" fill="#751055"/>
<path d="M72.7556 90.0851H70.6377V87.9672C70.6377 86.9328 69.8496 86.1448 68.8153 86.1448H64.875C63.8407 86.1448 63.0526 86.9328 63.0526 87.9672V90.0851H60.9347C59.9004 90.0851 59.1123 90.8731 59.1123 91.9075V95.8478C59.1123 96.8821 59.9004 97.6702 60.9347 97.6702H63.0526V99.7881C63.0526 100.822 63.8407 101.61 64.875 101.61H68.8153C69.8496 101.61 70.6377 100.822 70.6377 99.7881V97.6702H72.7556C73.7899 97.6702 74.578 96.8821 74.578 95.8478V91.9075C74.578 90.8731 73.7899 90.0851 72.7556 90.0851ZM63.7914 95.0597H61.6735V92.6463H63.8407C64.875 92.6463 65.6631 91.8582 65.6631 90.8239V88.706H68.0765V90.8731C68.0765 91.9075 68.8645 92.6955 69.8989 92.6955H72.0168V95.0597H69.8989C68.8645 95.0597 68.0765 95.8478 68.0765 96.8821L68.0272 99H65.6138V96.8821C65.6138 95.8478 64.8257 95.0597 63.7914 95.0597Z" fill="#751055"/>
</svg>
