<svg width="133" height="132" viewBox="0 0 133 132" fill="none" xmlns="http://www.w3.org/2000/svg">
<g clip-path="url(#clip0_42_922)">
<path d="M66.5 132C102.951 132 132.5 102.451 132.5 66C132.5 29.5492 102.951 0 66.5 0C30.0492 0 0.5 29.5492 0.5 66C0.5 102.451 30.0492 132 66.5 132Z" fill="white"/>
<path d="M88.8613 49.1553C88.2702 48.5642 88.2702 47.5299 88.8613 46.9389L94.3284 41.4717C95.609 40.1911 95.8553 38.1224 94.7225 36.6448C93.3926 34.8717 90.8314 34.7732 89.3046 36.3L86.8419 38.7627L84.3792 36.3C82.9508 34.9209 80.6851 34.9209 79.306 36.3C78.1732 37.4329 77.9762 39.1568 78.6657 40.5359C78.9613 41.1269 78.8135 41.8657 78.321 42.3583C77.5822 43.0971 76.3508 42.9 75.8583 42.0135C74.5284 39.4523 74.9225 36.2508 77.0404 34.1329C79.6508 31.5224 83.9359 31.5224 86.5463 34.1329L86.7926 34.3792L87.0389 34.1329C89.6493 31.5224 93.9344 31.5224 96.5448 34.1329C99.1553 36.7433 99.1553 41.0284 96.5448 43.6389L90.9792 49.2045C90.4374 49.7463 89.4523 49.7463 88.8613 49.1553Z" fill="#751055"/>
<path d="M46.1583 90.3314L36.4061 80.5791C33.7956 77.9687 33.7956 73.6836 36.4061 71.0732C37.6867 69.7926 39.3613 69.103 41.1837 69.103C42.9568 69.103 44.6807 69.7926 45.9613 71.0732L46.2076 71.3194L46.4538 71.0732C47.7344 69.7926 49.4091 69.103 51.2314 69.103C53.0046 69.103 54.7285 69.7926 56.0091 71.0732C58.6195 73.6836 58.6195 77.9687 56.0091 80.5791L46.1583 90.3314ZM41.1344 72.206C40.1494 72.206 39.2628 72.6 38.5732 73.2403C37.1941 74.6194 37.1941 76.9344 38.5732 78.3135L46.1091 85.8493L53.6449 78.3135C55.024 76.9344 55.024 74.6194 53.6449 73.2403C52.2658 71.8612 49.9016 71.8612 48.5717 73.2403L46.1091 75.703L43.6464 73.2403C43.0061 72.6 42.0703 72.206 41.1344 72.206Z" fill="#751055"/>
<path d="M65.2194 87.4747L59.7523 82.0075C59.1612 81.4165 59.1612 80.3821 59.7523 79.7911C60.3433 79.2001 61.3776 79.2001 61.9687 79.7911L65.2194 83.0418L82.5567 65.7045C84.9209 63.3403 85.8567 59.9418 85.0194 56.5433C84.8224 55.7553 84.5269 55.0165 84.1329 54.3762C82.3597 51.3717 79.2567 49.6478 75.9567 49.6478C73.4448 49.6478 71.0806 50.6329 69.3075 52.406L65.3179 56.3956L61.5254 52.603C59.7523 50.8299 57.3388 49.6971 54.7776 49.6478C51.5269 49.5986 48.5224 51.1747 46.7 53.9821C46.0597 54.918 45.6657 56.0015 45.4194 57.0851C44.8776 59.8433 45.5179 62.5523 47.094 64.7195C47.5373 65.3598 47.4881 66.1971 46.9463 66.7389C46.306 67.3792 45.1732 67.3299 44.5821 66.5911C42.5134 63.8329 41.6269 60.3359 42.2672 56.7404C42.5627 55.0165 43.2523 53.3911 44.2373 51.9627C46.6508 48.515 50.4433 46.5448 54.4821 46.4956C57.9299 46.4463 61.2299 47.9239 63.6926 50.3866L65.2687 51.9627L66.8448 50.3866C69.1105 48.121 72.1642 46.6433 75.4149 46.5448C79.7493 46.3971 83.7881 48.3672 86.3 52.012C87.2851 53.4404 87.9746 55.0657 88.2702 56.7896C89.009 60.9762 87.7284 65.0642 84.8224 67.9702L65.2194 87.4747Z" fill="#751055"/>
<path d="M43.5476 34.6747H41.4297V32.5568C41.4297 31.5717 40.6416 30.7344 39.6073 30.7344H35.667C34.6819 30.7344 33.8446 31.5717 33.8446 32.5568V34.6747H31.7267C30.7416 34.6747 29.9043 35.4627 29.9043 36.4971V40.4374C29.9043 41.4224 30.6924 42.2597 31.7267 42.2597H33.8446V44.3777C33.8446 45.3627 34.6327 46.2 35.667 46.2H39.6073C40.5924 46.2 41.4297 45.3627 41.4297 44.3777V42.2597H43.5476C44.5327 42.2597 45.37 41.4717 45.37 40.4374V36.4971C45.37 35.512 44.5327 34.6747 43.5476 34.6747ZM38.8192 43.6389H36.4058V41.5209C36.4058 40.5359 35.5685 39.6986 34.5834 39.6986H32.4655V37.2851H34.6327C35.6177 37.2851 36.455 36.4478 36.455 35.4627V33.3448H38.8685V35.4627C38.8685 36.4478 39.6565 37.2851 40.6909 37.2851H42.8088V39.6493H40.6909C39.7058 39.6493 38.8685 40.4866 38.8685 41.4717L38.8192 43.6389Z" fill="#751055"/>
<path d="M98.6133 84.9628H95.0671V81.4165C95.0671 80.1359 94.0328 79.1016 92.7522 79.1016H86.891C85.6104 79.1016 84.576 80.1359 84.576 81.4165V84.9628H81.0298C79.7492 84.9628 78.7148 85.9971 78.7148 87.2777V93.1389C78.7148 94.4195 79.7492 95.4538 81.0298 95.4538H84.576V99.0001C84.576 100.281 85.6104 101.315 86.891 101.315H92.7522C94.0328 101.315 95.0671 100.281 95.0671 99.0001V95.4538H98.6133C99.8939 95.4538 100.928 94.4195 100.928 93.1389V87.2777C100.928 85.9971 99.8939 84.9628 98.6133 84.9628ZM91.9641 98.1628H87.679V94.6165C87.679 93.3359 86.6447 92.3016 85.3641 92.3016H81.8178V88.0165H85.3641C86.6447 88.0165 87.679 86.9822 87.679 85.7016V82.1553H91.9641V85.7016C91.9641 86.9822 92.9984 88.0165 94.279 88.0165H97.8253V92.3016H94.279C92.9984 92.3016 91.9641 93.3359 91.9641 94.6165V98.1628Z" fill="#751055"/>
</g>
<defs>
<clipPath id="clip0_42_922">
<rect width="132" height="132" fill="white" transform="translate(0.5)"/>
</clipPath>
</defs>
</svg>
