<svg width="133" height="132" viewBox="0 0 133 132" fill="none" xmlns="http://www.w3.org/2000/svg">
<g clip-path="url(#clip0_42_881)">
<path d="M66.5 132C102.951 132 132.5 102.451 132.5 66C132.5 29.5492 102.951 0 66.5 0C30.0492 0 0.5 29.5492 0.5 66C0.5 102.451 30.0492 132 66.5 132Z" fill="white"/>
<path d="M68.2733 35.709L26.8509 35.7582C25.7181 35.7582 24.8315 36.6448 24.8315 37.7776C24.8315 38.9105 25.7181 39.797 26.8509 39.797C26.8509 39.797 68.6674 39.797 68.7659 39.7478C83.7883 40.0433 95.9047 52.3075 95.9047 67.3791C95.9047 75.0135 92.8509 82.1553 87.2853 87.4254C81.7196 92.6956 74.43 95.3553 66.7465 94.9612C59.4569 94.5672 52.7092 91.3164 47.7838 85.8C42.8092 80.2344 40.3465 73.1418 40.7405 65.803C40.839 63.4388 41.2823 61.1732 42.0211 58.9567H42.8092C43.8927 58.9567 44.8778 57.9717 44.8778 56.8881C44.8778 55.9523 44.2868 55.2135 43.4987 54.9179L43.548 54.8687H43.3017C43.1539 54.8194 43.0062 54.8194 42.8584 54.8194H33.3032C32.1211 54.8194 31.2345 55.706 31.2345 56.8881C31.2345 58.0702 32.1211 58.9567 33.3032 58.9567H37.8345C37.1942 61.3209 36.8002 63.7344 36.7017 66.0985C36.0121 83.1403 49.2614 97.9164 66.2047 99C66.9435 99.0493 67.633 99.0493 68.3226 99.0493C76.4002 99.0493 83.9853 96.0448 89.945 90.4791C96.2987 84.5194 99.9435 76.097 99.9435 67.3791C99.9435 49.8941 85.7584 35.709 68.2733 35.709Z" fill="#751055"/>
<path d="M42.4643 52.5046C43.5971 52.5046 44.4837 51.6181 44.4837 50.4852C44.4837 49.3524 43.5971 48.4658 42.4643 48.4658H32.1703C31.0374 48.4658 30.1509 49.3524 30.1509 50.4852C30.1509 51.6181 31.0374 52.5046 32.1703 52.5046H42.4643Z" fill="#751055"/>
<path d="M50.4433 44.1315C50.4433 42.9986 49.5568 42.1121 48.4239 42.1121H29.806C28.6732 42.1121 27.7866 42.9986 27.7866 44.1315C27.7866 45.2643 28.6732 46.1509 29.806 46.1509H48.4239C49.5568 46.1509 50.4433 45.2643 50.4433 44.1315Z" fill="#751055"/>
<path d="M59.5554 47.2343L58.8166 45.9045C58.5703 45.4612 58.1763 45.1657 57.6837 45.0179C57.1912 44.8702 56.6987 44.9687 56.3046 45.2149C55.8613 45.4612 55.5658 45.8552 55.4181 46.3478C55.2703 46.8403 55.3688 47.3328 55.6151 47.7269L56.3539 49.0567C56.6987 49.6478 57.339 49.9433 57.9793 49.9433C58.2748 49.9433 58.5703 49.894 58.8658 49.7463C59.3091 49.5 59.6046 49.106 59.7524 48.6134C59.9001 48.1209 59.8016 47.6284 59.5554 47.2343Z" fill="#751055"/>
<path d="M51.0347 54.3761L49.7049 53.6373C48.7691 53.194 47.7347 53.4895 47.1929 54.3268C46.7497 55.2626 47.0452 56.297 47.8825 56.8388L49.2123 57.5776C49.4586 57.7253 49.8034 57.8238 50.0989 57.8238C50.2467 57.8238 50.4437 57.8238 50.5914 57.7746C51.0347 57.6268 51.478 57.3313 51.7243 56.888C52.2168 55.9522 51.9213 54.8686 51.0347 54.3761Z" fill="#751055"/>
<path d="M49.0642 66.6403C49.0642 65.6059 48.2762 64.8179 47.2418 64.8179H45.715C44.6806 64.8179 43.8926 65.6059 43.8926 66.6403C43.8926 67.6746 44.6806 68.4626 45.715 68.4626H47.2418C48.2762 68.4626 49.0642 67.6746 49.0642 66.6403Z" fill="#751055"/>
<path d="M87.6792 66.6403C87.6792 67.6746 88.4673 68.4626 89.5016 68.4626H91.0285C92.0628 68.4626 92.8508 67.6746 92.8508 66.6403C92.8508 65.6059 92.0628 64.8179 91.0285 64.8179H89.5016C88.4673 64.8179 87.6792 65.6059 87.6792 66.6403Z" fill="#751055"/>
<path d="M48.3256 79.8895C48.4734 79.9387 48.6704 79.9387 48.8181 79.9387C49.1137 79.9387 49.4584 79.8402 49.7047 79.6925L51.0346 78.9537C51.4778 78.7566 51.7734 78.3626 51.9211 77.9193C52.0689 77.4268 51.9704 76.9342 51.7241 76.5402C51.5271 76.0969 51.1331 75.8014 50.6898 75.6537C50.1973 75.5059 49.7047 75.6044 49.2614 75.8507L47.9316 76.5895C47.4883 76.7865 47.1928 77.1805 47.045 77.6238C46.8972 78.1163 46.9958 78.6089 47.242 79.0522C47.4883 79.4462 47.8823 79.7417 48.3256 79.8895Z" fill="#751055"/>
<path d="M58.866 83.5836C57.9302 83.1403 56.8959 83.4358 56.3541 84.2731L55.6153 85.603C55.172 86.4895 55.4675 87.5731 56.3049 88.1149C56.6004 88.3119 56.8959 88.3612 57.1914 88.3612C57.8317 88.3612 58.4228 88.0164 58.7675 87.4254L59.5063 86.0955C60.0481 85.1597 59.7526 84.0761 58.866 83.5836Z" fill="#751055"/>
<path d="M66.8452 89.5927C66.8452 90.627 67.6333 91.4151 68.6676 91.4151C69.7019 91.4151 70.49 90.627 70.49 89.5927V88.0658C70.49 87.0315 69.7019 86.2434 68.6676 86.2434C67.6333 86.2434 66.8452 87.0315 66.8452 88.0658V89.5927Z" fill="#751055"/>
<path d="M79.8971 83.4359C79.4046 83.2881 78.912 83.3866 78.518 83.6329C78.0747 83.8792 77.7792 84.2732 77.6314 84.7657C77.4837 85.2583 77.5822 85.7508 77.8284 86.1448L78.5673 87.4747C78.912 88.0657 79.5523 88.3613 80.1926 88.3613C80.4882 88.3613 80.7837 88.312 81.0792 88.1642C81.5225 87.918 81.818 87.5239 81.9658 87.0314C82.1135 86.5389 82.015 86.0463 81.7687 85.6523L81.0299 84.3224C80.7344 83.8792 80.3404 83.5344 79.8971 83.4359Z" fill="#751055"/>
<path d="M86.3497 78.9538L87.6795 79.6926C87.9751 79.8404 88.2706 79.9389 88.5661 79.9389C88.7139 79.9389 88.8616 79.9389 89.0094 79.8896C89.5019 79.7419 89.8959 79.4464 90.1422 79.0031C90.5855 78.1165 90.29 77.0822 89.4527 76.5404L88.1228 75.8016C87.2362 75.3583 86.2019 75.6538 85.6601 76.4911C85.1676 77.3777 85.4631 78.4613 86.3497 78.9538Z" fill="#751055"/>
<path d="M68.6676 47.9238C69.7019 47.9238 70.49 47.1358 70.49 46.1014V44.5746C70.49 43.5403 69.7019 42.7522 68.6676 42.7522C67.6333 42.7522 66.8452 43.5403 66.8452 44.5746V46.1014C66.8452 47.1358 67.6333 47.9238 68.6676 47.9238Z" fill="#751055"/>
<path d="M81.03 46.0523C80.1434 45.609 79.0598 45.9046 78.5181 46.7419L77.7792 48.0717C77.533 48.4657 77.4837 48.9583 77.5822 49.4508C77.73 49.9434 78.0255 50.3374 78.4688 50.5837C78.7643 50.7314 79.0598 50.8299 79.4046 50.8299C79.5524 50.8299 79.7001 50.8299 79.8479 50.7807C80.3404 50.6329 80.7345 50.3374 80.9807 49.8941L81.7195 48.5643C81.9658 48.1702 82.0151 47.6777 81.9166 47.1851C81.8181 46.6926 81.4733 46.2986 81.03 46.0523Z" fill="#751055"/>
<path d="M89.009 54.2775C88.5657 54.179 88.0732 54.2283 87.6791 54.4746L86.3493 55.2134C85.512 55.7059 85.2164 56.7895 85.6597 57.6761C86.0045 58.2671 86.5956 58.5626 87.2359 58.5626C87.5314 58.5626 87.8269 58.5134 88.1224 58.3656L89.4523 57.6268C90.2896 57.1343 90.5851 56.0507 90.1418 55.1641C89.8463 54.7208 89.4523 54.3761 89.009 54.2775Z" fill="#751055"/>
<path d="M66.8452 68.4628H76.6467C77.681 68.4628 78.4691 67.6748 78.4691 66.6404C78.4691 65.6061 77.681 64.818 76.6467 64.818H70.49V53.5389C70.49 52.5046 69.7019 51.7166 68.6676 51.7166C67.6333 51.7166 66.8452 52.5046 66.8452 53.5389V68.4628Z" fill="#751055"/>
</g>
<defs>
<clipPath id="clip0_42_881">
<rect width="132" height="132" fill="white" transform="translate(0.5)"/>
</clipPath>
</defs>
</svg>
