<svg width="133" height="132" viewBox="0 0 133 132" fill="none" xmlns="http://www.w3.org/2000/svg">
<g clip-path="url(#clip0_42_905)">
<path d="M66.5 132C102.951 132 132.5 102.451 132.5 66C132.5 29.5492 102.951 0 66.5 0C30.0492 0 0.5 29.5492 0.5 66C0.5 102.451 30.0492 132 66.5 132Z" fill="white"/>
<path d="M66.5002 36.3491C49.4584 36.3491 35.5688 50.2387 35.5688 67.2805C35.5688 84.3223 49.4584 98.2118 66.5002 98.2118C83.542 98.2118 97.4315 84.3223 97.4315 67.2805C97.4315 50.2387 83.542 36.3491 66.5002 36.3491ZM66.5002 94.6655C51.3793 94.6655 39.1151 82.4014 39.1151 67.2805C39.1151 52.1596 51.3793 39.8954 66.5002 39.8954C81.6211 39.8954 93.8853 52.1596 93.8853 67.2805C93.8853 82.4014 81.6211 94.6655 66.5002 94.6655Z" fill="#751055"/>
<path d="M54.7287 50.288C54.9257 50.682 55.3197 50.9775 55.763 51.1253C55.9108 51.1746 56.0585 51.1746 56.2063 51.1746C56.5018 51.1746 56.8466 51.076 57.1421 50.9283C57.9302 50.3865 58.2257 49.4014 57.7824 48.5148L57.0436 47.2835C56.5018 46.4954 55.5168 46.1999 54.6302 46.6432C53.8421 47.185 53.5466 48.1701 53.9899 49.0566L54.7287 50.288Z" fill="#751055"/>
<path d="M49.606 55.5089L48.3747 54.7701C47.9314 54.5238 47.4881 54.4253 46.9956 54.5731C46.5523 54.7208 46.1583 55.0164 45.9613 55.4104C45.715 55.8537 45.6165 56.297 45.7642 56.7895C45.912 57.2328 46.2075 57.6268 46.6016 57.8238L47.8329 58.5626C48.1284 58.7104 48.424 58.7597 48.6702 58.7597C49.2613 58.7597 49.8523 58.4641 50.1971 57.9223C50.4434 57.4791 50.5419 57.0358 50.3941 56.5432C50.2956 56.1 50.0001 55.7059 49.606 55.5089Z" fill="#751055"/>
<path d="M47.6851 67.2805C47.6851 66.2954 46.897 65.5073 45.9119 65.5073H44.4836C43.4985 65.5073 42.7104 66.2954 42.7104 67.2805C42.7104 68.2655 43.4985 69.0536 44.4836 69.0536H45.9119C46.897 69.0536 47.6851 68.2655 47.6851 67.2805Z" fill="#751055"/>
<path d="M47.7838 76.0476L46.5032 76.7864C45.7152 77.3282 45.4196 78.3133 45.8629 79.1998C46.1092 79.5939 46.5032 79.8894 46.9465 80.0372C47.0943 80.0864 47.242 80.0864 47.3898 80.0864C47.6853 80.0864 48.0301 79.9879 48.2764 79.8401L49.557 79.1013C50.345 78.5595 50.6405 77.5745 50.1973 76.6879C49.7047 75.8506 48.6704 75.5551 47.7838 76.0476Z" fill="#751055"/>
<path d="M57.1418 83.6329C56.6985 83.3866 56.2553 83.2881 55.7627 83.4359C55.3194 83.5836 54.9254 83.8792 54.7284 84.2732L53.9896 85.5045C53.7433 85.9478 53.6448 86.3911 53.7926 86.8836C53.9403 87.3269 54.2359 87.721 54.6299 87.918C54.9254 88.0657 55.2209 88.115 55.4672 88.115C56.0582 88.115 56.6493 87.8195 56.9941 87.2777L57.7329 86.0463C57.9791 85.603 58.0776 85.1598 57.9299 84.6672C57.8314 84.2239 57.5359 83.8299 57.1418 83.6329Z" fill="#751055"/>
<path d="M66.5002 86.0955C65.5151 86.0955 64.7271 86.8835 64.7271 87.8686V89.297C64.7271 90.282 65.5151 91.0701 66.5002 91.0701C67.4853 91.0701 68.2733 90.282 68.2733 89.297V87.8686C68.2733 86.8835 67.4853 86.0955 66.5002 86.0955Z" fill="#751055"/>
<path d="M78.2716 84.2239C77.7299 83.4359 76.7448 83.1404 75.8582 83.5836C75.0702 84.1254 74.7746 85.1105 75.2179 85.9971L75.9567 87.2284C76.3015 87.7702 76.8925 88.0657 77.4836 88.0657C77.7791 88.0657 78.0746 88.0165 78.3702 87.8195C79.1582 87.2777 79.4537 86.2926 79.0104 85.406L78.2716 84.2239Z" fill="#751055"/>
<path d="M86.4478 76.7865L85.1672 76.0477C84.7239 75.8014 84.2806 75.7029 83.7881 75.8507C83.3448 75.9984 82.9508 76.294 82.7537 76.688C82.5075 77.1313 82.409 77.5746 82.5567 78.0671C82.7045 78.5104 83 78.9044 83.394 79.1014L84.6746 79.8402C84.9702 80.0372 85.2657 80.0865 85.5612 80.0865C86.1522 80.0865 86.694 79.791 87.0388 79.1999C87.2851 78.7566 87.3836 78.3134 87.2358 77.8208C87.1866 77.3775 86.8911 76.9835 86.4478 76.7865Z" fill="#751055"/>
<path d="M66.4016 41.9148H64.6284V46.6432C64.6284 47.6282 65.4165 48.4163 66.4016 48.4163C67.3866 48.4163 68.1747 47.6282 68.1747 46.6432V45.5103C78.7642 46.3476 87.2851 54.8685 88.1717 65.5073H87.0389C86.0538 65.5073 85.2657 66.2954 85.2657 67.2805C85.2657 68.2655 86.0538 69.0536 87.0389 69.0536H91.521V68.8073H91.6687V67.182C91.6687 53.2432 80.3404 41.9148 66.4016 41.9148Z" fill="#751055"/>
<path d="M76.0062 67.3298C76.0062 66.3448 75.2182 65.5567 74.2331 65.5567H68.3226V54.7209C68.3226 53.7358 67.5346 52.9478 66.5495 52.9478C65.5644 52.9478 64.7764 53.7358 64.7764 54.7209V69.0537H74.1838C75.1197 69.0537 75.9077 68.3149 76.0062 67.3298Z" fill="#751055"/>
<path d="M60.0972 33.7388H72.9524C74.036 33.7388 74.8733 32.9014 74.8733 31.8179C74.8733 30.7343 74.036 29.897 72.9524 29.897H60.0972C59.0136 29.897 58.1763 30.7343 58.1763 31.8179C58.1763 32.9014 59.0136 33.7388 60.0972 33.7388Z" fill="#751055"/>
</g>
<defs>
<clipPath id="clip0_42_905">
<rect width="132" height="132" fill="white" transform="translate(0.5)"/>
</clipPath>
</defs>
</svg>
