<svg width="133" height="132" viewBox="0 0 133 132" fill="none" xmlns="http://www.w3.org/2000/svg">
<path d="M66.5 132C102.951 132 132.5 102.451 132.5 66C132.5 29.5492 102.951 0 66.5 0C30.0492 0 0.5 29.5492 0.5 66C0.5 102.451 30.0492 132 66.5 132Z" fill="white"/>
<path d="M67.1898 65.6552V65.6059C66.9928 65.2119 66.451 64.9657 65.86 65.1134C64.7764 65.6059 63.8405 66.4433 63.348 67.4283C62.7077 68.6104 62.5107 69.891 62.8062 71.1224C62.8555 71.3686 62.954 71.6149 63.0032 71.8612C63.0525 71.9597 63.0525 72.0089 63.1017 72.1567C63.2988 72.5507 63.6928 72.797 64.0376 72.797C64.1361 72.797 64.2838 72.797 64.4808 72.6985C65.0226 72.4522 65.2197 71.8612 64.9734 71.2701C64.8256 71.0239 64.7764 70.7283 64.7764 70.4328C64.7764 70.3343 64.7764 70.1865 64.7271 70.088C64.6779 69.6448 64.7764 69.2015 64.9734 68.7089C65.1211 68.2657 65.4659 67.8224 65.86 67.4283C66.057 67.2313 66.3032 67.1328 66.5988 66.9851C66.8943 66.8373 67.042 66.591 67.1406 66.394V66.3448C67.2391 66.1477 67.2391 65.9015 67.1898 65.6552Z" fill="#751055"/>
<path d="M80.0945 43.0479C80.193 43.0971 80.2915 43.0971 80.39 43.0971C80.4885 43.0971 80.587 43.0971 80.7347 43.0479C81.1288 42.8508 81.3258 42.4076 81.1288 41.9643C81.0303 41.7673 80.981 41.5702 80.9318 41.3732C80.8825 41.2255 80.8825 41.0777 80.8825 40.9792C80.8825 40.2896 81.1288 39.6001 81.6213 39.0583C81.8676 38.812 82.1139 38.615 82.4586 38.4673C82.8527 38.2702 83.0497 37.827 82.8527 37.3837C82.6556 36.9896 82.2124 36.7926 81.7691 36.9896C79.6019 37.9255 78.6168 40.4867 79.5527 42.6046C79.7497 42.8508 79.8974 42.9986 80.0945 43.0479Z" fill="#751055"/>
<path d="M93.639 78.0672C92.4569 78.0672 91.3241 78.3135 90.2405 78.806C89.2061 79.2493 88.3196 79.8896 87.5808 80.6776L78.5181 74.8164C79.7494 72.0582 79.8479 68.8075 78.5673 65.803C77.73 63.9314 76.4002 62.3553 74.8241 61.2224L80.636 49.5493C81.4241 49.7463 82.2121 49.8941 83.0494 49.8941C84.2808 49.8941 85.5121 49.6478 86.645 49.1553C91.127 47.1851 93.1957 41.915 91.2256 37.3836C89.7972 34.1329 86.5957 32.0642 83.0494 32.0642C81.8181 32.0642 80.5867 32.3105 79.4539 32.803C74.9718 34.7732 72.9032 40.0433 74.8733 44.5747C75.5136 46.003 76.4494 47.1851 77.6315 48.0717L71.8196 59.7448C70.736 59.4 69.6032 59.203 68.4211 59.203C66.8942 59.203 65.3673 59.4985 63.9882 60.1388C63.2002 60.4836 62.4121 60.9269 61.7718 61.4687L50.1479 51.2239C51.133 49.4508 51.3793 47.4314 50.8375 45.4612C50.2957 43.4911 49.0151 41.8164 47.242 40.7821C46.0599 40.0926 44.73 39.7478 43.4002 39.7478C40.642 39.7478 38.0808 41.2254 36.7017 43.6388C35.6673 45.412 35.4211 47.5299 35.9629 49.5C36.5047 51.4702 37.7853 53.1448 39.5584 54.1791C40.7405 54.8687 42.0703 55.2135 43.4002 55.2135C45.0748 55.2135 46.6509 54.6717 47.9315 53.7358L59.3091 63.8329C57.1912 66.8373 56.6002 70.8269 58.0778 74.4717L44.1882 82.7956C42.7599 81.2687 40.7405 80.3821 38.5733 80.3821C37.4897 80.3821 36.4554 80.5791 35.4703 81.0224C33.5987 81.8597 32.1211 83.3866 31.3823 85.3075C30.6435 87.2284 30.6927 89.3463 31.53 91.2179C32.7614 94.0254 35.5196 95.8478 38.6226 95.8478C39.7061 95.8478 40.7405 95.6508 41.7255 95.2075C43.5972 94.3702 45.0748 92.8433 45.8136 90.9224C46.4539 89.2478 46.5032 87.3761 45.9614 85.7015L59.8509 77.3776C61.9196 79.8896 65.0226 81.4164 68.3718 81.4164C69.8987 81.4164 71.4256 81.1209 72.8047 80.4806C74.3315 79.8403 75.6121 78.8553 76.6465 77.6732L85.7091 83.5344C84.9211 85.5538 84.8718 87.9179 85.8076 90.0851C87.1867 93.1881 90.2405 95.1582 93.5897 95.1582C94.7718 95.1582 95.9047 94.912 96.9882 94.4194C99.0569 93.4836 100.682 91.8582 101.52 89.6911C102.357 87.5732 102.308 85.2582 101.372 83.1896C100.042 80.0866 96.9882 78.0672 93.639 78.0672ZM80.6853 35.8567C81.3748 35.5612 82.1629 35.3642 82.9017 35.3642C85.1181 35.3642 87.1375 36.6941 88.0241 38.7135C89.2554 41.5209 87.9748 44.8209 85.1673 46.0523C84.4778 46.3478 83.6897 46.5448 82.9509 46.5448C82.6554 46.5448 82.3599 46.5448 82.0644 46.4956C80.9315 46.2985 79.8972 45.806 79.0599 45.0179C78.5673 44.5254 78.1241 43.9344 77.8285 43.2448C76.5972 40.3881 77.8778 37.0881 80.6853 35.8567ZM45.3211 51.4209C44.73 51.7164 44.0897 51.8642 43.4002 51.8642C42.6614 51.8642 41.8733 51.6672 41.233 51.2732C40.1987 50.6821 39.5091 49.7463 39.2136 48.6135C38.9181 47.4806 39.0658 46.2985 39.6569 45.3135C40.445 43.9344 41.8733 43.097 43.4494 43.097C44.1882 43.097 44.9763 43.2941 45.6166 43.6881C46.6509 44.2791 47.3405 45.215 47.636 46.3478C47.8823 47.1851 47.833 48.0717 47.5375 48.909C47.439 49.1553 47.3405 49.4015 47.1927 49.6478C46.7494 50.4359 46.1091 51.0269 45.3211 51.4209ZM42.6614 89.6911C42.2181 90.7747 41.43 91.612 40.3464 92.1045C39.8047 92.3508 39.2136 92.4985 38.5733 92.4985C36.8494 92.4985 35.2733 91.4642 34.5838 89.8881C34.0912 88.8045 34.0912 87.6224 34.5345 86.5388C34.9778 85.4552 35.7658 84.6179 36.8494 84.1254C37.3912 83.8791 37.9823 83.7314 38.6226 83.7314C39.5584 83.7314 40.4942 84.0269 41.233 84.5687C41.8241 85.012 42.3166 85.603 42.6614 86.3418C42.8091 86.6866 42.9076 87.0806 43.0061 87.4747C43.0061 88.2135 42.9569 88.9523 42.6614 89.6911ZM62.7076 75.6045C62.1166 74.9642 61.6241 74.2254 61.23 73.3881C61.1315 73.1911 61.033 72.9448 60.9838 72.7478C60.245 70.4821 60.5897 68.0194 61.8211 66.0985C62.4121 65.1627 63.2494 64.3254 64.1853 63.7344C64.4808 63.5373 64.8256 63.3403 65.1703 63.1926C66.1554 62.7493 67.1897 62.5523 68.2733 62.5523C68.9136 62.5523 69.5539 62.6508 70.145 62.7985C71.2285 63.0941 72.2629 63.5866 73.1494 64.2761C74.0853 65.015 74.8733 66 75.3658 67.1821C76.2032 69.103 76.2032 71.1717 75.5136 72.9941C75.1196 74.0284 74.5285 75.0135 73.6912 75.8015C73.0509 76.4418 72.2629 76.9836 71.3763 77.3776C70.3912 77.8209 69.3569 78.0179 68.2733 78.0179C66.2047 78.0179 64.1853 77.0821 62.7076 75.6045ZM88.9106 88.6567C88.4181 87.5732 88.3688 86.3911 88.6151 85.3567C88.9106 84.2732 89.5017 83.2388 90.4375 82.5493C90.7823 82.303 91.127 82.0567 91.5703 81.8597C92.2106 81.5642 92.9494 81.4164 93.639 81.4164C95.7076 81.4164 97.53 82.6478 98.3673 84.5194C98.9091 85.8 98.9584 87.1791 98.4659 88.4597C97.9733 89.7403 96.9882 90.7747 95.7076 91.3164C95.0673 91.612 94.3285 91.7597 93.639 91.7597C91.5703 91.7597 89.6987 90.5284 88.9106 88.6567Z" fill="#751055"/>
<path d="M92.5554 83.485C92.4076 83.5343 92.3091 83.5835 92.1614 83.682C91.1763 84.2731 90.536 85.3074 90.3882 86.391C90.339 86.982 90.3882 87.6223 90.6837 88.2134C90.8315 88.5089 91.127 88.7059 91.4226 88.7059C91.5211 88.7059 91.6196 88.7059 91.7673 88.6566C92.1614 88.4596 92.3584 88.0163 92.1614 87.5731C91.9643 87.0805 91.9643 86.6372 92.0628 86.194C92.1121 86.0955 92.1121 85.9969 92.1614 85.8984C92.3584 85.5044 92.7031 85.1596 93.1464 84.9626C93.3434 84.8641 93.4419 84.7656 93.5405 84.5686C93.639 84.3716 93.6882 84.1253 93.5897 83.879C93.442 83.485 92.9987 83.288 92.5554 83.485Z" fill="#751055"/>
<path d="M38.2777 85.4552C37.4896 85.8 36.8986 86.4403 36.603 87.2284C36.3075 88.0164 36.3075 88.903 36.6523 89.6418C36.8001 89.9373 37.0956 90.1343 37.3911 90.1343C37.4896 90.1343 37.5881 90.1343 37.7359 90.0851C38.0807 89.9373 38.2777 89.5925 38.2284 89.2478C38.2284 89.1492 38.1792 89.1 38.1792 89.0015C38.0314 88.6075 37.9822 88.2134 38.1299 87.8194C38.2777 87.4254 38.5732 87.1298 38.9672 86.9328C39.115 86.8836 39.2135 86.7851 39.312 86.6373C39.4598 86.391 39.509 86.1448 39.4105 85.8493C39.1642 85.4552 38.6717 85.2582 38.2777 85.4552Z" fill="#751055"/>
<path d="M42.8091 44.5746C42.021 44.8701 41.3314 45.4119 40.9867 46.2C40.5926 46.988 40.5434 47.8253 40.8389 48.6627C40.9374 49.0074 41.2822 49.2044 41.627 49.2044C41.7255 49.2044 41.824 49.2044 41.8732 49.1552C42.218 49.0074 42.4643 48.6627 42.415 48.3179C42.415 48.2686 42.415 48.2194 42.3658 48.1209C42.218 47.7268 42.2673 47.2835 42.415 46.8895C42.612 46.4955 42.9076 46.2 43.3016 46.1015C43.3508 46.1015 43.4001 46.0522 43.4494 46.003C43.7449 45.8059 43.8926 45.4119 43.7941 45.0671C43.6956 44.6731 43.2031 44.4268 42.8091 44.5746Z" fill="#751055"/>
</svg>
