<svg width="133" height="132" viewBox="0 0 133 132" fill="none" xmlns="http://www.w3.org/2000/svg">
<g clip-path="url(#clip0_42_869)">
<path d="M66.5 132C102.951 132 132.5 102.451 132.5 66C132.5 29.5492 102.951 0 66.5 0C30.0492 0 0.5 29.5492 0.5 66C0.5 102.451 30.0492 132 66.5 132Z" fill="white"/>
<path d="M52.9556 50.9778C52.9556 53.1942 53.8421 55.3614 55.4183 56.9375L66.6974 68.2166C66.9436 68.4629 67.2884 68.6106 67.6332 68.6106C67.9287 68.6106 68.2242 68.5121 68.569 68.3151L79.9466 56.9375C81.5227 55.3614 82.4093 53.2435 82.4093 50.9778C82.4093 48.7121 81.5227 46.5942 79.9466 45.0181C78.3212 43.442 76.2033 42.5554 73.9869 42.5554C71.7705 42.5554 69.6033 43.442 68.0272 45.0181L67.6824 45.3629L67.3377 45.0181C65.7123 43.442 63.5944 42.5554 61.378 42.5554C59.1615 42.5554 56.9944 43.442 55.4183 45.0181C53.8421 46.6435 52.9556 48.7614 52.9556 50.9778ZM57.2899 46.939C58.3735 45.8554 59.8018 45.2644 61.3287 45.2644C62.8556 45.2644 64.2839 45.8554 65.4168 46.939L66.6974 48.2196C67.2391 48.7614 68.1257 48.7614 68.6183 48.2196L69.8988 46.939C70.9824 45.8554 72.4108 45.2644 73.9377 45.2644C75.4645 45.2644 76.8929 45.8554 77.9765 46.939C79.06 48.0226 79.6511 49.4509 79.6511 50.9778C79.6511 52.5047 79.06 53.933 77.9765 55.0166L67.6332 65.3599L57.2899 55.0166C55.0735 52.8002 55.0735 49.1554 57.2899 46.939Z" fill="#751055"/>
<path d="M58.669 52.0122C58.866 52.1107 59.0138 52.1107 59.1616 52.1107C59.7034 52.1107 60.1959 51.8152 60.4914 51.3226L60.5407 51.2241C60.5899 50.9778 60.7377 50.7808 60.984 50.5346C61.3287 50.1898 61.8213 49.9435 62.3631 49.9435C63.1019 49.9435 63.7422 49.3032 63.7422 48.5644C63.7422 47.8256 63.1019 47.1853 62.3631 47.1853C61.1317 47.1853 59.9496 47.6778 59.0631 48.5644C58.5213 49.1062 58.1765 49.648 57.9795 50.239C57.8317 50.5838 57.8317 50.9778 57.9795 51.3226C58.078 51.6674 58.3735 51.9137 58.669 52.0122Z" fill="#751055"/>
<path d="M47.0451 60.2374L47.0943 60.2867C47.2913 60.4344 47.5868 60.6315 48.0301 60.6315C48.3749 60.6315 48.7689 60.4837 48.966 60.1389L52.5122 56.5927C52.7585 56.3464 52.9063 56.0016 52.9063 55.6076C52.9063 55.2628 52.7585 54.918 52.5122 54.6225C51.9704 54.0807 51.1331 54.0807 50.5913 54.6225L47.9316 57.2822L39.1645 48.6136C37.3421 46.7912 37.3421 43.7867 39.1645 41.9643C40.9869 40.1419 43.9913 40.1419 45.8137 41.9643L46.9466 43.0971C47.4883 43.6389 48.3257 43.6389 48.8674 43.0971L50.0003 41.9643C51.7734 40.1419 54.6301 40.0927 56.5018 41.8165C56.748 42.0628 57.0928 42.2106 57.4868 42.2106C57.8316 42.2106 58.1764 42.0628 58.4227 41.7673C58.6689 41.521 58.8167 41.127 58.8167 40.7822C58.8167 40.4374 58.6689 40.0927 58.3734 39.8464C55.4182 37.1374 50.9361 37.2359 48.0794 40.0434L47.9316 40.1912L47.7839 40.0434C46.4048 38.6643 44.4839 37.8762 42.563 37.8762C40.5928 37.8762 38.7212 38.6643 37.3421 40.0434C34.4361 42.9494 34.4361 47.6285 37.3421 50.5344L47.0451 60.2374Z" fill="#751055"/>
<path d="M40.9376 43.6389C40.6421 43.9345 40.248 44.427 40.051 45.1165C39.9525 45.4613 39.9525 45.8554 40.1495 46.1509C40.2973 46.4464 40.5436 46.6434 40.8391 46.7912C40.9869 46.8897 41.1839 46.8897 41.3316 46.8897C41.8242 46.8897 42.366 46.5449 42.6122 46.0524L42.6615 45.9046C42.6615 45.8061 42.76 45.7076 42.8585 45.5598C43.0555 45.3628 43.3018 45.2643 43.548 45.2643C44.2869 45.2643 44.9272 44.624 44.9272 43.8852C44.9272 43.1464 44.2869 42.5061 43.548 42.5061C42.563 42.5554 41.6272 42.9494 40.9376 43.6389Z" fill="#751055"/>
<path d="M78.7646 41.915C80.6362 40.1911 83.4929 40.2896 85.2661 42.0627L86.3989 43.1956C86.6452 43.4418 86.9899 43.5896 87.3347 43.5896C87.6795 43.5896 88.0243 43.4418 88.2705 43.1956L89.4034 42.0627C90.2407 41.1762 91.4228 40.6836 92.7034 40.6836C93.9347 40.6836 95.1168 41.1762 96.0034 42.0627C96.8899 42.9001 97.3825 44.0821 97.3825 45.3627C97.3825 46.5941 96.8899 47.7762 96.0034 48.6627L87.2855 57.3806L84.6258 54.7209C84.084 54.1792 83.1974 54.1792 82.7049 54.7209C82.1631 55.2627 82.1631 56.1001 82.7049 56.6418L86.3004 60.2374C86.5467 60.4836 86.8914 60.6314 87.2362 60.6314C87.581 60.6314 87.8765 60.4836 88.0735 60.3851L88.1228 60.3359L97.875 50.5836C99.2541 49.2045 100.042 47.3329 100.042 45.3627C100.042 43.3926 99.2541 41.5209 97.875 40.1418C96.4959 38.7627 94.6243 37.9747 92.6541 37.9747C90.684 37.9747 88.8123 38.7627 87.4332 40.1418L87.2855 40.2896L87.1377 40.1418C84.281 37.2851 79.7989 37.1866 76.8437 39.9448C76.5974 40.1911 76.4496 40.5359 76.4004 40.8806C76.4004 41.2747 76.4989 41.6195 76.7944 41.8657C77.3855 42.4075 78.2228 42.4568 78.7646 41.915Z" fill="#751055"/>
<path d="M88.5166 53.2433L92.0629 49.697C92.3091 49.4508 92.4569 49.106 92.4569 48.712C92.4569 48.3672 92.3091 48.0224 92.0629 47.7269C91.5211 47.1851 90.6837 47.1851 90.142 47.7269L86.5957 51.2732C86.3494 51.5194 86.2017 51.8642 86.2017 52.2582C86.2017 52.603 86.3494 52.9478 86.5957 53.2433C86.842 53.4896 87.1867 53.6373 87.5315 53.6373C87.827 53.6373 88.1718 53.5881 88.5166 53.2433Z" fill="#751055"/>
<path d="M94.0823 76.7375C93.8853 76.7375 93.639 76.7375 93.3435 76.7868L77.9271 79.5942H77.8778C77.8286 79.5942 77.7301 79.5942 77.5823 79.5942H75.1196C75.3659 79.0032 75.4644 78.3629 75.4644 77.7718C75.4644 76.4912 74.9226 75.2106 73.9868 74.2748C73.1002 73.339 71.8196 72.7972 70.4898 72.7972H60.2943C59.3584 72.7972 58.4226 72.6494 57.4375 72.3047C56.354 71.9106 55.2704 71.7136 54.236 71.7136C52.0196 71.7136 49.8032 72.5509 48.1778 73.93L44.8778 76.7375C44.7301 75.7032 43.8435 74.8659 42.8092 74.8659H35.0271C33.845 74.8659 32.9092 75.8017 32.9092 76.9838V91.9077C32.9092 93.0897 33.845 94.0256 35.0271 94.0256H42.8092C43.9913 94.0256 44.9271 93.0897 44.9271 91.9077V91.6121L67.7808 93.4345C68.1256 93.4838 68.4211 93.4838 68.7659 93.4838C69.9972 93.4838 71.3271 93.2868 72.8047 92.8435L95.4614 84.6673C97.0868 84.027 98.1704 82.5002 98.1704 80.7763C98.2196 78.6091 96.348 76.7375 94.0823 76.7375ZM71.7704 79.5942C71.6719 79.6435 71.5734 79.6435 71.4748 79.6927C71.1793 79.8897 70.8345 79.939 70.4405 79.939H58.7181C57.9793 79.939 57.339 80.5793 57.339 81.3181C57.339 82.0569 57.9793 82.6972 58.7181 82.6972H70.4405C71.1793 82.6972 71.8689 82.5002 72.5092 82.2047H77.6316C77.8778 82.2047 78.1734 82.2047 78.4689 82.1554L93.8853 79.348L93.9838 79.2987C94.0331 79.2987 94.0823 79.2987 94.1316 79.2987C94.8704 79.2987 95.5107 79.939 95.5107 80.727C95.5107 81.2688 95.1166 81.8106 94.5748 82.0569L71.9181 90.233C70.6375 90.6763 69.2584 90.8241 67.9778 90.7748L45.0256 89.0017V80.3823L50.0495 76.0479C51.2316 75.0136 52.7092 74.4718 54.2853 74.4718C55.0734 74.4718 55.8614 74.6196 56.551 74.8659C57.6838 75.3091 58.9644 75.5554 60.3435 75.5554H70.539C71.1301 75.5554 71.7211 75.8017 72.1151 76.1957C72.5092 76.5897 72.7554 77.1808 72.7554 77.7718C72.8047 78.5106 72.4599 79.1509 71.7704 79.5942ZM42.2181 79.742V90.233V91.4151H35.6674V77.7226H42.2181V79.742Z" fill="#751055"/>
</g>
<defs>
<clipPath id="clip0_42_869">
<rect width="132" height="132" fill="white" transform="translate(0.5)"/>
</clipPath>
</defs>
</svg>
