<svg width="30" height="30" viewBox="0 0 30 30" fill="none" xmlns="http://www.w3.org/2000/svg">
<g id="notice-graphic">
<g id="Group">
<g id="Group_2">
<path id="Vector" d="M13.7037 28.7039C21.2721 28.7039 27.4075 22.5685 27.4075 15.0001C27.4075 7.43176 21.2721 1.29639 13.7037 1.29639C6.13537 1.29639 0 7.43176 0 15.0001C0 22.5685 6.13537 28.7039 13.7037 28.7039Z" fill="#C296B6"/>
<path id="Vector_2" d="M12.3223 16.3212C13.1047 16.7824 14.1122 16.5238 14.5745 15.7402L17.757 10.3481C18.2182 9.56672 17.9584 8.55814 17.176 8.09695C16.3935 7.63463 15.3872 7.89545 14.926 8.6768L11.7435 14.069C11.2812 14.8525 11.5387 15.8589 12.3223 16.3212ZM11.3786 17.9197C10.5379 17.4238 9.45322 17.7014 8.95621 18.5432C8.46143 19.3828 8.74016 20.4675 9.58084 20.9645C10.4204 21.4604 11.5062 21.1805 12.001 20.341C12.4991 19.4992 12.2181 18.4156 11.3786 17.9197Z" fill="white"/>
</g>
<g id="Group_3">
<path id="Vector_3" d="M26.7883 16.208L29.8107 18.7714C30.1555 19.0636 30.0021 19.6244 29.5577 19.7017L24.4219 20.5961L26.7883 16.208Z" fill="#C296B6"/>
</g>
</g>
</g>
</svg>
