<svg width="132" height="132" viewBox="0 0 132 132" fill="none" xmlns="http://www.w3.org/2000/svg">
<g clip-path="url(#clip0_1_653)">
<path d="M66 132C102.451 132 132 102.451 132 66.0001C132 29.5493 102.451 0.00012207 66 0.00012207C29.5492 0.00012207 0 29.5493 0 66.0001C0 102.451 29.5492 132 66 132Z" fill="#F0E8EF"/>
<path d="M44.8356 94.8973C50.1895 100.542 57.9076 103.778 66 103.778C74.0924 103.778 81.8055 100.542 87.1643 94.8973C97.1333 84.3915 102.019 64.493 68.6941 29.3652C68.0046 28.6362 67.0195 28.2176 66.0049 28.2176C64.9853 28.2176 64.0052 28.6362 63.3156 29.3652C29.9807 64.493 34.8667 84.3915 44.8356 94.8973ZM65.2612 31.2221C65.5173 30.9561 65.8325 30.9167 66 30.9167C66.1674 30.9167 66.4827 30.9561 66.7388 31.2221C91.9715 57.8142 98.3597 79.1903 85.2089 93.0453C80.3574 98.1579 73.3585 101.088 66 101.088C58.6415 101.088 51.6376 98.1579 46.791 93.0453C33.6403 79.1903 40.0285 57.8092 65.2612 31.2221Z" fill="#D54079"/>
<path d="M50.7953 78.4515L58.2622 78.4318V85.9183C58.2622 87.391 59.459 88.5879 60.9317 88.5879H71.0681C72.5408 88.5879 73.7377 87.391 73.7377 85.9183L73.718 78.4515H81.2045C82.6772 78.4515 83.8741 77.2546 83.8741 75.7819V65.6455C83.8741 64.1728 82.6772 62.976 81.2045 62.976L73.7377 62.9957V55.5091C73.7377 54.0364 72.5408 52.8395 71.0681 52.8395H60.9317C59.459 52.8395 58.2622 54.0364 58.2622 55.5091L58.2819 62.976H50.7953C49.3226 62.976 48.1257 64.1728 48.1257 65.6455V75.7819C48.1257 77.2497 49.3226 78.4515 50.7953 78.4515ZM58.2819 65.6652C59.7545 65.6652 60.9514 64.4683 60.9514 62.9957L60.9317 55.5288L71.0484 55.5091V62.9957C71.0484 64.4683 72.2453 65.6652 73.718 65.6652H81.1848L81.2045 75.7573H73.718C72.2453 75.7573 71.0484 76.9542 71.0484 78.4269L71.0681 85.8937L60.9563 85.9134V78.4269C60.9563 76.9542 59.7595 75.7573 58.2868 75.7573L50.8199 75.777L50.8002 65.6603H58.2819V65.6652Z" fill="#D54079"/>
</g>
<defs>
<clipPath id="clip0_1_653">
<rect width="132" height="132" fill="white"/>
</clipPath>
</defs>
</svg>
