<svg width="132" height="132" viewBox="0 0 132 132" fill="none" xmlns="http://www.w3.org/2000/svg">
<g clip-path="url(#clip0_1_626)">
<path d="M65.9999 132C102.451 132 132 102.451 132 66.0001C132 29.5493 102.451 0.00012207 65.9999 0.00012207C29.5491 0.00012207 -6.10352e-05 29.5493 -6.10352e-05 66.0001C-6.10352e-05 102.451 29.5491 132 65.9999 132Z" fill="#F0E8EF"/>
<path d="M71.3391 81.1111V31.6801C71.3391 27.7053 68.1031 24.4694 64.1284 24.4694C60.1536 24.4694 56.9176 27.7053 56.9176 31.6801V81.1111C52.6473 83.6182 49.9384 88.2234 49.9384 93.3409C49.9384 101.167 56.3069 107.531 64.1284 107.531C71.9498 107.531 78.3184 101.162 78.3184 93.3409C78.3184 88.2185 75.6094 83.6182 71.3391 81.1111ZM64.1284 104.787C57.819 104.787 52.6818 99.6552 52.6818 93.3409C52.6818 88.6962 55.4498 84.5786 59.661 82.8006V31.6801C59.661 29.2174 61.6657 27.2177 64.1234 27.2177C66.5861 27.2177 68.5858 29.2223 68.5858 31.6801V82.8006C72.8019 84.5786 75.5651 88.6962 75.5651 93.3409C75.57 99.6503 70.4378 104.787 64.1284 104.787Z" fill="#D54079"/>
<path d="M84.6278 78.6928H76.2251V80.067H84.6278V78.6928Z" fill="#D54079"/>
<path d="M84.6278 75.0037H76.2251V76.3779H84.6278V75.0037Z" fill="#D54079"/>
<path d="M84.6278 71.3146H76.2251V72.6888H84.6278V71.3146Z" fill="#D54079"/>
<path d="M84.6278 67.6255H76.2251V68.9997H84.6278V67.6255Z" fill="#D54079"/>
<path d="M90.9273 63.9364H76.2251V65.3106H90.9273V63.9364Z" fill="#D54079"/>
<path d="M84.6278 60.2473H76.2251V61.6215H84.6278V60.2473Z" fill="#D54079"/>
<path d="M84.6278 56.5582H76.2251V57.9323H84.6278V56.5582Z" fill="#D54079"/>
<path d="M84.6278 52.874H76.2251V54.2482H84.6278V52.874Z" fill="#D54079"/>
<path d="M84.6278 49.1849H76.2251V50.5591H84.6278V49.1849Z" fill="#D54079"/>
<path d="M90.9273 45.4958H76.2251V46.87H90.9273V45.4958Z" fill="#D54079"/>
<path d="M84.6278 41.8067H76.2251V43.1809H84.6278V41.8067Z" fill="#D54079"/>
<path d="M84.6278 38.1176H76.2251V39.4917H84.6278V38.1176Z" fill="#D54079"/>
<path d="M84.6278 34.4285H76.2251V35.8026H84.6278V34.4285Z" fill="#D54079"/>
<path d="M84.6278 30.7393H76.2251V32.1135H84.6278V30.7393Z" fill="#D54079"/>
<path d="M90.9273 27.0552H76.2251V28.4294H90.9273V27.0552Z" fill="#D54079"/>
<path d="M65.6405 85.3026V49.1455H62.6114V85.4159C59.0306 86.2385 56.3611 89.44 56.3611 93.2719C56.3611 97.7294 59.9714 101.34 64.4288 101.34C68.8863 101.34 72.4966 97.7294 72.4966 93.2719C72.4966 89.2282 69.5217 85.8888 65.6405 85.3026Z" fill="#D54079"/>
</g>
<defs>
<clipPath id="clip0_1_626">
<rect width="132" height="132" fill="white"/>
</clipPath>
</defs>
</svg>
