<svg width="132" height="132" viewBox="0 0 132 132" fill="none" xmlns="http://www.w3.org/2000/svg">
<rect width="132" height="132" fill="#1E1E1E"/>
<g id="SheREAN-JP" clip-path="url(#clip0_0_1)">
<rect width="1920" height="6416" transform="translate(-1016 -3604)" fill="white"/>
<g id="4&#235;&#139;&#168;&#234;&#179;&#132;">
<path id="bg" d="M904 376L-1016 376L-1016 -508L904 -508L904 376Z" fill="url(#paint0_linear_0_1)"/>
<g id="Group 3">
<g id="step-03">
<g id="graphic-04" clip-path="url(#clip1_0_1)">
<g id="Group">
<g id="Group_2">
<path id="Vector" d="M66 132C102.451 132 132 102.451 132 66.0001C132 29.5493 102.451 0.00012207 66 0.00012207C29.5492 0.00012207 0 29.5493 0 66.0001C0 102.451 29.5492 132 66 132Z" fill="#F0E8EF"/>
</g>
<path id="Vector_2" d="M69.1177 104.246C67.3544 104.246 65.7291 103.078 65.2316 101.295C64.8868 100.054 65.1577 98.7391 65.931 97.7491L62.1089 86.8985C59.3901 87.1595 56.6713 86.1794 54.7455 84.2388L49.1946 87.5585C48.0568 88.2382 47.3082 89.4055 47.1407 90.7698C46.9092 92.6267 45.8798 94.2718 44.3135 95.2913C42.895 96.2123 41.2056 96.5226 39.5556 96.1729C37.9056 95.8232 36.4871 94.848 35.5661 93.4344C33.6698 90.5137 34.5022 86.5882 37.423 84.687C39.1222 83.5837 41.2647 83.3621 43.1561 84.0959C44.4318 84.5885 45.8158 84.485 46.9486 83.8103L52.5094 80.4906C51.9774 78.7371 51.9824 76.8606 52.5291 75.1071L50.8003 74.0531C49.5935 75.245 48.0667 76.0922 46.4019 76.4715C41.9247 77.491 37.4131 74.9741 35.8419 70.7777L24.415 72.1174C23.7797 73.4079 22.4744 74.2944 20.9968 74.3683C18.7853 74.4816 16.8841 72.7627 16.7709 70.5413C16.6625 68.32 18.3765 66.4237 20.5979 66.3153C21.8785 66.2513 23.1049 66.8079 23.9077 67.7782L35.3346 66.4385C35.6794 63.7295 37.2358 61.2915 39.5507 59.8434L37.5215 53.6867C37.1077 52.4307 36.1325 51.4407 34.8421 50.9728C33.0837 50.3374 31.7046 48.9731 31.0544 47.2197C29.8477 43.9492 31.5224 40.3094 34.7928 39.0977C36.3788 38.5116 38.0928 38.5806 39.6295 39.2849C41.1662 39.9892 42.3335 41.2501 42.9147 42.8361C43.6191 44.7373 43.3629 46.8749 42.2301 48.5594C41.4667 49.6971 41.2647 51.0664 41.6735 52.3224L43.688 58.4741C48.1652 58.1294 52.2434 61.06 53.263 65.5519C53.6274 67.1526 53.5585 68.783 53.0709 70.3197L54.78 71.3638C55.5089 70.6349 56.3462 70.0438 57.2919 69.5907C58.7744 68.8815 60.3801 68.5909 61.9858 68.7288L63.0694 65.5125C63.5028 64.2368 63.3107 62.8429 62.5571 61.6904C61.6065 60.2424 61.2913 58.4446 61.6903 56.765C62.4931 53.3715 65.9064 51.2683 69.3 52.0712C71.2061 52.5243 72.7674 53.8197 73.5752 55.5583L81.9877 54.5732C82.3325 51.8643 83.8889 49.4262 86.2038 47.9782L84.1894 41.8313C83.7756 40.5753 82.8004 39.5853 81.51 39.1224C79.7516 38.487 78.3725 37.1226 77.7224 35.3692C76.5156 32.0988 78.1903 28.454 81.4607 27.2473C84.7312 26.0356 88.3759 27.7152 89.5827 30.9856C90.287 32.8868 90.0309 35.0244 88.898 36.7089C88.1346 37.8467 87.9327 39.2159 88.3415 40.4719L90.3559 46.6237C94.8232 46.2789 98.9113 49.2095 99.9309 53.7015C100.295 55.3022 100.226 56.9325 99.7388 58.4692L102.635 60.2374C103.783 60.9368 105.186 61.06 106.477 60.5773C108.097 59.9665 109.92 60.0552 111.476 60.8137C112.993 61.5525 114.131 62.8429 114.677 64.4388C115.224 66.0346 115.121 67.7486 114.377 69.2656C113.638 70.7827 112.348 71.9204 110.752 72.4671C109.156 73.0138 107.442 72.9104 105.925 72.1667C103.955 71.2062 102.645 69.3297 102.413 67.1428C102.275 65.8524 101.507 64.6555 100.35 63.9561L97.4583 62.1928C96.2516 63.3847 94.7247 64.2319 93.055 64.6112C88.5828 65.6258 84.0712 63.1138 82.495 58.9174L73.9249 59.9222C73.3634 61.9416 71.8612 63.5374 69.8615 64.2122C68.6301 64.6309 67.6352 65.6455 67.2018 66.9261L66.1182 70.1325C67.5465 71.0437 68.7089 72.3489 69.4477 73.8955C71.4228 78.0328 69.9649 82.9927 66.2216 85.4504L70.0437 96.301C71.4425 96.6409 72.595 97.7146 72.9891 99.1429C73.2797 100.177 73.1467 101.266 72.6147 102.207C72.0828 103.147 71.2209 103.817 70.1865 104.108C69.8368 104.201 69.4724 104.246 69.1177 104.246ZM40.8658 86.1252C40.127 86.1252 39.3931 86.337 38.7626 86.7458C36.9797 87.9032 36.4674 90.3019 37.6298 92.0849C38.7873 93.8679 41.181 94.3801 42.9689 93.2177C43.9244 92.5971 44.5549 91.5924 44.6928 90.4595C44.875 89.0065 45.4858 87.6865 46.4315 86.6571C45.077 87.0019 43.6289 86.9182 42.2597 86.3862C41.8115 86.2138 41.3386 86.1252 40.8658 86.1252ZM55.4695 81.2638L55.9621 81.8992C57.5283 83.9235 60.1585 84.8741 62.6606 84.3225L63.4486 84.1501L64.1825 83.7856C67.4234 82.18 68.7926 78.215 67.2362 74.9495C66.5713 73.5606 65.4926 72.477 64.1037 71.8121L63.3698 71.4623L62.5719 71.2949C61.1386 70.9944 59.6807 71.1718 58.3509 71.8071C57.415 72.2504 56.6221 72.8907 55.9818 73.7034L55.4843 74.3388L55.1494 75.0825C54.3712 76.8113 54.3662 78.7913 55.1297 80.5152L55.4695 81.2638ZM37.7086 68.3446L37.9007 69.1425C38.7528 72.6592 42.3138 74.8658 45.8453 74.0679C47.3427 73.728 48.643 72.9104 49.5935 71.7037L50.0959 71.0683L50.4309 70.3295C51.0367 68.9947 51.1844 67.5319 50.8594 66.0986C50.0565 62.5573 46.6383 60.3359 43.0724 61.0452L42.2744 61.2028L41.5406 61.5476C39.2207 62.6312 37.7135 64.9855 37.7037 67.5467L37.7086 68.3446ZM103.147 63.0843C104.103 64.1334 104.723 65.4632 104.871 66.8768C105.014 68.2116 105.812 69.3543 107.014 69.9453C107.94 70.3985 108.989 70.4625 109.964 70.1276C110.939 69.7927 111.727 69.0982 112.175 68.1722C112.628 67.2462 112.692 66.1971 112.358 65.2219C112.023 64.2467 111.328 63.4586 110.402 63.0104C109.437 62.5376 108.358 62.4883 107.353 62.8676C105.974 63.3847 104.511 63.4537 103.147 63.0843ZM84.3815 56.4843L84.5735 57.2822C85.4256 60.7989 88.9916 63.0055 92.5182 62.2076C94.0204 61.8677 95.3158 61.0501 96.2664 59.8434L96.7688 59.208L97.1086 58.4643C97.7144 57.1295 97.8622 55.6716 97.5371 54.2383C96.7343 50.697 93.3112 48.4756 89.7501 49.18L88.9522 49.3376L88.2183 49.6824C85.8985 50.7659 84.3913 53.1203 84.3815 55.6815V56.4843ZM36.9895 41.1664C36.5364 41.1664 36.0882 41.2452 35.6498 41.4077C34.6844 41.7673 33.9112 42.4765 33.4827 43.4123C33.0541 44.3482 33.0098 45.3973 33.3694 46.3626C33.7634 47.4315 34.6056 48.2688 35.6794 48.6529C37.0585 49.1504 38.211 50.037 39.004 51.1846C38.9646 49.7907 39.3685 48.3919 40.1861 47.1753C40.8756 46.1459 41.0332 44.8407 40.6047 43.6832C40.2452 42.7179 39.5359 41.9446 38.6001 41.5161C38.083 41.2846 37.5362 41.1664 36.9895 41.1664ZM83.6525 29.3061C83.2092 29.3061 82.7561 29.3849 82.3177 29.5474C80.323 30.2862 79.2985 32.5076 80.0373 34.5073C80.4313 35.5761 81.2736 36.4134 82.3473 36.7976C83.7264 37.295 84.8789 38.1816 85.6719 39.3292C85.6325 37.9353 86.0364 36.5365 86.854 35.32C87.5435 34.2906 87.7012 32.9853 87.2727 31.8279C86.7013 30.2715 85.2237 29.3061 83.6525 29.3061Z" fill="#D54079"/>
</g>
</g>
</g>
</g>
</g>
</g>
<defs>
<linearGradient id="paint0_linear_0_1" x1="-56" y1="376" x2="-55.9999" y2="-508" gradientUnits="userSpaceOnUse">
<stop stop-color="#F6F6F6"/>
<stop offset="1" stop-color="#FDF8FB" stop-opacity="0"/>
</linearGradient>
<clipPath id="clip0_0_1">
<rect width="1920" height="6416" fill="white" transform="translate(-1016 -3604)"/>
</clipPath>
<clipPath id="clip1_0_1">
<rect width="132" height="132" fill="white"/>
</clipPath>
</defs>
</svg>
