<svg width="132" height="132" viewBox="0 0 132 132" fill="none" xmlns="http://www.w3.org/2000/svg">
<g clip-path="url(#clip0_1_675)">
<path d="M66 132C102.451 132 132 102.451 132 66.0001C132 29.5493 102.451 0.00012207 66 0.00012207C29.5492 0.00012207 0 29.5493 0 66.0001C0 102.451 29.5492 132 66 132Z" fill="#F0E8EF"/>
<path d="M41.1268 95.646C42.3917 95.646 43.4171 94.6206 43.4171 93.3557C43.4171 92.0908 42.3917 91.0654 41.1268 91.0654C39.862 91.0654 38.8365 92.0908 38.8365 93.3557C38.8365 94.6206 39.862 95.646 41.1268 95.646Z" fill="#D54079"/>
<path d="M55.9129 88.8834C55.9129 87.6176 54.8884 86.5931 53.6226 86.5931C52.3568 86.5931 51.3323 87.6176 51.3323 88.8834C51.3323 90.1492 52.3568 91.1737 53.6226 91.1737C54.8884 91.1786 55.9129 90.1492 55.9129 88.8834Z" fill="#D54079"/>
<path d="M29.7837 70.2015C50.9333 70.2015 72.0877 70.2015 93.2373 70.2015C96.2319 70.2015 99.2265 70.2015 102.221 70.2015C103.989 70.2015 103.994 67.4531 102.221 67.4531C81.0716 67.4531 59.9171 67.4531 38.7676 67.4531C35.773 67.4531 32.7783 67.4531 29.7837 67.4531C28.0106 67.4531 28.0106 70.2015 29.7837 70.2015Z" fill="#D54079"/>
<path d="M80.6728 88.8834C80.6728 87.6176 79.6483 86.5931 78.3825 86.5931C77.1166 86.5931 76.0922 87.6176 76.0922 88.8834C76.0922 90.1492 77.1166 91.1737 78.3825 91.1737C79.6434 91.1786 80.6728 90.1492 80.6728 88.8834Z" fill="#D54079"/>
<path d="M102.216 78.683C98.9458 78.8258 97.0594 80.136 94.3308 81.6924C90.3067 83.9777 87.1447 82.2145 83.6427 80.1754C81.0224 78.6534 77.7815 78.2545 74.8608 79.1115C71.6199 80.0621 69.6005 82.8055 65.9902 82.8055C62.375 82.8055 60.3605 80.0719 57.1196 79.1115C54.2087 78.2446 50.9481 78.6583 48.3426 80.1754C44.9588 82.1455 41.9494 83.9531 37.9697 81.8648C35.0588 80.333 33.2315 78.8307 29.7739 78.683C28.0057 78.6042 28.0057 81.3574 29.7739 81.4313C33.4138 81.5889 35.3494 84.16 38.6396 85.1254C41.5554 85.9824 44.8012 85.5834 47.4166 84.0615C50.9136 82.0224 54.056 80.2492 58.0997 82.5445C60.7644 84.0615 62.7493 85.5539 65.9853 85.5539C69.2262 85.5539 71.2012 84.0664 73.8708 82.5445C77.9047 80.2492 81.0618 82.0273 84.5588 84.0615C87.0708 85.5243 90.0999 85.9233 92.9221 85.2288C96.3896 84.3718 98.4484 81.5939 102.211 81.4313C103.98 81.3574 103.989 78.6042 102.216 78.683Z" fill="#D54079"/>
<path d="M68.2903 93.3557C68.2903 92.0898 67.2658 91.0654 66 91.0654C64.7342 91.0654 63.7097 92.0898 63.7097 93.3557C63.7097 94.6215 64.7342 95.646 66 95.646C67.2658 95.646 68.2903 94.6215 68.2903 93.3557Z" fill="#D54079"/>
<path d="M93.1635 93.3557C93.1635 92.0898 92.139 91.0654 90.8732 91.0654C89.6074 91.0654 88.5829 92.0898 88.5829 93.3557C88.5829 94.6215 89.6074 95.646 90.8732 95.646C92.139 95.646 93.1635 94.6215 93.1635 93.3557Z" fill="#D54079"/>
<path d="M36.3542 47.0473H37.7727V48.4658C37.7727 49.6085 38.7036 50.5345 39.8414 50.5345H42.9C44.0427 50.5345 44.9687 49.6036 44.9687 48.4658V47.0473H46.3872C47.5299 47.0473 48.4608 46.1164 48.4608 44.9786V41.9151C48.4608 40.7724 47.5299 39.8415 46.3872 39.8415H44.9687V38.423C44.9687 37.2803 44.0378 36.3543 42.9 36.3543H39.8414C38.6987 36.3543 37.7727 37.2852 37.7727 38.423V39.8415H36.3542C35.2115 39.8415 34.2855 40.7724 34.2855 41.9151V44.9737C34.2806 46.1164 35.2115 47.0473 36.3542 47.0473ZM37.0339 42.5948H38.4524C39.5951 42.5948 40.526 41.6639 40.526 40.5212V39.1027H42.2252V40.5212C42.2252 41.6639 43.1561 42.5948 44.2988 42.5948H45.7173V44.294H44.2988C43.1561 44.294 42.2252 45.2249 42.2252 46.3676V47.7861H40.526V46.3676C40.526 45.2249 39.5951 44.294 38.4524 44.294H37.0339V42.5948Z" fill="#D54079"/>
<path d="M60.981 47.0473H62.3995V48.4658C62.3995 49.6085 63.3304 50.5345 64.4682 50.5345H67.5269C68.6695 50.5345 69.5955 49.6036 69.5955 48.4658V47.0473H71.014C72.1567 47.0473 73.0876 46.1164 73.0876 44.9786V41.9151C73.0876 40.7724 72.1567 39.8415 71.014 39.8415H69.5955V38.423C69.5955 37.2803 68.6646 36.3543 67.5269 36.3543H64.4682C63.3255 36.3543 62.3995 37.2852 62.3995 38.423V39.8415H60.981C59.8383 39.8415 58.9124 40.7724 58.9124 41.9151V44.9737C58.9074 46.1164 59.8383 47.0473 60.981 47.0473ZM61.6607 42.5948H63.0792C64.2219 42.5948 65.1528 41.6639 65.1528 40.5212V39.1027H66.8521V40.5212C66.8521 41.6639 67.783 42.5948 68.9257 42.5948H70.3442V44.294H68.9257C67.783 44.294 66.8521 45.2249 66.8521 46.3676V47.7861H65.1528V46.3676C65.1528 45.2249 64.2219 44.294 63.0792 44.294H61.6607V42.5948Z" fill="#D54079"/>
<path d="M85.608 47.0473H87.0265V48.4658C87.0265 49.6085 87.9574 50.5345 89.0951 50.5345H92.1538C93.2965 50.5345 94.2225 49.6036 94.2225 48.4658V47.0473H95.641C96.7837 47.0473 97.7146 46.1164 97.7146 44.9786V41.9151C97.7146 40.7724 96.7837 39.8415 95.641 39.8415H94.2225V38.423C94.2225 37.2803 93.2916 36.3543 92.1538 36.3543H89.0951C87.9525 36.3543 87.0265 37.2852 87.0265 38.423V39.8415H85.608C84.4653 39.8415 83.5393 40.7724 83.5393 41.9151V44.9737C83.5344 46.1164 84.4653 47.0473 85.608 47.0473ZM86.2877 42.5948H87.7062C88.8489 42.5948 89.7798 41.6639 89.7798 40.5212V39.1027H91.479V40.5212C91.479 41.6639 92.4099 42.5948 93.5526 42.5948H94.9711V44.294H93.5526C92.4099 44.294 91.479 45.2249 91.479 46.3676V47.7861H89.7798V46.3676C89.7798 45.2249 88.8489 44.294 87.7062 44.294H86.2877V42.5948Z" fill="#D54079"/>
<path d="M29.7837 61.2619C50.9333 61.2619 72.0877 61.2619 93.2373 61.2619C96.2319 61.2619 99.2265 61.2619 102.221 61.2619C103.989 61.2619 103.994 58.5135 102.221 58.5135C81.0716 58.5135 59.9171 58.5135 38.7676 58.5135C35.773 58.5135 32.7783 58.5135 29.7837 58.5135C28.0106 58.5135 28.0106 61.2619 29.7837 61.2619Z" fill="#D54079"/>
</g>
<defs>
<clipPath id="clip0_1_675">
<rect width="132" height="132" fill="white"/>
</clipPath>
</defs>
</svg>
