<svg width="182" height="85" viewBox="0 0 182 85" fill="none" xmlns="http://www.w3.org/2000/svg">
<g id="dr.petit-ladies-logo-white 1" clip-path="url(#clip0_1_860)">
<g id="Group">
<path id="Vector" d="M64.0093 15.7774V9.99634H66.1109C67.8522 9.99634 69.0231 11.1104 69.0231 12.8869C69.0231 14.6634 67.8522 15.7774 66.1109 15.7774H64.0093ZM66.0508 14.573C66.9515 14.573 67.6721 14.0612 67.6721 12.8869C67.6721 11.7126 66.9515 11.2007 66.0508 11.2007H65.3003V14.5429L66.0508 14.573Z" fill="white"/>
<path id="Vector_2" d="M72.5959 9.87598C74.2172 9.87598 75.5982 11.0503 75.5982 12.887C75.5982 14.7237 74.2172 15.8979 72.5959 15.8979C70.9747 15.8979 69.5936 14.7237 69.5936 12.887C69.5936 11.0503 70.9447 9.87598 72.5959 9.87598ZM72.5959 14.6333C73.4066 14.6333 74.2472 14.0914 74.2472 12.887C74.2472 11.6826 73.3765 11.1406 72.5959 11.1406C71.7853 11.1406 70.9146 11.6826 70.9146 12.887C70.9146 14.0914 71.7853 14.6333 72.5959 14.6333Z" fill="white"/>
<path id="Vector_3" d="M76.1686 12.9171C76.1686 11.1105 77.5496 9.87598 79.1409 9.87598C80.8822 9.87598 81.6328 10.99 81.8129 11.8331L80.612 12.2245C80.5219 11.8331 80.1617 11.1406 79.1409 11.1406C78.3603 11.1406 77.4896 11.6826 77.4896 12.9171C77.4896 14.001 78.3002 14.6333 79.1409 14.6333C80.1316 14.6333 80.552 13.9709 80.642 13.5494L81.873 13.9107C81.6928 14.7237 80.9122 15.928 79.1409 15.928C77.4896 15.8979 76.1686 14.6935 76.1686 12.9171Z" fill="white"/>
<path id="Vector_4" d="M85.2956 11.2308V15.7774H84.0046V11.2308H82.2333V9.99634H87.067V11.2308H85.2956Z" fill="white"/>
<path id="Vector_5" d="M90.3995 9.87598C92.0208 9.87598 93.4018 11.0503 93.4018 12.887C93.4018 14.7237 92.0208 15.8979 90.3995 15.8979C88.7783 15.8979 87.3972 14.7237 87.3972 12.887C87.3972 11.0503 88.7783 9.87598 90.3995 9.87598ZM90.3995 14.6333C91.2101 14.6333 92.0508 14.0914 92.0508 12.887C92.0508 11.6826 91.1801 11.1406 90.3995 11.1406C89.5889 11.1406 88.7182 11.6826 88.7182 12.887C88.7182 14.0914 89.5889 14.6333 90.3995 14.6333Z" fill="white"/>
<path id="Vector_6" d="M96.0439 13.6396H95.5936V15.8075H94.3026V9.99634H96.5844C97.7252 9.99634 98.4458 10.7792 98.4458 11.8029C98.4458 12.5858 98.0255 13.188 97.3049 13.4289L98.4758 15.7774H97.0647L96.0439 13.6396ZM96.3442 12.5256C96.8846 12.5256 97.1548 12.2245 97.1548 11.833C97.1548 11.4115 96.8846 11.1405 96.3442 11.1405H95.5936V12.5557H96.3442V12.5256Z" fill="white"/>
</g>
<g id="Group_2">
<path id="Vector_7" d="M74.5774 51.6385V50.9158L76.1986 50.8255C77.0993 50.7352 77.6698 50.5545 77.91 50.2534C78.1501 49.9523 78.2702 49.3501 78.2702 48.4769L78.3303 46.58V24.088L78.2702 22.1911C78.2702 21.3179 78.1501 20.7458 77.8799 20.4447C77.6097 20.1436 77.0393 19.9328 76.1386 19.8425L74.6675 19.7522V19.0295H87.1271V21.7394C87.4573 21.0469 87.9977 20.3544 88.7483 19.6317C89.4989 18.9392 90.91 18.5779 93.0116 18.5779C95.9538 18.5779 98.3557 19.6016 100.187 21.6792C102.019 23.7568 102.949 26.557 102.949 30.0798C102.949 33.5124 102.019 36.2523 100.187 38.2998C98.3557 40.3774 95.9538 41.4011 93.0116 41.4011C90.8499 41.4011 89.4388 41.1 88.7183 40.5279C87.9977 39.9559 87.4873 39.3235 87.1571 38.6912L87.2171 41.4312V45.8273L87.3072 47.9651C87.3973 49.0189 87.6074 49.7114 87.9377 50.0728C88.2679 50.4341 88.8984 50.6749 89.8591 50.7954L92.0809 50.9459V51.6686H74.5774V51.6385ZM87.3672 37.7277C87.4873 38.5106 87.8476 39.0827 88.418 39.5042C88.9885 39.8956 89.619 40.1064 90.3395 40.1064C91.3003 40.1064 91.9908 39.6548 92.4712 38.7214C92.9515 37.7879 93.2518 36.7642 93.3719 35.6501C93.4919 34.5361 93.582 33.5425 93.612 32.6693C93.6721 31.7961 93.6721 30.8627 93.6721 29.839V26.828C93.582 25.9247 93.4919 24.9913 93.3719 24.0278C93.2518 23.0642 92.9515 22.1007 92.4712 21.1974C91.9908 20.2941 91.2402 19.8425 90.2194 19.8425C89.619 19.8425 89.0185 20.1135 88.4481 20.6555C87.8776 21.1974 87.5474 21.8599 87.3973 22.6126C87.3372 23.3653 87.2772 24.3289 87.2471 25.5031C87.2171 26.7075 87.1871 27.8818 87.1871 29.0561V34.1447C87.2171 35.5899 87.2772 36.7642 87.3672 37.7277Z" fill="white"/>
<path id="Vector_8" d="M127.748 33.9639C126.878 36.2824 125.497 38.089 123.605 39.4138C121.684 40.7386 119.462 41.3709 116.85 41.3709C113.217 41.3709 110.245 40.3773 107.903 38.3298C105.561 36.3125 104.39 33.5123 104.39 29.9292C104.39 26.587 105.591 23.8771 108.023 21.7393C110.455 19.6015 113.337 18.5176 116.73 18.5176C120.273 18.5176 122.975 19.5112 124.866 21.5286C126.758 23.5158 127.688 25.9848 127.688 28.8754H113.487C113.487 29.9894 113.577 31.1336 113.728 32.2778C113.908 33.4219 114.208 34.5661 114.688 35.62C115.169 36.7039 115.829 37.5771 116.7 38.2395C117.571 38.9019 118.681 39.2331 120.002 39.2331C121.894 39.2331 123.365 38.6912 124.476 37.6373C125.587 36.5835 126.427 35.2285 126.998 33.6327L127.748 33.9639ZM119.612 27.9721C119.582 27.6409 119.552 27.2193 119.552 26.7677C119.522 26.316 119.522 25.7138 119.522 25.0213C119.522 23.1545 119.282 21.7092 118.831 20.7457C118.381 19.7822 117.571 19.3004 116.43 19.3004C115.439 19.3004 114.748 19.7822 114.388 20.7156C113.998 21.649 113.728 23.0943 113.577 25.0213L113.487 27.9721H119.612Z" fill="white"/>
<path id="Vector_9" d="M131.231 20.7758H128.079V19.5112C129.129 19.2402 130.21 18.7283 131.351 17.9455C132.492 17.1927 133.573 16.3196 134.624 15.2958C135.644 14.3022 136.515 13.3086 137.206 12.3451C137.896 11.3815 138.437 10.5385 138.797 9.75562H140.088V18.9692H146.092L145.462 20.7457H140.088V33.3316L140.178 35.6802C140.178 37.005 140.478 37.9986 141.049 38.6911C141.619 39.3837 142.37 39.7149 143.24 39.7149C144.441 39.7149 145.312 39.203 145.852 38.2094C146.393 37.2158 146.693 36.1017 146.693 34.8672H147.323C147.323 36.5835 146.813 38.1191 145.792 39.4138C144.771 40.7085 142.61 41.3709 139.247 41.3709C137.116 41.3709 135.224 40.8289 133.603 39.7149C131.982 38.6008 131.141 37.0351 131.141 35.0479V20.7758H131.231Z" fill="white"/>
<path id="Vector_10" d="M162.155 40.9494H147.173V40.2267L148.284 40.1665C149.185 40.0762 149.725 39.8654 149.905 39.5041C150.086 39.1729 150.176 38.4202 150.176 37.276L150.236 35.1382V24.0879L150.176 22.191C150.116 21.4382 150.025 20.8962 149.905 20.5349C149.785 20.1736 149.215 19.9327 148.254 19.8424L146.993 19.7521V19.0294H159.122V35.1984L159.183 37.3362C159.183 38.4503 159.273 39.1729 159.453 39.5342C159.633 39.8955 160.173 40.1063 161.074 40.1966L162.185 40.2569V40.9494H162.155ZM150.086 11.2611C150.086 10.0567 150.536 9.03298 151.407 8.18991C152.277 7.34683 153.328 6.92529 154.589 6.92529C155.85 6.92529 156.931 7.34683 157.801 8.1598C158.672 8.97276 159.122 10.0266 159.122 11.2912C159.122 12.5257 158.672 13.5796 157.801 14.4226C156.931 15.2657 155.85 15.6872 154.589 15.6872C153.358 15.6872 152.307 15.2657 151.407 14.4226C150.536 13.5495 150.086 12.4956 150.086 11.2611Z" fill="white"/>
<path id="Vector_11" d="M165.547 20.7758H162.395V19.5112C163.446 19.2402 164.527 18.7283 165.667 17.9455C166.808 17.1927 167.889 16.3196 168.94 15.2958C169.961 14.3022 170.831 13.3086 171.522 12.3451C172.212 11.3815 172.753 10.5385 173.113 9.75562H174.404V18.9692H180.409L179.778 20.7457H174.434V33.3316L174.524 35.6802C174.524 37.005 174.824 37.9986 175.395 38.6911C175.965 39.3837 176.716 39.7149 177.587 39.7149C178.787 39.7149 179.658 39.203 180.199 38.2094C180.739 37.2158 181.039 36.1017 181.039 34.8672H181.67C181.67 36.5835 181.159 38.1191 180.139 39.4138C179.118 40.7085 176.956 41.3709 173.594 41.3709C171.462 41.3709 169.57 40.8289 167.949 39.7149C166.328 38.6008 165.487 37.0351 165.487 35.0479V20.7758H165.547Z" fill="white"/>
</g>
<path id="Vector_12" d="M0.3302 30.3205C0.600408 40.7084 6.45491 49.7414 14.9815 54.4987C15.8221 50.6748 16.9029 46.5497 18.1039 42.4548C11.4688 40.9493 4.95376 37.0651 0.3302 30.3205ZM27.9815 39.3234C31.7944 38.8115 35.2471 37.3662 37.739 35.3188C40.2909 33.2111 41.7621 30.5012 42.0023 27.4902C42.5126 21.0166 39.6304 16.3496 36.6581 15.2355C34.5265 14.4225 32.9653 15.7474 32.0346 17.012C29.7528 20.0832 26.03 29.4172 22.8175 39.5341C24.5889 39.6245 26.3302 39.5642 27.9815 39.3234ZM28.8221 0.93335C14.9815 0.93335 3.4526 10.8094 0.870616 23.9372C4.92373 32.6992 11.9792 37.4264 19.1847 38.9922C22.5173 28.2731 26.5103 18.3368 29.1223 14.814C31.4041 11.7127 34.7066 10.5986 37.9191 11.8331C42.2424 13.459 46.2655 19.4509 45.605 27.7913C45.2748 31.7959 43.3533 35.379 40.0508 38.1491C37.0184 40.6783 32.9953 42.3343 28.4618 42.9666C26.3002 43.2677 24.0184 43.2979 21.7367 43.0871C20.4157 47.5132 19.2147 52.0297 18.314 56.0945C21.5565 57.3892 25.0993 58.0818 28.8221 58.0818C44.5542 58.0818 57.3441 45.2851 57.3441 29.4775C57.3441 13.73 44.5842 0.93335 28.8221 0.93335Z" fill="white"/>
<g id="Group_3">
<path id="Vector_13" d="M39.5854 77.548H43.0381L41.3268 73.3025L39.5854 77.548Z" fill="url(#paint0_linear_1_860)"/>
<path id="Vector_14" d="M53.2699 72.2485H52.1891V79.3243H53.2699C55.5517 79.3243 56.9628 78.0597 56.9628 75.7714C56.9628 73.483 55.5517 72.2485 53.2699 72.2485Z" fill="url(#paint1_linear_1_860)"/>
<path id="Vector_15" d="M0 67.446V85.0001H182V67.446H0ZM32.488 80.1976C32.488 80.3782 32.3979 80.4685 32.2178 80.4685H28.4949C28.3148 80.4685 28.2247 80.3782 28.2247 80.1976V71.3754C28.2247 71.1947 28.3148 71.1044 28.4949 71.1044H29.1855C29.3656 71.1044 29.4557 71.1947 29.4557 71.3754V79.3244H32.2178C32.3979 79.3244 32.488 79.4147 32.488 79.5954V80.1976ZM45.1697 80.4685H44.3891C44.239 80.4685 44.149 80.4083 44.1189 80.2879L43.4584 78.6318H39.1651L38.5046 80.2879C38.4146 80.4384 38.3245 80.4685 38.2044 80.4685H37.4538C37.2737 80.4685 37.1836 80.3481 37.2737 80.1674L41.1166 71.1345C41.2067 70.8936 41.4169 70.8936 41.537 71.1345L45.3499 80.1674C45.44 80.3481 45.3499 80.4685 45.1697 80.4685ZM53.27 80.4685V80.4986H51.1984C51.0182 80.4986 50.9282 80.4083 50.9282 80.2277V71.4055C50.9282 71.2248 51.0182 71.1345 51.1984 71.1345H53.27C56.1822 71.1345 58.0737 72.8508 58.0737 75.8015C58.0737 78.7222 56.2423 80.4685 53.27 80.4685ZM65.2372 80.1976C65.2372 80.3782 65.1471 80.4685 64.967 80.4685H64.3065C64.1263 80.4685 64.0363 80.3782 64.0363 80.1976V71.3754C64.0363 71.1947 64.1263 71.1044 64.3065 71.1044H64.967C65.1471 71.1044 65.2372 71.1947 65.2372 71.3754V80.1976ZM76.5289 71.9174C76.5289 72.098 76.4388 72.1883 76.2587 72.1883H72.7159V76.3134H75.7783C75.9584 76.3134 76.0485 76.4037 76.0485 76.5844V77.1565C76.0485 77.3371 75.9584 77.4274 75.7783 77.4274H72.7159V79.3244H76.2587C76.4388 79.3244 76.5289 79.4147 76.5289 79.5954V80.1976C76.5289 80.3782 76.4388 80.4685 76.2587 80.4685V80.4083H71.7552C71.5751 80.4083 71.485 80.318 71.485 80.1373V71.3152C71.485 71.1345 71.5751 71.0442 71.7552 71.0442H76.2587C76.4388 71.0442 76.5289 71.1345 76.5289 71.3152V71.9174ZM84.9594 80.6492C84.0887 80.6492 83.248 80.4986 82.1672 79.8362C82.0471 79.7459 81.9871 79.5954 82.0771 79.4749L82.3473 78.9028C82.4374 78.7824 82.5875 78.7222 82.7076 78.8125C83.6684 79.3545 84.4189 79.4749 85.0194 79.4749C86.0702 79.4749 86.7307 78.9932 86.7307 78.1501C86.7307 77.2167 85.7099 76.7048 84.539 76.0424C83.3681 75.38 82.2273 74.6875 82.2273 73.182C82.2273 71.556 83.4882 70.8635 84.9293 70.8635C85.6799 70.8635 86.4905 71.0743 87.3312 71.4356C87.4813 71.5259 87.5413 71.6765 87.4513 71.7969L87.1811 72.369C87.091 72.4894 86.9409 72.5798 86.8208 72.4894C86.1603 72.1883 85.4397 72.0077 84.8393 72.0077C83.9986 72.0077 83.3081 72.3088 83.3081 73.1519C83.3081 74.1756 84.2088 74.6573 85.2296 75.2294C86.4605 75.8918 87.8116 76.5844 87.8116 78.1802C87.8116 79.8663 86.4905 80.6492 84.9594 80.6492ZM106.144 79.4448C107.074 79.4448 107.945 79.0835 108.606 78.4813C108.756 78.391 108.846 78.3608 108.966 78.4813L109.506 78.9329C109.626 79.0835 109.656 79.1738 109.536 79.2943C108.666 80.1072 107.465 80.6492 106.114 80.6492C103.442 80.6492 101.28 78.6619 101.37 75.7112C101.37 72.8206 103.532 70.8334 106.174 70.8334C107.465 70.8334 108.666 71.3152 109.536 72.1582C109.656 72.3088 109.656 72.3991 109.536 72.5195L108.996 72.9712C108.846 73.0916 108.756 73.0615 108.636 72.9712C107.975 72.369 107.104 72.0077 106.144 72.0077C104.132 72.0077 102.511 73.5132 102.511 75.7112C102.511 77.9092 104.132 79.4448 106.144 79.4448ZM117.697 80.4685C117.396 80.589 117.096 80.589 116.826 80.589C115.865 80.589 115.145 79.9868 115.145 79.0233V71.4657C115.145 71.285 115.235 71.1947 115.415 71.1947H116.015C116.195 71.1947 116.285 71.285 116.285 71.4657V78.8125C116.285 79.4147 116.556 79.6857 116.946 79.6857C117.096 79.6857 117.216 79.6255 117.396 79.5954C117.516 79.505 117.667 79.5954 117.697 79.7158L117.817 80.1674C117.877 80.2879 117.817 80.3782 117.697 80.4685ZM124.482 80.1976C124.482 80.3782 124.392 80.4685 124.212 80.4685H123.611C123.431 80.4685 123.341 80.3782 123.341 80.1976V74.6573C123.341 74.4767 123.431 74.3864 123.611 74.3864H124.212C124.392 74.3864 124.482 74.4767 124.482 74.6573V80.1976ZM123.971 73.6035C123.461 73.6035 123.161 73.3024 123.191 72.8206C123.191 72.3991 123.521 72.0378 123.971 72.0378C124.422 72.0378 124.722 72.3991 124.722 72.8206C124.722 73.2422 124.422 73.6035 123.971 73.6035ZM135.59 80.1976C135.59 80.3782 135.5 80.4685 135.32 80.4685H134.72C134.539 80.4685 134.449 80.3782 134.449 80.1976V76.7349C134.449 75.8617 133.909 75.3198 133.128 75.3198C132.378 75.3198 131.687 75.8617 131.687 76.8252V80.2277C131.687 80.4083 131.597 80.4986 131.417 80.4986H130.817C130.636 80.4986 130.546 80.4083 130.546 80.2277V74.6875C130.546 74.5068 130.636 74.4165 130.817 74.4165H131.177C131.327 74.4165 131.417 74.4466 131.447 74.6272L131.537 75.109C132.018 74.5369 132.678 74.2659 133.339 74.2659C134.78 74.2659 135.53 75.3198 135.59 76.6446V80.1976ZM142.679 80.1976C142.679 80.3782 142.589 80.4685 142.409 80.4685H141.808C141.628 80.4685 141.538 80.3782 141.538 80.1976V74.6573C141.538 74.4767 141.628 74.3864 141.808 74.3864H142.409C142.589 74.3864 142.679 74.4767 142.679 74.6573V80.1976ZM142.078 73.6035C141.658 73.6035 141.298 73.3024 141.298 72.8206C141.298 72.3991 141.628 72.0378 142.078 72.0378C142.529 72.0378 142.829 72.3991 142.829 72.8206C142.829 73.2422 142.529 73.6035 142.078 73.6035ZM154.328 79.0835C153.787 80.0169 152.736 80.589 151.656 80.589C149.854 80.589 148.443 79.2641 148.413 77.3371C148.413 75.4402 149.854 74.1756 151.596 74.1756C152.676 74.1756 153.697 74.7477 154.268 75.6811C154.358 75.8316 154.298 75.9521 154.178 76.0424L153.697 76.3435C153.547 76.4338 153.427 76.3736 153.337 76.2532C153.007 75.6811 152.346 75.2897 151.596 75.2897C150.455 75.2897 149.524 76.1327 149.524 77.3973C149.524 78.6619 150.455 79.505 151.596 79.505C152.316 79.505 152.977 79.1437 153.337 78.5415C153.427 78.391 153.577 78.3307 153.697 78.4211L154.238 78.7824C154.358 78.8125 154.418 78.963 154.328 79.0835Z" fill="url(#paint2_linear_1_860)"/>
</g>
</g>
<defs>
<linearGradient id="paint0_linear_1_860" x1="-4.86725e-06" y1="75.4244" x2="180.169" y2="75.4244" gradientUnits="userSpaceOnUse">
<stop stop-color="#E4BE53"/>
<stop offset="0.5" stop-color="#FEF2A0"/>
<stop offset="1" stop-color="#E4BE53"/>
</linearGradient>
<linearGradient id="paint1_linear_1_860" x1="-3.82414e-05" y1="75.7857" x2="180.169" y2="75.7857" gradientUnits="userSpaceOnUse">
<stop stop-color="#E4BE53"/>
<stop offset="0.5" stop-color="#FEF2A0"/>
<stop offset="1" stop-color="#E4BE53"/>
</linearGradient>
<linearGradient id="paint2_linear_1_860" x1="0" y1="76.2231" x2="180.169" y2="76.2231" gradientUnits="userSpaceOnUse">
<stop stop-color="#E4BE53"/>
<stop offset="0.5" stop-color="#FEF2A0"/>
<stop offset="1" stop-color="#E4BE53"/>
</linearGradient>
<clipPath id="clip0_1_860">
<rect width="182" height="85" fill="white"/>
</clipPath>
</defs>
</svg>
