<svg width="102" height="28" viewBox="0 0 102 28" fill="none" xmlns="http://www.w3.org/2000/svg">
<g clip-path="url(#clip0_183_402)">
<mask id="mask0_183_402" style="mask-type:luminance" maskUnits="userSpaceOnUse" x="-4" y="-2" width="32" height="33">
<path d="M27.9999 -1.12H-3.36011V30.24H27.9999V-1.12Z" fill="white"/>
</mask>
<g mask="url(#mask0_183_402)">
<path d="M12.3101 23.6819C12.064 23.6819 11.6998 23.4949 11.3946 23.3078C5.89198 19.7641 2.36792 15.6101 2.36792 11.397C2.36792 7.78428 4.86823 5.26428 8.0084 5.26428C9.96728 5.26428 11.4439 6.35693 12.3101 7.97131C13.196 6.34709 14.6628 5.26428 16.6216 5.26428C19.7618 5.26428 22.2523 7.78428 22.2523 11.397C22.2523 15.6101 18.7283 19.7641 13.2256 23.3078C12.9302 23.4949 12.566 23.6819 12.3101 23.6819Z" fill="#060B11"/>
</g>
<path d="M28.5864 9.3713V6.23442H33.692V9.3713H36.3433V13.3088H33.692V18.27C33.692 19.2544 34.3351 19.6744 35.372 19.6744C35.7658 19.6744 36.212 19.6613 36.3433 19.6482V23.3888C35.9627 23.4413 35.1489 23.52 34.0989 23.52C30.3189 23.52 28.4289 22.5095 28.4289 19.4513V13.3088H26.2764V9.3713H28.5864ZM38.5745 23.52V9.3713H43.9033V11.6419H44.1658C44.3496 10.6575 45.3996 9.17442 47.1976 9.17442C47.972 9.17442 48.4314 9.22692 48.694 9.33192V13.7682C48.3658 13.6238 47.644 13.5451 46.9089 13.5451C44.914 13.5451 44.0871 14.6344 44.0871 16.5244V23.52H38.5745ZM54.2196 23.7169C51.4502 23.7169 49.5207 22.1682 49.5207 19.4251C49.5207 16.7869 51.3452 15.1069 54.6658 15.1069H57.6976V14.07C57.6976 13.3219 57.1727 12.8888 56.372 12.8888C55.5189 12.8888 54.9807 13.4138 54.9807 14.1226H50.0196C50.072 11.9175 51.3452 9.17442 56.4245 9.17442C60.034 9.17442 62.9214 10.4869 62.9214 14.28V23.52H57.9602V21.8663H57.6976C57.3564 22.7457 56.3064 23.7169 54.2196 23.7169ZM56.162 20.1995C56.9233 20.1995 57.6976 19.7269 57.6976 18.9657V17.7057H56.3327C55.3745 17.7057 54.7183 18.1913 54.7183 18.9526C54.7183 19.7531 55.4271 20.1995 56.162 20.1995ZM68.0927 23.52L63.8533 9.3713H69.5889L71.2296 18.9657H71.4396L73.4476 9.3713H79.0127L74.3402 23.52H68.0927ZM86.3758 23.7957C82.2283 23.7957 79.2358 21.63 79.2358 16.8526V15.9863C79.2358 11.2219 82.4514 9.09567 86.1789 9.09567C90.2607 9.09567 93.0433 11.6682 93.0433 15.9863V17.4695H84.394V18.0731C84.394 19.3726 85.3783 20.0157 86.3496 20.0157C87.3996 20.0157 88.2658 19.5038 88.2789 18.6113H93.004C92.9776 20.7769 91.1664 23.7957 86.3758 23.7957ZM84.394 14.7131H87.9902C87.9902 13.5319 87.3076 12.7313 86.2314 12.7313C85.1551 12.7313 84.394 13.5319 84.394 14.7131ZM95.0907 23.52V4.65942H100.42V23.52H95.0907Z" fill="#060B11"/>
</g>
<defs>
<clipPath id="clip0_183_402">
<rect width="101.92" height="28" fill="white"/>
</clipPath>
</defs>
</svg>
